<ttFont>
          <CharString index="0">
            187 225 vvcurveto
            226 -147 189 -60 callsubr
            -1001 -22 353 hlineto
            -205 -63 -147 -189 -226 vvcurveto
            -225 return
          </CharString>
          <CharString index="1">
            -278 -222 -222 -278 -277 223 -222 277 276 223 222 277 278 -222 222 -277 hvcurveto
            -976 vmoveto
            -262 -214 214 262 263 213 215 263 263 212 -215 -263 -262 -213 -214 -262 hvcurveto
            endchar
          </CharString>
          <CharString index="2">
            -9 52 168 50 169 51 hstem
            67 57 252 57 vstem
            257 481 rmoveto
            -129 -61 -94 -150 12 callsubr
            65 15 -22 callgsubr
            -59 -15 -38 hhcurveto
            -98 -40 76 92 -6 hvcurveto
            306 hlineto
            3 50 rlineto
            127 -55 93 -121 vhcurveto
            -51 vmoveto
            92 27 -77 -92 hvcurveto
            -252 hlineto
            97 4 32 72 97 hhcurveto
            return
          </CharString>
          <CharString index="3">
            -263 -214 213 263 264 213 214 264 hvcurveto
            22 return
          </CharString>
          <CharString index="4">
            hstem
            72 57 243 57 vstem
            72 266 rmoveto
            -160 38 -112 141 142 36 112 160 152 -35 105 -143 -145 -34 -105 -152 vhcurveto
            300 -1 rmoveto
            -111 -14 -111 -107 -107 -15 111 111 95 10 114 112 111 10 -114 -95 vhcurveto
            return
          </CharString>
          <CharString index="5">
            rmoveto
            -502 -22 hlineto
            -93 callgsubr
            502 23 -350 vlineto
            -98 callsubr
            hlineto
            endchar
          </CharString>
          <CharString index="6">
            220 rmoveto
            88 -49 54 -88 -29 -34 -13 -19 -26 vhcurveto
            6 159 rlineto
            204 38 -241 hlineto
            -6 -236 26 -8 rlineto
            21 24 35 21 37 hhcurveto
            65 34 -40 -65 -70 -37 -51 -72 -37 -47 16 15 -33 hvcurveto
            -13 -37 rlineto
            -16 37 56 -14 38 hhcurveto
            97 53 60 97 hvcurveto
            return
          </CharString>
          <CharString index="7">
            -21 callsubr
            hstem
            59 57 268 57 vstem
            250 481 rmoveto
            -131 -60 -89 -156 -155 58 -90 133 133 58 90 155 156 -59 89 -132 hvcurveto
            -134 -245 rmoveto
            122 37 71 97 97 37 -71 -122 -121 -37 -72 -97 -97 -37 72 121 vhcurveto
            return
          </CharString>
          <CharString index="8">
            219 rmoveto
            94 -51 52 -92 -42 -33 -26 -22 -22 vhcurveto
            20 78 39 47 129 64 -16 36 rcurveline
            -160 -78 -60 -74 -168 vvcurveto
            -102 55 -55 90 92 51 60 94 vhcurveto
            -42 hmoveto
            -71 -33 -46 -68 -68 -35 40 80 60 46 44 57 67 34 -36 -71 vhcurveto
            return
          </CharString>
          <CharString index="9">
            -72 callgsubr
            227 -147 188 -73 callgsubr
            return
          </CharString>
          <CharString index="10">
            rmoveto
            -103 52 -50 126 -30 vhcurveto
            112 -27 30 -31 -81 vvcurveto
            -85 -59 -47 -90 -50 -67 17 11 -40 vhcurveto
            -13 -51 rlineto
            -14 50 62 -15 60 hhcurveto
            119 87 69 115 120 -53 36 -129 34 hvcurveto
            -102 27 -35 33 73 vvcurveto
            78 55 38 83 51 71 -17 -13 36 vhcurveto
            14 51 rlineto
            15 -43 -69 16 -61 hhcurveto
            -113 -84 -57 -112 hvcurveto
            endchar
          </CharString>
          <CharString index="11">
            404 rmoveto
            86 -53 46 -79 -41 -48 -26 -29 -38 vhcurveto
            20 -31 rlineto
            28 38 35 22 34 hhcurveto
            52 38 -40 -56 -119 -164 -43 -47 -135 hvcurveto
            -34 271 41 -224 vlineto
            43 104 163 50 136 vvcurveto
            return
          </CharString>
          <CharString index="12">
            385 rmoveto
            -83 48 -38 106 -25 vhcurveto
            87 -20 25 -24 -56 vvcurveto
            -60 -44 -36 -75 -43 -65 17 6 -27 vhcurveto
            -11 -49 rlineto
            -10 41 55 -13 50 hhcurveto
            99 77 46 99 92 -43 32 -109 27 hvcurveto
            -84 21 -30 24 51 vvcurveto
            60 43 28 69 44 64 -17 -7 24 vhcurveto
            13 48 rlineto
            12 -36 -58 13 -51 hhcurveto
            -94 -75 -41 -97 hvcurveto
            return
          </CharString>
          <CharString index="13">
            -200 52 149 52 376 52 hstem
            52 57 266 53 vstem
            428 -9 callgsubr
            -51 hlineto
            -2 -29 rlineto
            16 -30 -51 19 -38 hhcurveto
            -129 -75 -93 -150 -152 67 -85 120 51 52 28 23 33 hvcurveto
            -25 3 -33 -18 vvcurveto
            -89 -64 -35 -79 62 callsubr
            vhcurveto
            -18 -50 rlineto
            -17 43 77 -23 50 hhcurveto
            112 84 53 124 hvcurveto
            20 -3 81 37 vvcurveto
            -185 -62 rmoveto
            -90 -44 71 114 116 53 75 96 38 52 -22 -17 27 hvcurveto
            -280 vlineto
            -30 -36 -51 -27 -45 hhcurveto
            return
          </CharString>
          <CharString index="14">
            rmoveto
            350 hlineto
            -203 -64 -146 -189 -225 vvcurveto
            -227 147 -186 205 -63 vhcurveto
            -353 -23 -66 callsubr
            endchar
          </CharString>
          <CharString index="15">
            -9 52 432 -20 hstem
            74 53 245 53 vstem
            374 hmoveto
            51 475 -53 -382 hlineto
            -21 -43 -62 -29 -48 hhcurveto
            -62 -30 50 62 hvcurveto
            320 -53 -320 vlineto
            -98 47 -66 98 48 59 26 24 46 vhcurveto
            return
          </CharString>
          <CharString index="16">
            264 213 -214 -264 -263 -214 -213 -263 hvcurveto
            return
          </CharString>
          <CharString index="17">
            rmoveto
            -97 -53 -60 -97 -38 -56 14 16 -37 vhcurveto
            13 37 rlineto
            -15 33 47 -16 37 hhcurveto
            72 37 51 70 65 -34 40 -65 -37 -35 -21 -21 -24 hvcurveto
            -26 8 6 236 rlineto
            241 -38 -204 hlineto
            -6 -159 rlineto
            19 26 34 13 29 hhcurveto
            88 49 -54 -88 hvcurveto
            return
          </CharString>
          <CharString index="18">
            83 264 rmoveto
            -199 66 -72 126 1 vhcurveto
            41 62 10 12 38 hvcurveto
            -13 50 rlineto
            -10 -36 -51 -11 -41 hhcurveto
            -81 -54 48 171 150 41 60 94 23 32 -2 -10 27 hvcurveto
            -67 54 107 vlineto
            7 -25 -64 14 -47 hhcurveto
            -133 -59 -82 -177 hvcurveto
            return
          </CharString>
          <CharString index="19">
            rmoveto
            -252 78 -92 148 50 70 13 15 44 vhcurveto
            -13 52 rlineto
            -13 -42 -61 -14 -47 hhcurveto
            -108 -60 78 213 190 47 89 121 34 38 -5 -11 30 hvcurveto
            -89 55 132 vlineto
            12 -38 -71 13 -48 hhcurveto
            -160 -67 -107 -224 hvcurveto
            endchar
          </CharString>
          <CharString index="20">
            rmoveto
            24 hlineto
            0 4 -28 -29 -29 vhcurveto
            22 -22 rlineto
            41 33 5 25 48 vvcurveto
            51 -67 vlineto
            return
          </CharString>
          <CharString index="21">
            rmoveto
            -94 -51 -60 -92 -90 -55 55 102 168 60 74 160 78 vhcurveto
            16 -36 -129 -64 -39 -47 -20 -78 rlinecurve
            22 22 33 26 42 hhcurveto
            92 51 -52 -94 hvcurveto
            -42 hmoveto
            71 -34 36 -67 -57 -46 -44 -60 -80 35 -40 68 68 33 46 71 vhcurveto
            return
          </CharString>
          <CharString index="22">
            rmoveto
            88 57 60 85 89 52 -55 -95 -136 -50 -85 -94 -106 vhcurveto
            -49 9 92 100 32 52 19 70 rlinecurve
            -22 -22 -28 -23 -42 hhcurveto
            -89 -52 50 93 hvcurveto
            42 hmoveto
            -70 32 -35 67 57 43 43 60 74 -31 39 -68 -64 -36 -46 -65 vhcurveto
            return
          </CharString>
          <CharString index="23">
            rmoveto
            -253 78 -92 150 51 74 18 19 53 vhcurveto
            288 -168 -49 113 -200 vlineto
            -12 -36 -47 -12 -40 hhcurveto
            -109 -60 79 214 189 47 89 128 51 64 -17 -14 41 hvcurveto
            14 51 rlineto
            18 -50 -67 14 -53 hhcurveto
            -167 -67 -107 -223 hvcurveto
            endchar
          </CharString>
          <CharString index="24">
            rmoveto
            -278 -223 -221 -278 -279 222 -221 279 hvcurveto
            return
          </CharString>
          <CharString index="25">
            rmoveto
            -200 66 -71 128 45 63 12 16 45 vhcurveto
            232 -148 -48 94 -145 vlineto
            -9 -29 -37 -7 -33 hhcurveto
            -88 -49 58 162 143 38 65 104 43 55 -12 -11 34 hvcurveto
            12 48 rlineto
            14 -42 -57 11 -45 hhcurveto
            -141 -58 -82 -176 hvcurveto
            return
          </CharString>
          <CharString index="26">
            rmoveto
            502 22 -502 hlineto
            -999 vmoveto
            502 23 -502 hlineto
            return
          </CharString>
          <CharString index="27">
            rmoveto
            21 -39 183 90 -23 49 rlineto
            return
          </CharString>
          <CharString index="28">
            rmoveto
            35 -66 52 -115 33 -88 rrcurveto
            60 hlineto
            -36 98 -50 111 -38 72 rrcurveto
            83 35 37 53 96 vvcurveto
            147 -80 43 -156 vhcurveto
            -147 -655 55 266 82 hlineto
            20 32 2 1 18 hvcurveto
            -62 336 rmoveto
            115 65 -25 -115 -115 -77 -34 -113 hvcurveto
            -80 289 hlineto
            endchar
          </CharString>
          <CharString index="29">
            rmoveto
            -46 hlineto
            -128 -162 rlineto
            58 hlineto
            93 122 93 -122 rlineto
            58 hlineto
            endchar
          </CharString>
          <CharString index="30">
            vstem
            89 hmoveto
            54 209 51 hlineto
            17 28 1 1 15 hvcurveto
            64 -95 53 -116 0 vvcurveto
            62 hlineto
            0 -62 127 -63 95 vhcurveto
            69 17 40 57 74 vvcurveto
            109 -61 38 -134 vhcurveto
            -133 hlineto
            270 -147 rmoveto
            -82 -60 -29 -101 vhcurveto
            -56 209 74 hlineto
            101 42 -25 -73 hvcurveto
            return
          </CharString>
          <CharString index="31">
            -20 hstem
            100 hmoveto
            89 hlineto
            59 213 rlineto
            3 hlineto
            58 -213 rlineto
            92 hlineto
            60 517 rlineto
            -56 hlineto
            -52 -466 rlineto
            -10 hlineto
            -70 242 rlineto
            -46 hlineto
            -71 -242 rlineto
            -9 hlineto
            -51 466 rlineto
            -56 hlineto
            return
          </CharString>
          <CharString index="32">
            -43 callgsubr
            95 89 hstemhm
            115 177 -75 75 -53 53 hintmask 11101000
            63 callgsubr
            hintmask 11100100
            116 -375 hlineto
            hintmask 11110000
            -124 -50 293 50 -116 425 -169 hlineto
            return
          </CharString>
          <CharString index="33">
            344 49 -289 260 259 49 -259 248 286 49 -341 hlineto
            endchar
          </CharString>
          <CharString index="34">
            71 rmoveto
            36 -105 423 -37 vlineto
            -140 -64 17 -37 118 55 rlineto
            -377 -123 -36 vlineto
            return
          </CharString>
          <CharString index="35">
            rmoveto
            0 79 12 30 94 46 -38 -96 -87 -61 -42 -87 -52 -72 20 19 -49 vhcurveto
            -18 -51 rlineto
            -20 54 78 -20 59 hhcurveto
            129 78 56 129 91 -43 55 -80 17 hvcurveto
            2 vlineto
            65 33 32 33 79 vvcurveto
            111 -75 47 -104 -49 -82 -25 -24 -49 vhcurveto
            19 -47 rlineto
            22 50 62 22 43 hhcurveto
            70 58 -30 -80 -77 -54 -39 -106 -16 hvcurveto
            -72 -11 rlineto
            return
          </CharString>
          <CharString index="36">
            88 callgsubr
            54 vstem
            60 517 rmoveto
            164 -295 rlineto
            -222 54 222 vlineto
            161 295 rlineto
            -62 hlineto
            -122 -239 rlineto
            -7 hlineto
            -122 239 rlineto
            return
          </CharString>
          <CharString index="37">
            vstem
            102 hmoveto
            296 49 -242 190 217 49 -217 180 239 49 -293 hlineto
            return
          </CharString>
          <CharString index="38">
            rmoveto
            60 -42 36 -63 -62 -42 -36 -60 -60 42 -35 62 63 42 35 60 vhcurveto
            -167 hmoveto
            37 23 20 39 39 23 -20 -37 -36 -23 -21 -39 -39 -23 21 36 vhcurveto
            return
          </CharString>
          <CharString index="39">
            rmoveto
            -64 -99 -41 99 -195 33 hlineto
            118 332 rlineto
            41 hlineto
            -115 -328 rlineto
            151 151 41 -151 64 hlineto
            return
          </CharString>
          <CharString index="40">
            rmoveto
            30 -34 115 101 117 -101 29 34 -120 110 rlineto
            -52 hlineto
            endchar
          </CharString>
          <CharString index="41">
            502 999 -502 hlineto
            return
          </CharString>
          <CharString index="42">
            rmoveto
            121 -68 75 -121 -42 -46 -18 -25 -35 vhcurveto
            7 217 rlineto
            284 55 -334 hlineto
            -10 -328 37 -11 rlineto
            29 34 46 29 53 hhcurveto
            89 48 -55 -89 -99 -52 -68 -99 -52 -64 21 20 -45 hvcurveto
            -19 -51 rlineto
            -21 51 76 -21 54 hhcurveto
            134 74 85 134 hvcurveto
            return
          </CharString>
          <CharString index="43">
            -22 vlineto
            264 213 -214 -264 return
          </CharString>
          <CharString index="44">
            -107 -29 52 257 50 242 52 hstem
            300 58 -45 56 266 56 -44 58 vstem
            502 624 rmoveto
            125 64 -73 -98 -67 -27 -51 -67 -28 hvcurveto
            72 -27 36 -49 -84 vvcurveto
            -106 -70 -70 -133 -133 -69 70 106 85 40 48 66 25 vhcurveto
            -64 32 -29 50 66 vvcurveto
            98 65 73 124 vhcurveto
            -144 -477 rmoveto
            -77 50 -47 94 94 51 47 77 83 -49 50 -96 -93 -51 -50 -83 vhcurveto
            11 306 rmoveto
            -67 38 -56 95 95 38 52 71 71 -40 48 -93 -93 -40 -48 -71 vhcurveto
            return
          </CharString>
          <CharString index="45">
            vvcurveto
            -225 146 -187 203 -36 callsubr
            return
          </CharString>
          <CharString index="46">
            86 34 361 33 hstem
            return
          </CharString>
          <CharString index="47">
            -73 callgsubr
            22 return
          </CharString>
          <CharString index="48">
            rmoveto
            -28 16 -18 28 28 14 18 28 28 -14 15 -28 -28 -16 -15 -28 vhcurveto
            endchar
          </CharString>
          <CharString index="49">
            55 655 -55 -453 -3 hlineto
            -286 453 rlineto
            -54 -655 55 551 3 hlineto
            285 -448 rlineto
            endchar
          </CharString>
          <CharString index="50">
            51 callsubr
            78 hmoveto
            55 424 3 hlineto
            232 -346 rlineto
            -78 54 517 -54 -350 -3 vlineto
            -233 350 rlineto
            -54 hlineto
            return
          </CharString>
          <CharString index="51">
            rmoveto
            118 -75 66 -109 -56 -66 -38 -39 -53 vhcurveto
            28 -42 rlineto
            36 52 48 31 47 hhcurveto
            73 52 -53 -79 -164 -226 -59 -66 -187 hvcurveto
            -49 375 57 -309 vlineto
            58 145 227 68 189 vvcurveto
            return
          </CharString>
          <CharString index="52">
            -263 -214 -213 -263 vhcurveto
            endchar
          </CharString>
          <CharString index="53">
            -200 65 874 65 -44 callgsubr
            return
          </CharString>
          <CharString index="54">
            86 34 203 34 130 32 hstem
            return
          </CharString>
          <CharString index="55">
            86 34 168 33 160 33 hstem
            return
          </CharString>
          <CharString index="56">
            rmoveto
            -129 72 -70 123 58 39 33 31 31 vhcurveto
            -28 -98 -43 -72 -128 -139 67 -11 rcurveline
            132 146 68 117 189 vvcurveto
            130 -71 78 -124 -117 -79 -84 -121 vhcurveto
            return
          </CharString>
          <CharString index="57">
            25 callsubr
            121 79 84 117 124 71 -78 -130 -189 -68 -117 -132 -146 vhcurveto
            -67 11 128 139 43 72 28 98 rlinecurve
            -31 -31 -39 -33 -58 hhcurveto
            -123 -72 70 129 hvcurveto
            64 hmoveto
            -97 44 -50 93 78 60 61 83 102 -43 54 -94 -88 -50 -62 -91 vhcurveto
            return
          </CharString>
          <CharString index="58">
            -200 65 126 52 191 26 callsubr
            258 65 hstemhm
            60 56 246 53 hintmask 10001000
            return
          </CharString>
          <CharString index="59">
            rmoveto
            -24 hlineto
            0 -4 28 29 29 vhcurveto
            -22 22 rlineto
            -41 -33 -5 -25 -48 vvcurveto
            return
          </CharString>
          <CharString index="60">
            107 -21 90 33 299 -20 hstem
            return
          </CharString>
          <CharString index="61">
            38 -29 36 175 36 -29 38 vstem
            return
          </CharString>
          <CharString index="62">
            vstem
            -68 callgsubr
            return
          </CharString>
          <CharString index="63">
            0 vvcurveto
            -6 42 -10 callsubr
            return
          </CharString>
          <CharString index="64">
            rmoveto
            -28 -27 -33 -33 -25 -62 -64 78 -76 hhcurveto
            -42 -37 -28 -50 -47 hvcurveto
            36 -31 25 27 35 36 30 -1 rlinecurve
            59 58 -78 85 hhcurveto
            40 35 29 49 45 hvcurveto
            return
          </CharString>
          <CharString index="65">
            0 50 565 49 hstem
            228 53 vstem
            109 614 rmoveto
            119 1 rlineto
            -565 -123 -50 298 50 -122 614 vlineto
            -173 -1 rlineto
            return
          </CharString>
          <CharString index="66">
            45 callgsubr
            -91 12 -75 36 -48 vhcurveto
            -38 -73 36 -20 33 62 rlineto
            -18 26 32 -9 42 hhcurveto
            142 36 112 160 82 -11 68 -31 45 hvcurveto
            36 68 -38 22 -30 -57 rlineto
            18 -26 -34 11 -44 hhcurveto
            -145 -34 -105 -152 hvcurveto
            return
          </CharString>
          <CharString index="67">
            312 49 -251 hlineto
            238 427 -7 41 rlineto
            -298 -50 239 hlineto
            -239 -428 rlineto
            return
          </CharString>
          <CharString index="68">
            114 -21 381 34 hstem
            return
          </CharString>
          <CharString index="69">
            rmoveto
            49 -4 14 57 rlineto
            254 hlineto
            -13 -102 -206 -255 -225 vvcurveto
            59 hlineto
            217 205 245 12 116 vhcurveto
            56 -355 vlineto
            return
          </CharString>
          <CharString index="70">
            -69 callgsubr
            -66 callgsubr
            return
          </CharString>
          <CharString index="71">
            -64 vhcurveto
            -350 return
          </CharString>
          <CharString index="72">
            -20 hstem
            53 -9 callgsubr
            150 -475 rlineto
            100 hlineto
            145 475 rlineto
            -60 hlineto
            -126 -427 rlineto
            -18 hlineto
            -131 427 rlineto
            endchar
          </CharString>
          <CharString index="73">
            -199 23 954 22 hstem
            return
          </CharString>
          <CharString index="74">
            0 50 555 50 return
          </CharString>
          <CharString index="75">
            -44 callsubr
            -42 -16 return
          </CharString>
          <CharString index="76">
            -107 -8 -21 137 52 455 -20 hstemhm
            548 55 -35 55 hintmask 11101000
            693 108 rmoveto
            -90 -137 -55 137 -271 47 hlineto
            164 460 rlineto
            57 hlineto
            -159 -455 rlineto
            209 210 55 hlineto
            hintmask 11110000
            -210 90 vlineto
            return
          </CharString>
          <CharString index="77">
            21 -21 429 52 183 -20 hstem
            78 53 245 53 vstem
            131 388 -3 callsubr
            return
          </CharString>
          <CharString index="78">
            93 33 383 -20 hstem
            return
          </CharString>
          <CharString index="79">
            -502 -999 return
          </CharString>
          <CharString index="80">
            49 hstem
            88 54 227 57 vstem
            88 hmoveto
            114 hlineto
            148 76 49 210 209 -65 50 -157 hvcurveto
            -116 hlineto
            281 -260 rmoveto
            -185 -59 -24 -111 vhcurveto
            -57 420 58 hlineto
            112 57 -24 -187 hvcurveto
            return
          </CharString>
          <CharString index="81">
            rmoveto
            95 10 114 112 35 24 -11 -19 18 vhcurveto
            -177 -335 rlineto
            -18 42 -4 57 57 vvcurveto
            243 hmoveto
            -111 -14 -111 -107 -32 -24 10 17 -18 vhcurveto
            177 331 rlineto
            15 -40 3 -50 -46 vvcurveto
            endchar
          </CharString>
          <CharString index="82">
            0 49 260 49 248 49 hstemhm
            82 55 vstemhm
            return
          </CharString>
          <CharString index="83">
            -10 52 571 52 30 callsubr
            vstemhm
            return
          </CharString>
          <CharString index="84">
            rmoveto
            -34 -18 -15 -35 -11 -28 3 2 -8 vhcurveto
            -5 -43 rlineto
            -3 17 31 -4 15 hhcurveto
            54 39 33 61 61 -39 30 -54 -16 -28 -4 -4 -16 hvcurveto
            6 -41 rlineto
            2 10 22 3 11 hhcurveto
            35 18 -13 -34 hvcurveto
            endchar
          </CharString>
          <CharString index="85">
            rmoveto
            156 -156 37 37 -142 141 rlineto
            14 vlineto
            148 145 -37 37 -162 -161 rlineto
            return
          </CharString>
          <CharString index="86">
            -9 33 callgsubr
            return
          </CharString>
          <CharString index="87">
            -61 callsubr
            115 42 167 41 vstem
            return
          </CharString>
          <CharString index="88">
            -107 2 -21 582 52 hstem
            334 615 rmoveto
            355 -56 hlineto
            -12 -116 -205 -245 -217 vvcurveto
            -59 hlineto
            225 206 255 13 102 vhcurveto
            -254 hlineto
            -14 -57 -49 4 rlineto
            return
          </CharString>
          <CharString index="89">
            vhcurveto
            353 return
          </CharString>
          <CharString index="90">
            57 hlineto
            33 113 rlineto
            116 -113 204 49 -150 190 125 49 -125 180 147 49 -248 hlineto
            47 -354 rmoveto
            -102 hlineto
            94 307 rlineto
            8 hlineto
            endchar
          </CharString>
          <CharString index="91">
            50 hstem
            222 54 vstem
            78 467 rmoveto
            144 -467 54 467 145 50 -343 hlineto
            return
          </CharString>
          <CharString index="92">
            hlineto
            -3 -42 -16 -33 -30 -44 27 -24 rcurveline
            53 57 24 59 57 vvcurveto
            return
          </CharString>
          <CharString index="93">
            52 310 52 198 49 hstem
            return
          </CharString>
          <CharString index="94">
            rmoveto
            -23 -49 183 -90 21 39 rlineto
            endchar
          </CharString>
          <CharString index="95">
            51 -145 584 -53 vlineto
            -194 -87 23 -53 165 76 rlineto
            -520 -171 -51 vlineto
            return
          </CharString>
          <CharString index="96">
            hstem
            -1 -199 23 callgsubr
            return
          </CharString>
          <CharString index="97">
            rlineto
            -2 -9 -37 -4 -12 hhcurveto
            return
          </CharString>
          <CharString index="98">
            -145 rmoveto
            -60 38 -42 60 -2 vhcurveto
            9 12 1 1 11 hvcurveto
            23 3 21 5 41 callsubr
            36 100 65 hvcurveto
            -30 return
          </CharString>
          <CharString index="99">
            rmoveto
            116 -375 -124 -50 293 50 -116 425 -169 hlineto
            95 141 rmoveto
            -27 20 -18 23 23 18 18 27 27 -18 15 -23 -23 -20 -15 -27 vhcurveto
            endchar
          </CharString>
          <CharString index="100">
            rmoveto
            -65 vlineto
            145 -126 -145 -123 rlineto
            -64 vlineto
            197 169 rlineto
            40 vlineto
            return
          </CharString>
          <CharString index="101">
            hhcurveto
            -108 -49 73 callgsubr
            -65 -50 65 -375 -69 -50 210 50 -88 375 return
          </CharString>
          <CharString index="102">
            -107 -19 51 584 -20 hstem
            493 59 vstem
            322 -19 rmoveto
            51 171 520 vlineto
            -165 -76 -23 53 194 87 rlineto
            53 -584 145 -51 hlineto
            return
          </CharString>
          <CharString index="103">
            51 6 -10 87 rlineto
            -185 -40 rmoveto
            -90 -45 81 114 116 54 75 96 33 59 -17 -12 25 hvcurveto
            -300 vlineto
            -30 -36 -51 -27 -45 hhcurveto
            endchar
          </CharString>
          <CharString index="104">
            rmoveto
            20 46 61 21 48 hhcurveto
            64 26 -48 -64 80 callgsubr
            100 -43 64 -100 -47 -61 -21 -21 -47 vhcurveto
            225 -53 -664 53 vlineto
            return
          </CharString>
          <CharString index="105">
            vstem
            108 467 rmoveto
            224 -289 hlineto
            -94 -48 -24 -165 -18 vhcurveto
            7 -52 rlineto
            191 20 70 34 134 vvcurveto
            339 -279 vlineto
            return
          </CharString>
          <CharString index="106">
            -10 52 376 50 125 -20 hstem
            160 53 vstem
            return
          </CharString>
          <CharString index="107">
            11 245 52 300 52 hstem
            return
          </CharString>
          <CharString index="108">
            -107 -29 52 549 52 hstem
            return
          </CharString>
          <CharString index="109">
            -47 callsubr
            299 37 vstem
            return
          </CharString>
          <CharString index="110">
            60 -2 vhcurveto
            27 -1 49 return
          </CharString>
          <CharString index="111">
            32 162 38 vstem
            return
          </CharString>
          <CharString index="112">
            54 55 282 55 return
          </CharString>
          <CharString index="113">
            119 15 27 63 21 40 -5 0 vhcurveto
            5 52 rlineto
            0 -42 5 -26 -96 -33 -46 -152 vhcurveto
            -65 -50 hlineto
            endchar
          </CharString>
          <CharString index="114">
            91 50 rlineto
            48 vlineto
            -91 50 rlineto
            return
          </CharString>
          <CharString index="115">
            -91 -50 rlineto
            -48 vlineto
            91 -50 rlineto
            return
          </CharString>
          <CharString index="116">
            21 -21 430 51 hstem
            35 53 137 53 136 53 vstem
            return
          </CharString>
          <CharString index="117">
            rmoveto
            -240 vlineto
            217 118 rlineto
            return
          </CharString>
          <CharString index="118">
            rmoveto
            240 vlineto
            -217 -118 rlineto
            return
          </CharString>
          <CharString index="119">
            -151 68 36 callgsubr
            return
          </CharString>
          <CharString index="120">
            38 187 36 vstem
            return
          </CharString>
          <CharString index="121">
            vlineto
            -69 34 -38 66 19 23 1 3 22 vhcurveto
            -5 52 rlineto
            -3 -19 -19 -1 -17 hhcurveto
            -36 -15 21 36 hvcurveto
            return
          </CharString>
          <CharString index="122">
            -99 -26 -47 -70 -16 -18 2 4 -18 vhcurveto
            -13 -51 rlineto
            -5 22 23 -2 22 hhcurveto
            98 49 66 132 hvcurveto
            return
          </CharString>
          <CharString index="123">
            -95 -50 95 13 callgsubr
            216 -425 53 475 -269 hlineto
            99 32 50 82 vhcurveto
            endchar
          </CharString>
          <CharString index="124">
            65 hlineto
            134 210 rmoveto
            59 14 -59 -102 hvcurveto
            -154 hlineto
            110 2 19 51 60 hhcurveto
            endchar
          </CharString>
          <CharString index="125">
            -29 callsubr
            250 38 vstem
            return
          </CharString>
          <CharString index="126">
            -266 -21 657 -20 return
          </CharString>
          <CharString index="127">
            rmoveto
            -53 -210 hlineto
            12 -28 -53 15 -38 hhcurveto
            -127 -78 -94 -149 -152 68 -95 120 return
          </CharString>
          <CharString index="128">
            38 3 callgsubr
            return
          </CharString>
          <CharString index="129">
            rmoveto
            206 209 -206 hlineto
            return
          </CharString>
          <CharString index="130">
            -178 -21 999 -20 hstem
            return
          </CharString>
          <CharString index="131">
            -107 -29 -14 callsubr
            298 44 callsubr
            698 186 rmoveto
            return
          </CharString>
          <CharString index="132">
            -107 -36 0 callsubr
            307 64 275 52 vstem
            307 419 rmoveto
            return
          </CharString>
          <CharString index="133">
            47 148 52 return
          </CharString>
          <CharString index="134">
            -37 -4 32 56 4 hvcurveto
            64 5 23 36 26 hhcurveto
            return
          </CharString>
          <CharString index="135">
            rmoveto
            217 118 rlineto
            -240 vlineto
            return
          </CharString>
          <CharString index="136">
            rmoveto
            -217 -118 rlineto
            240 vlineto
            return
          </CharString>
          <CharString index="137">
            hstemhm
            17 callgsubr
            return
          </CharString>
          <CharString index="138">
            -33 callsubr
            hstemhm
            return
          </CharString>
          <CharString index="139">
            rmoveto
            -38 15 -17 30 33 13 17 38 38 -13 21 -33 -30 -15 -21 -38 vhcurveto
            endchar
          </CharString>
          <CharString index="140">
            hlineto
            -75 -27 -23 -88 -30 vhcurveto
            14 -50 rlineto
            124 40 30 34 104 vvcurveto
            hintmask 11110000
            return
          </CharString>
          <CharString index="141">
            hstem
            17 callgsubr
            vstem
            return
          </CharString>
          <CharString index="142">
            21 -21 475 -20 return
          </CharString>
          <CharString index="143">
            -94 -66 -23 -177 -19 vhcurveto
            7 -52 rlineto
            204 21 87 33 134 vvcurveto
            return
          </CharString>
          <CharString index="144">
            -78 vvcurveto
            -77 47 -21 51 vhcurveto
            107 52 -102 hlineto
            -29 -15 16 37 hvcurveto
            82 6 return
          </CharString>
          <CharString index="145">
            rmoveto
            206 -209 -206 hlineto
            return
          </CharString>
          <CharString index="146">
            0 49 606 -20 hstem
            return
          </CharString>
          <CharString index="147">
            359 665 rmoveto
            -277 -665 rlineto
            56 hlineto
            277 665 rlineto
            return
          </CharString>
          <CharString index="148">
            4 callgsubr
            31 return
          </CharString>
          <CharString index="149">
            303 rmoveto
            92 102 -92 hlineto
            -405 vmoveto
            return
          </CharString>
          <CharString index="150">
            21 -21 425 50 return
          </CharString>
          <CharString index="151">
            58 284 58 vstem
            return
          </CharString>
          <CharString index="152">
            -107 -19 57 534 52 hstem
            615 59 vstem
            674 440 rmoveto
            return
          </CharString>
          <CharString index="153">
            -37 -52 -16 -19 -39 hvcurveto
            18 -48 rlineto
            16 33 40 15 37 hhcurveto
            return
          </CharString>
          <CharString index="154">
            48 -157 261 127 48 -127 250 154 48 return
          </CharString>
          <CharString index="155">
            79 hlineto
            128 66 47 122 119 -65 39 -129 hvcurveto
            return
          </CharString>
          <CharString index="156">
            hlineto
            -37 -16 9 29 hvcurveto
            102 -52 -107 vlineto
            -51 21 -37 77 vhcurveto
            return
          </CharString>
          <CharString index="157">
            -48 -64 hvcurveto
            -318 53 318 vlineto
            return
          </CharString>
          <CharString index="158">
            hstem
            78 55 235 54 vstem
            return
          </CharString>
          <CharString index="159">
            -200 80 840 80 hstem
            return
          </CharString>
          <CharString index="160">
            -131 -60 -89 -156 -85 17 -65 38 -42 hvcurveto
            -35 -61 return
          </CharString>
          <CharString index="161">
            rmoveto
            -60 38 -42 3 callsubr
            11 0 vvcurveto
            -6 return
          </CharString>
          <CharString index="162">
            0 45 207 229 hstem
            59 178 14 202 vstem
            return
          </CharString>
          <CharString index="163">
            vvcurveto
            77 -46 21 -51 vhcurveto
            -107 -52 100 hlineto
            29 17 -16 -36 return
          </CharString>
          <CharString index="164">
            -30 callgsubr
            hintmask 11110000
            return
          </CharString>
          <CharString index="165">
            22 19 15 27 30 -18 14 -23 -23 -18 -17 -27 vhcurveto
            return
          </CharString>
          <CharString index="166">
            49 247 49 hstem
            68 55 269 57 -40 58 vstem
            return
          </CharString>
          <CharString index="167">
            0 49 190 88 callsubr
            return
          </CharString>
          <CharString index="168">
            21 -21 266 50 289 50 return
          </CharString>
          <CharString index="169">
            -51 -62 23 15 -39 return
          </CharString>
          <CharString index="170">
            36 -21 38 vstem
            return
          </CharString>
          <CharString index="171">
            409 rmoveto
            -74 -109 -128 -70 -213 hhcurveto
            return
          </CharString>
          <CharString index="172">
            -9 53 569 52 hstemhm
            55 59 270 55 vstemhm
            return
          </CharString>
          <CharString index="173">
            -9 52 570 52 hstemhm
            54 60 260 59 vstemhm
            return
          </CharString>
          <CharString index="174">
            vlineto
            -217 66 -139 84 -122 vhcurveto
            endchar
          </CharString>
          <CharString index="175">
            hlineto
            -213 -128 70 74 -109 hvcurveto
            endchar
          </CharString>
          <CharString index="176">
            hlineto
            213 128 -70 -74 109 hvcurveto
            endchar
          </CharString>
          <CharString index="177">
            vlineto
            213 70 128 74 109 vhcurveto
            endchar
          </CharString>
          <CharString index="178">
            67 -21 374 -20 hstem
            return
          </CharString>
          <CharString index="179">
            -156 50 849 50 return
          </CharString>
          <CharString index="180">
            66 rmoveto
            74 109 128 70 213 hhcurveto
            return
          </CharString>
          <CharString index="181">
            hlineto
            -16 -134 rlineto
            50 hlineto
            16 134 rlineto
            return
          </CharString>
          <CharString index="182">
            -7 -21 290 90 113 29 165 -20 return
          </CharString>
          <CharString index="183">
            0 46 168 46 135 46 168 46 return
          </CharString>
          <CharString index="184">
            rmoveto
            42 -11 80 201 -64 17 rlineto
            endchar
          </CharString>
          <CharString index="185">
            110 121 -110 hlineto
            return
          </CharString>
          <CharString index="186">
            163 44 124 44 hstem
            return
          </CharString>
          <CharString index="187">
            21 -21 113 50 return
          </CharString>
          <CharString index="188">
            -96 -33 -59 17 12 -25 hvcurveto
            300 vlineto
            return
          </CharString>
          <CharString index="189">
            0 hvcurveto
            -13 44 rlineto
            0 -69 -45 -114 return
          </CharString>
          <CharString index="190">
            -33 callsubr
            hstem
            224 55 vstem
            return
          </CharString>
          <CharString index="191">
            -223 -21 566 34 387 -20 hstem
            return
          </CharString>
          <CharString index="192">
            rmoveto
            74 -109 70 -128 -213 vvcurveto
            return
          </CharString>
          <CharString index="193">
            -1 rlineto
            206 -48 -151 vlineto
            endchar
          </CharString>
          <CharString index="194">
            hlineto
            112 57 -24 -187 hvcurveto
            endchar
          </CharString>
          <CharString index="195">
            49 180 49 return
          </CharString>
        <CharString name=".notdef">
          endchar
        </CharString>
        <CharString name="A">
          -20 callgsubr
          hstem
          17 hmoveto
          -94 callgsubr
        </CharString>
        <CharString name="AE">
          -20 callgsubr
          hstem
          16 hmoveto
          -19 callgsubr
          143 -151 222 42 callgsubr
          hlineto
          53 -454 rmoveto
          -129 hlineto
          118 407 rlineto
          11 hlineto
          endchar
        </CharString>
        <CharString name="AEacute">
          -20 callgsubr
          hstem
          481 hmoveto
          42 callgsubr
          vlineto
          -190 -655 rlineto
          -19 callgsubr
          143 -151 hlineto
          -85 -56 callgsubr
          -248 -681 rmoveto
          39 136 40 135 39 136 rrcurveto
          11 -407 hlineto
          endchar
        </CharString>
        <CharString name="Aacute">
          72 callgsubr
          164 -56 callgsubr
          hintmask 11000000
          -351 -882 rmoveto
          -94 callgsubr
        </CharString>
        <CharString name="Abreve">
          72 callgsubr
          250 754 -99 callgsubr
          hintmask 11000000
          -233 -754 rmoveto
          -94 callgsubr
        </CharString>
        <CharString name="Acircumflex">
          -20 callgsubr
          hstem
          107 -76 callgsubr
          -216 -882 rmoveto
          -94 callgsubr
        </CharString>
        <CharString name="Adieresis">
          72 callgsubr
          117 812 rmoveto
          -20 14 -17 22 22 14 17 20 20 -14 17 -22 -22 -14 -17 -20 vhcurveto
          193 hmoveto
          -20 15 -17 21 22 15 17 20 20 -15 17 -22 -21 -15 -17 -20 vhcurveto
          hintmask 11000000
          -293 -812 rmoveto
          -94 callgsubr
        </CharString>
        <CharString name="Agrave">
          72 callgsubr
          148 -30 callgsubr
          hintmask 11000000
          -335 -795 rmoveto
          -94 callgsubr
        </CharString>
        <CharString name="Amacron">
          72 callgsubr
          104 834 -33 callgsubr
          hintmask 11000000
          -380 -834 rmoveto
          -94 callgsubr
        </CharString>
        <CharString name="Aogonek">
          -20 callgsubr
          hstem
          298 -9 callsubr
          33 rlineto
          -106 -65 -47 -46 -67 vvcurveto
          -281 145 rmoveto
          -94 callgsubr
        </CharString>
        <CharString name="Aring">
          -20 callgsubr
          522 38 114 39 hstem
          145 42 124 43 vstem
          354 818 -69 callsubr
          -170 -818 rmoveto
          -94 callgsubr
        </CharString>
        <CharString name="Aringacute">
          0 654 -633 -21 151 50 522 38 -10 -21 145 39 hstemhm
          75 42 124 43 hintmask 01101111
          322 730 rmoveto
          41 -13 74 189 -59 15 rlineto
          -94 -103 rmoveto
          51 callgsubr
          hintmask 01110111
          -60 42 -35 62 63 42 35 60 vhcurveto
          -167 hmoveto
          37 23 20 39 39 23 -20 -37 -36 -23 -21 -39 -39 -23 21 36 vhcurveto
          hintmask 10001111
          -100 -818 rmoveto
          -94 callgsubr
        </CharString>
        <CharString name="Atilde">
          -20 callgsubr
          570 48 6 47 hstemhm
          hintmask 11100000
          76 callgsubr
          hintmask 11010000
          -42 -24 53 -62 hhcurveto
          -33 -32 -25 -29 -30 hvcurveto
          28 -34 rlineto
          17 18 27 24 21 hhcurveto
          hintmask 11100000
          47 22 -54 60 hhcurveto
          28 31 26 29 27 hvcurveto
          -387 -826 rmoveto
          -94 callgsubr
        </CharString>
        <CharString name="B">
          0 49 261 59 callsubr
          67 hmoveto
          145 hlineto
          154 90 36 149 92 -45 41 -84 19 hvcurveto
          78 24 33 47 77 vvcurveto
          124 -74 46 -143 vhcurveto
          -154 hlineto
          331 -470 rmoveto
          -109 -71 -27 -115 vhcurveto
          -90 258 110 hlineto
          92 74 -25 -97 hvcurveto
          -17 300 rmoveto
          -107 -1 -84 -22 -67 hhcurveto
          -107 250 99 hlineto
          72 89 -10 -111 -1 hvcurveto
          endchar
        </CharString>
        <CharString name="C">
          28 callgsubr
          55 334 -88 callsubr
        </CharString>
        <CharString name="C.calt">
          -9 52 571 51 hstem
          55 59 vstem
          426 68 rmoveto
          -12 -42 -55 -13 -47 hhcurveto
          -108 -60 78 213 190 47 90 121 41 59 -15 -15 36 hvcurveto
          16 50 rlineto
          16 -41 -63 15 -48 hhcurveto
          -160 -67 -107 -224 -252 78 -91 148 50 64 13 13 44 hvcurveto
          endchar
        </CharString>
        <CharString name="C.calt.sc">
          -7 51 412 49 hstem
          83 57 vstem
          403 65 rmoveto
          -10 -35 -52 -11 -39 hhcurveto
          -86 -51 52 158 140 40 62 97 39 43 -10 -12 30 hvcurveto
          16 47 rlineto
          13 -35 -53 11 -40 hhcurveto
          -135 -59 -84 -167 -189 64 -72 130 41 61 11 10 37 hvcurveto
          endchar
        </CharString>
        <CharString name="Cacute">
          65 callsubr
          164 -56 callgsubr
          hintmask 11110000
          -313 -548 -88 callsubr
        </CharString>
        <CharString name="Ccaron">
          28 callgsubr
          414 882 -77 callgsubr
          -233 -418 -88 callsubr
        </CharString>
        <CharString name="Ccedilla">
          62 callgsubr
          48 53 569 52 hstem
          55 59 193 51 26 55 vstem
          358 -148 -67 callgsubr
          -303 482 -88 callsubr
        </CharString>
        <CharString name="Ccircumflex">
          28 callgsubr
          122 -76 callgsubr
          -193 -548 -88 callsubr
        </CharString>
        <CharString name="Cdotaccent">
          65 callsubr
          243 812 -81 callgsubr
          hintmask 11110000
          -188 -478 -88 callsubr
        </CharString>
        <CharString name="D">
          -33 callsubr
          hstem
          60 55 284 59 vstem
          60 hmoveto
          -18 callgsubr
        </CharString>
        <CharString name="Dcaron">
          -33 callsubr
          hstem
          60 55 284 59 vstem
          374 882 -77 callgsubr
          -188 -752 rmoveto
          -18 callgsubr
        </CharString>
        <CharString name="Dcroat">
          0 356 0 299 hstemhm
          0 65 190 208 hintmask 10110000
          65 hmoveto
          132 40 callgsubr
          -134 -299 -65 -47 65 hlineto
          hintmask 10110000
          134 296 rmoveto
          146 59 -51 -227 -226 -62 -51 -145 hvcurveto
          -77 259 135 47 -135 249 hlineto
          endchar
        </CharString>
        <CharString name="Delta">
          0 50 604 -20 hstem
          481 hmoveto
          -179 654 rlineto
          -96 hlineto
          -190 -654 rlineto
          72 50 rmoveto
          159 558 rlineto
          13 hlineto
          149 -558 rlineto
          endchar
        </CharString>
        <CharString name="Delta.alt">
          0 44 561 50 hstem
          58 hmoveto
          388 hlineto
          3 41 -148 614 rlineto
          -100 hlineto
          -147 -611 rlineto
          188 561 rmoveto
          16 hlineto
          129 -554 rlineto
          -274 hlineto
          endchar
        </CharString>
        <CharString name="E">
          0 49 260 49 248 49 hstem
          82 55 vstem
          82 hmoveto
          -74 callsubr
        </CharString>
        <CharString name="Eacute">
          -25 callsubr
          148 -56 callgsubr
          hintmask 11110000
          -270 -882 rmoveto
          -74 callsubr
        </CharString>
        <CharString name="Ebreve">
          -25 callsubr
          250 754 -99 callgsubr
          hintmask 11110000
          -168 -754 rmoveto
          -74 callsubr
        </CharString>
        <CharString name="Ecaron">
          0 49 260 49 248 49 hstem
          82 55 vstem
          399 882 -77 callgsubr
          -191 -752 rmoveto
          -74 callsubr
        </CharString>
        <CharString name="Ecircumflex">
          0 49 260 49 248 49 hstem
          82 55 -45 callgsubr
          -151 -882 rmoveto
          -74 callsubr
        </CharString>
        <CharString name="Edieresis">
          -25 callsubr
          117 812 rmoveto
          -20 14 -17 22 22 14 17 20 20 -14 17 -22 -22 -14 -17 -20 vhcurveto
          193 hmoveto
          -20 15 -17 21 22 15 17 20 20 -15 17 -22 -21 -15 -17 -20 vhcurveto
          hintmask 11110000
          -228 -812 rmoveto
          -74 callsubr
        </CharString>
        <CharString name="Edotaccent">
          -25 callsubr
          213 812 -81 callgsubr
          hintmask 11110000
          -131 -812 rmoveto
          -74 callsubr
        </CharString>
        <CharString name="Egrave">
          -25 callsubr
          157 57 callsubr
          -279 -795 rmoveto
          -74 callsubr
        </CharString>
        <CharString name="Emacron">
          -25 callsubr
          104 834 -33 callgsubr
          hintmask 11110000
          -315 -834 rmoveto
          -74 callsubr
        </CharString>
        <CharString name="Eng">
          -186 52 145 -21 385 50 230 -20 hstem
          51 55 288 55 vstem
          449 655 rmoveto
          -55 -459 hlineto
          -289 459 rlineto
          -54 -655 55 557 hlineto
          288 -454 rlineto
          -113 vlineto
          -91 -43 -17 -124 -18 vhcurveto
          6 -52 rlineto
          146 20 70 24 134 vvcurveto
          endchar
        </CharString>
        <CharString name="Eogonek">
          0 49 -49 51 258 49 248 49 hstemhm
          82 55 hintmask 01111000
          243 -21 callgsubr
          hintmask 10111000
          -161 142 rmoveto
          -74 callsubr
        </CharString>
        <CharString name="Eth">
          0 359 0 296 hstemhm
          0 65 202 196 hintmask 10110000
          80 hmoveto
          112 40 callgsubr
          -114 -298 -54 -54 54 hlineto
          hintmask 10110000
          319 24 rmoveto
          -226 -62 -51 -145 vhcurveto
          -57 253 118 54 -118 248 59 hlineto
          146 59 -51 -227 hvcurveto
          endchar
        </CharString>
        <CharString name="Euro">
          -9 52 120 44 124 44 216 52 hstem
          59 64 255 64 vstem
          15 404 rmoveto
          -44 45 vlineto
          -1 -14 0 -14 -14 vvcurveto
          -33 -44 -44 47 vlineto
          -186 17 80 -64 126 hhcurveto
          50 70 13 15 44 hvcurveto
          -13 51 rlineto
          -13 -42 -61 -14 -47 hhcurveto
          -91 -59 53 145 -15 hvcurveto
          243 44 -246 hlineto
          10 0 12 11 vvcurveto
          14 0 14 1 14 vhcurveto
          245 44 -242 hlineto
          129 13 50 58 101 hhcurveto
          51 52 -12 -12 39 hvcurveto
          15 51 rlineto
          13 -38 -62 12 -57 hhcurveto
          -138 -69 -75 -164 -16 hvcurveto
          endchar
        </CharString>
        <CharString name="F">
          21 -21 268 50 286 51 hstem
          86 55 vstem
          86 hmoveto
          55 268 246 50 -246 286 287 51 -342 hlineto
          endchar
        </CharString>
        <CharString name="G">
          8 callgsubr
          hstem
          38 59 292 55 vstem
          38 335 -84 callsubr
        </CharString>
        <CharString name="G.001">
          -9 51 572 51 hstem
          38 59 292 55 vstem
          38 335 rmoveto
          -253 78 -92 150 51 74 18 19 53 vhcurveto
          288 -55 -249 vlineto
          -12 -36 -47 -12 -40 hhcurveto
          -109 -60 79 214 189 47 89 128 51 64 -17 -14 41 hvcurveto
          14 51 rlineto
          18 -50 -67 14 -53 hhcurveto
          -167 -67 -107 -223 hvcurveto
          endchar
        </CharString>
        <CharString name="Gbreve">
          8 callgsubr
          hstemhm
          38 59 292 55 vstemhm
          260 754 -99 callgsubr
          hintmask 11111000
          -222 -419 -84 callsubr
        </CharString>
        <CharString name="Gcircumflex">
          8 callgsubr
          hstem
          38 59 292 55 vstem
          117 -76 callgsubr
          -205 -547 -84 callsubr
        </CharString>
        <CharString name="Gcommaaccent">
          8 callgsubr
          hstemhm
          38 59 292 55 vstemhm
          237 -150 -87 callsubr
          hintmask 11111000
          -199 407 -84 callsubr
        </CharString>
        <CharString name="Gdotaccent">
          8 callgsubr
          hstemhm
          38 59 292 55 vstemhm
          233 812 -81 callgsubr
          hintmask 11111000
          -195 -477 -84 callsubr
        </CharString>
        <CharString name="H">
          21 -21 300 51 304 -14 callgsubr
          54 hmoveto
          -5 callgsubr
        </CharString>
        <CharString name="Hbar">
          0 655 -634 -21 300 51 121 -20 82 -21 142 -20 hstemhm
          0 0 54 55 262 55 hintmask 0111111110000000
          513 vmoveto
          -41 500 41 vlineto
          hintmask 1000001110000000
          -446 -513 rmoveto
          -5 callgsubr
        </CharString>
        <CharString name="Hcircumflex">
          21 -21 300 51 304 -14 callgsubr
          104 -76 callgsubr
          -176 -882 rmoveto
          -5 callgsubr
        </CharString>
        <CharString name="I">
          83 callsubr
          111 hmoveto
          -74 callgsubr
        </CharString>
        <CharString name="I.001">
          -33 callsubr
          hstem
          218 55 vstem
          210 vmoveto
          506 55 -506 hlineto
          endchar
        </CharString>
        <CharString name="I.001.bi">
          -857 -48 callgsubr
          98 55 vstem
          153 655 rmoveto
          -55 -655 55 hlineto
          endchar
        </CharString>
        <CharString name="I.bi">
          -857 31 callsubr
          20 209 -131 55 hintmask 11010000
          153 605 rmoveto
          hintmask 11100000
          76 50 -209 -50 hlineto
          hintmask 11010000
          78 -555 hlineto
          hintmask 11100000
          -78 -50 209 50 hlineto
          hintmask 11010000
          -76 hlineto
          endchar
        </CharString>
        <CharString name="I.swsh">
          -33 callsubr
          hstem
          217 58 vstem
          275 605 rmoveto
          62 50 -242 -50 122 -555 -62 -50 229 50 -109 hlineto
          endchar
        </CharString>
        <CharString name="I_J">
          11 -21 201 46 372 46 hstemhm
          43 249 -146 53 215 55 hintmask 11101100
          146 237 rmoveto
          hintmask 11110100
          -103 -46 249 46 hlineto
          hintmask 11101100
          -93 372 hlineto
          hintmask 11110100
          93 46 -249 -46 hlineto
          hintmask 11101100
          103 hlineto
          268 46 rmoveto
          -477 vlineto
          36 callsubr
          477 vlineto
          endchar
        </CharString>
        <CharString name="Iacute">
          -10 callgsubr
          141 -56 callgsubr
          hintmask 11100000
          -234 -882 rmoveto
          -74 callgsubr
        </CharString>
        <CharString name="Ibreve">
          -10 callgsubr
          251 754 -99 callgsubr
          hintmask 11100000
          -140 -754 rmoveto
          -74 callgsubr
        </CharString>
        <CharString name="Icircumflex">
          0 50 555 50 hstem
          224 55 -45 callgsubr
          -122 -882 rmoveto
          -74 callgsubr
        </CharString>
        <CharString name="Idieresis">
          -10 callgsubr
          117 812 rmoveto
          -20 14 -17 22 22 14 17 20 20 -14 17 -22 -22 -14 -17 -20 vhcurveto
          193 hmoveto
          -20 15 -17 21 22 15 17 20 20 -15 17 -22 -21 -15 -17 -20 vhcurveto
          hintmask 11100000
          -199 -812 rmoveto
          -74 callgsubr
        </CharString>
        <CharString name="Idotaccent">
          -10 callgsubr
          213 812 -81 callgsubr
          hintmask 11100000
          -102 -812 rmoveto
          -74 callgsubr
        </CharString>
        <CharString name="Igrave">
          -10 callgsubr
          151 -30 callgsubr
          hintmask 11100000
          -244 -795 rmoveto
          -74 callgsubr
        </CharString>
        <CharString name="Imacron">
          -10 callgsubr
          104 834 -33 callgsubr
          hintmask 11100000
          -286 -834 rmoveto
          -74 callgsubr
        </CharString>
        <CharString name="Iogonek">
          83 callsubr
          207 -21 callgsubr
          -96 142 rmoveto
          -74 callgsubr
        </CharString>
        <CharString name="Itilde">
          -33 callsubr
          116 48 6 47 hstemhm
          224 55 hintmask 11101000
          76 callgsubr
          hintmask 11011000
          -42 -24 53 -62 hhcurveto
          -33 -32 -25 -29 -30 hvcurveto
          28 -34 rlineto
          17 18 27 24 21 hhcurveto
          hintmask 11101000
          47 22 -54 60 hhcurveto
          28 31 26 29 27 hvcurveto
          -293 -826 rmoveto
          -74 callgsubr
        </CharString>
        <CharString name="J">
          -11 52 564 50 hstem
          257 55 vstem
          312 605 -8 callgsubr
        </CharString>
        <CharString name="J.001">
          -11 52 564 50 hstem
          257 55 vstem
          472 64 callsubr
          -22 -55 22 70 callgsubr
        </CharString>
        <CharString name="J.001.bi">
          55 callgsubr
          605 rmoveto
          45 50 -211 1 callgsubr
        </CharString>
        <CharString name="J.002.bi">
          -857 -11 52 614 -20 hstem
          147 55 vstem
          202 655 rmoveto
          -55 -437 hlineto
          -156 -12 -21 -48 -17 -23 2 0 vhcurveto
          -4 -51 rlineto
          0 23 -3 22 100 14 43 183 vhcurveto
          endchar
        </CharString>
        <CharString name="J.bi">
          55 callgsubr
          655 rmoveto
          -166 1 callgsubr
        </CharString>
        <CharString name="J.bi.sc">
          -857 -8 45 418 43 hstem
          136 52 vstem
          188 455 rmoveto
          37 43 -177 -43 88 -283 hlineto
          -123 -9 -12 -52 -14 -26 4 0 vhcurveto
          -5 -44 rlineto
          0 27 -5 18 101 12 33 145 vhcurveto
          endchar
        </CharString>
        <CharString name="J.calt">
          585 50 hstem
          349 55 vstem
          95 585 rmoveto
          254 -407 hlineto
          36 callsubr
          457 -309 vlineto
          endchar
        </CharString>
        <CharString name="Jcircumflex">
          605 50 97 90 hstem
          90 166 vstem
          90 -76 callgsubr
          96 -277 -8 callgsubr
        </CharString>
        <CharString name="K">
          -48 callgsubr
          71 55 vstem
          390 655 -26 callgsubr
        </CharString>
        <CharString name="K.001">
          -48 callgsubr
          71 55 vstem
          500 66 callgsubr
          -22 -55 22 69 callsubr
        </CharString>
        <CharString name="K.calt">
          -48 callgsubr
          71 55 vstem
          71 hmoveto
          55 295 hlineto
          102 10 rlineto
          86 -130 82 -175 0 vvcurveto
          64 hlineto
          0 -101 202 -86 134 vhcurveto
          93 141 86 178 0 vvcurveto
          -61 hlineto
          0 -76 -162 -92 -137 vhcurveto
          -97 -10 rlineto
          309 -55 vlineto
          endchar
        </CharString>
        <CharString name="Kcommaaccent">
          -48 callgsubr
          71 55 vstem
          217 -150 -87 callsubr
          173 727 -26 callgsubr
        </CharString>
        <CharString name="L">
          0 51 604 -20 hstem
          91 55 vstem
          419 51 -13 callgsubr
        </CharString>
        <CharString name="L.001">
          0 51 604 -20 hstem
          91 55 vstem
          972 64 callsubr
          -522 -55 522 70 callgsubr
        </CharString>
        <CharString name="L_I">
          0 50 141 46 372 46 hstemhm
          66 54 115 229 -145 53 hintmask 11111000
          464 50 rmoveto
          -344 605 -54 -655 398 hlineto
          hintmask 11110100
          -92 609 rmoveto
          hintmask 11111000
          92 46 -229 -46 hlineto
          hintmask 11110100
          84 -372 hlineto
          hintmask 11111000
          -84 -46 229 46 hlineto
          hintmask 11110100
          -92 hlineto
          endchar
        </CharString>
        <CharString name="Lacute">
          0 51 604 -20 hstemhm
          91 55 vstemhm
          144 -56 callgsubr
          hintmask 11100000
          71 -831 -13 callgsubr
        </CharString>
        <CharString name="Lcaron">
          510 -20 109 24 hstem
          307 21 vstem
          315 20 callgsubr
          104 -631 -13 callgsubr
        </CharString>
        <CharString name="Lcommaaccent">
          0 51 604 -20 hstemhm
          91 55 vstemhm
          217 -150 -87 callsubr
          hintmask 11100000
          202 123 -13 callgsubr
        </CharString>
        <CharString name="Lslash">
          51 344 -72 -20 hstemhm
          10 0 hintmask 10100000
          308 344 rmoveto
          51 vlineto
          hintmask 01100000
          -298 -72 rlineto
          -51 vlineto
          hintmask 10100000
          409 -221 -13 callgsubr
        </CharString>
        <CharString name="M">
          -48 callgsubr
          48 55 293 55 vstem
          48 hmoveto
          54 509 4 hlineto
          105 -272 rlineto
          77 hlineto
          105 271 rlineto
          4 -508 54 655 -53 hlineto
          -141 -367 rlineto
          -15 hlineto
          -141 367 rlineto
          -53 hlineto
          endchar
        </CharString>
        <CharString name="M.001">
          -48 callgsubr
          41 55 293 55 vstem
          1000 66 callgsubr
          -522 -55 522 69 callsubr
        </CharString>
        <CharString name="M.tri">
          -357 -48 callgsubr
          63 55 513 55 vstem
          686 hmoveto
          655 -60 vlineto
          -242 -456 rlineto
          -11 hlineto
          -249 456 rlineto
          -61 -655 55 559 hlineto
          233 -427 rlineto
          56 hlineto
          224 427 rlineto
          -559 vlineto
          endchar
        </CharString>
        <CharString name="M.tri.sc">
          -357 21 -21 498 -20 hstem
          114 54 414 53 vstem
          635 hmoveto
          498 -62 vlineto
          -194 -346 rlineto
          -1 hlineto
          -200 346 rlineto
          -64 -498 54 423 hlineto
          180 -327 rlineto
          61 hlineto
          173 327 rlineto
          -423 vlineto
          endchar
        </CharString>
        <CharString name="N">
          -48 callgsubr
          51 55 288 55 vstem
          394 hmoveto
          -58 callsubr
        </CharString>
        <CharString name="N.001">
          -48 callgsubr
          43 55 299 55 vstem
          210 vmoveto
          402 47 callgsubr
          -395 hlineto
          endchar
        </CharString>
        <CharString name="Nacute">
          21 -21 655 -20 hstemhm
          51 55 288 55 vstemhm
          144 -56 callgsubr
          hintmask 11110000
          46 -882 rmoveto
          -58 callsubr
        </CharString>
        <CharString name="Ncaron">
          -48 callgsubr
          51 55 288 55 vstem
          399 882 -77 callgsubr
          121 -752 rmoveto
          -58 callsubr
        </CharString>
        <CharString name="Ncommaaccent">
          21 -21 655 -20 hstemhm
          51 55 288 55 vstemhm
          217 -150 -87 callsubr
          hintmask 11110000
          177 72 rmoveto
          -58 callsubr
        </CharString>
        <CharString name="Ntilde">
          21 -21 655 -20 136 48 6 47 hstemhm
          51 55 288 55 hintmask 11101100
          379 859 -78 callgsubr
          -10 -826 rmoveto
          -58 callsubr
        </CharString>
        <CharString name="O">
          -10 52 571 52 34 callsubr
          40 336 -101 callgsubr
        </CharString>
        <CharString name="O.001">
          -10 10 callgsubr
          210 vmoveto
          395 48 callgsubr
          -402 hlineto
          endchar
        </CharString>
        <CharString name="OE">
          -20 callgsubr
          hstem
          258 655 rmoveto
          -169 -51 -133 -186 -196 56 -140 164 hvcurveto
          223 47 callsubr
          hlineto
          -381 -319 rmoveto
          140 23 130 138 3 8 -1 0 vhcurveto
          -556 -11 vlineto
          -131 -30 135 152 hvcurveto
          endchar
        </CharString>
        <CharString name="OE.001">
          -10 58 261 48 250 58 hstem
          39 59 171 55 vstem
          39 336 rmoveto
          -244 70 -102 140 20 42 10 0 vhcurveto
          170 47 callsubr
          -172 hlineto
          0 -30 10 -27 -148 -62 -104 -225 vhcurveto
          59 hmoveto
          197 48 80 103 3 17 -1 0 vhcurveto
          -569 vlineto
          0 -14 -1 -6 -95 -56 73 221 vhcurveto
          endchar
        </CharString>
        <CharString name="Oacute">
          -24 callsubr
          59 callgsubr
          hintmask 11110000
          -319 -546 -101 callgsubr
        </CharString>
        <CharString name="Obreve">
          -24 callsubr
          251 754 -99 callgsubr
          hintmask 11110000
          -211 -418 -101 callgsubr
        </CharString>
        <CharString name="Ocircumflex">
          -10 52 571 52 hstem
          40 59 302 59 -45 callgsubr
          -193 -546 -101 callgsubr
        </CharString>
        <CharString name="Odieresis">
          -24 callsubr
          117 812 rmoveto
          -20 14 -17 22 22 14 17 20 20 -14 17 -22 -22 -14 -17 -20 vhcurveto
          193 hmoveto
          -20 15 -17 21 22 15 17 20 20 -15 17 -22 -21 -15 -17 -20 vhcurveto
          hintmask 11110000
          -270 -476 -101 callgsubr
        </CharString>
        <CharString name="Ograve">
          -24 callsubr
          160 57 callsubr
          -324 -459 -101 callgsubr
        </CharString>
        <CharString name="Ohungarumlaut">
          -24 callsubr
          105 741 -60 callgsubr
          hintmask 11110000
          -373 -528 -101 callgsubr
        </CharString>
        <CharString name="Omacron">
          -24 callsubr
          104 834 -33 callgsubr
          hintmask 11110000
          -357 -498 -101 callgsubr
        </CharString>
        <CharString name="Omega">
          55 callsubr
          147 45 rmoveto
          -93 5 rlineto
          -50 167 50 vlineto
          -103 35 -19 158 103 vvcurveto
          124 13 143 138 138 13 -143 -124 -103 -19 -159 -103 -34 vhcurveto
          -50 173 50 vlineto
          -99 -5 rlineto
          5 vlineto
          99 66 8 119 111 vvcurveto
          192 -42 127 -168 -169 -41 -127 -192 -125 12 -106 95 -65 vhcurveto
          endchar
        </CharString>
        <CharString name="Omega.001">
          55 callsubr
          33 hmoveto
          188 50 hlineto
          -63 26 -54 88 88 vvcurveto
          91 54 86 93 97 48 -85 -92 -88 -55 -88 -62 -26 vhcurveto
          -50 191 50 vlineto
          -128 -10 rlineto
          5 vlineto
          53 31 58 62 114 vvcurveto
          129 -73 100 -129 -129 -75 -100 -129 -114 58 -62 52 -31 vhcurveto
          -5 vlineto
          -124 10 rlineto
          endchar
        </CharString>
        <CharString name="Oslash">
          -23 -21 757 -20 hstem
          40 336 -7 callgsubr
          -41 callgsubr
        </CharString>
        <CharString name="Oslashacute">
          -16 681 -675 695 hstemhm
          40 393 hintmask 01100000
          59 callgsubr
          -319 -546 -7 callgsubr
          hintmask 10100000
          -41 callgsubr
        </CharString>
        <CharString name="Otilde">
          -10 52 571 52 106 48 6 47 30 callsubr
          hintmask 11101100
          379 859 -78 callgsubr
          -364 -490 -101 callgsubr
        </CharString>
        <CharString name="P">
          21 -21 240 50 315 50 79 callgsubr
          216 240 rmoveto
          154 81 58 154 154 -81 49 -154 hvcurveto
          -147 -655 55 240 hlineto
          92 365 rmoveto
          119 58 -34 -119 -120 -57 -42 -120 hvcurveto
          -92 315 hlineto
          endchar
        </CharString>
        <CharString name="P.001">
          21 -21 242 50 313 50 79 callgsubr
          210 vmoveto
          902 47 callgsubr
          -895 hlineto
          endchar
        </CharString>
        <CharString name="Q">
          -52 -21 63 10 callgsubr
          425 -73 rmoveto
          32 43 -59 88 rlineto
          46 61 16 98 119 vvcurveto
          192 -42 137 -168 -169 -41 -137 -192 -202 46 -144 164 45 37 11 19 28 vhcurveto
          -261 316 rmoveto
          54 callgsubr
          -88 -7 -89 -34 -57 vhcurveto
          -67 68 -25 -52 56 -55 rlineto
          -14 -19 -25 -8 -30 78 callgsubr
        </CharString>
        <CharString name="Q.001">
          -52 -21 63 10 callgsubr
          210 vmoveto
          895 48 callgsubr
          -902 hlineto
          endchar
        </CharString>
        <CharString name="Q.calt">
          -10 10 callgsubr
          40 336 rmoveto
          -202 46 -144 164 58 43 17 32 32 vhcurveto
          40 -49 40 36 -49 56 rlineto
          34 62 12 88 104 vvcurveto
          192 -42 137 -168 -169 -41 -137 -192 vhcurveto
          59 hmoveto
          54 callgsubr
          -75 -5 -76 -22 -55 vhcurveto
          -64 76 -38 -35 74 -88 rlineto
          -26 -22 -31 -16 -43 78 callgsubr
        </CharString>
        <CharString name="R">
          61 callsubr
          hstem
          61 55 270 58 vstem
          268 269 -79 callsubr
        </CharString>
        <CharString name="R.001">
          21 -21 268 50 287 50 hstem
          61 55 270 58 vstem
          265 vmoveto
          -55 vlineto
          500 86 callsubr
        </CharString>
        <CharString name="Racute">
          61 callsubr
          hstemhm
          61 55 270 58 vstemhm
          124 -56 callgsubr
          hintmask 11111000
          -60 -613 -79 callsubr
        </CharString>
        <CharString name="Rcaron">
          0 0 655 97 151 -21 hstem
          61 26 29 137 vstem
          379 882 -77 callgsubr
          15 -483 -79 callsubr
        </CharString>
        <CharString name="Rcommaaccent">
          61 callsubr
          hstemhm
          61 55 270 58 vstemhm
          217 -150 -87 callsubr
          hintmask 11111000
          51 341 -79 callsubr
        </CharString>
        <CharString name="S">
          65 callgsubr
          54 496 -97 callsubr
        </CharString>
        <CharString name="S.001">
          -9 51 572 51 hstem
          54 60 260 59 vstem
          452 211 rmoveto
          -151 48 206 vlineto
          -500 -1 rlineto
          -55 vlineto
          endchar
        </CharString>
        <CharString name="Sacute">
          66 callsubr
          158 762 -80 callsubr
          hintmask 11110000
          -285 -366 -97 callsubr
        </CharString>
        <CharString name="Scaron">
          65 callgsubr
          389 882 -77 callgsubr
          -209 -256 -97 callsubr
        </CharString>
        <CharString name="Scedilla">
          62 callgsubr
          48 52 callgsubr
          163 51 46 59 vstem
          328 -148 -67 callgsubr
          -274 644 -97 callsubr
        </CharString>
        <CharString name="Scircumflex">
          -9 52 570 52 hstem
          54 60 260 59 -45 callgsubr
          -179 -386 -97 callsubr
        </CharString>
        <CharString name="Scommaaccent">
          66 callsubr
          197 -150 -87 callsubr
          hintmask 11110000
          -143 568 -97 callsubr
        </CharString>
        <CharString name="T">
          21 -21 604 51 hstem
          221 55 vstem
          48 604 -11 callgsubr
        </CharString>
        <CharString name="T.001">
          21 -21 605 50 hstem
          221 55 vstem
          265 vmoveto
          -55 vlineto
          1000 86 callsubr
        </CharString>
        <CharString name="Tbar">
          21 -21 604 51 hstemhm
          221 55 vstemhm
          104 454 -33 callgsubr
          hintmask 11100000
          -349 150 -11 callgsubr
        </CharString>
        <CharString name="Tcaron">
          21 -21 604 51 hstem
          221 55 vstem
          399 882 -77 callgsubr
          -225 -148 -11 callgsubr
        </CharString>
        <CharString name="Tcommaaccent">
          21 -21 604 51 hstemhm
          216 68 -63 55 hintmask 11010000
          217 -150 -87 callsubr
          hintmask 11100000
          -169 676 -11 callgsubr
        </CharString>
        <CharString name="Thorn">
          21 -21 125 50 315 50 115 -20 hstem
          65 55 vstem
          120 125 rmoveto
          107 hlineto
          250 12 415 -260 hhcurveto
          -109 115 -55 -655 55 hlineto
          109 490 rmoveto
          177 -2 -315 -177 hhcurveto
          -107 315 hlineto
          endchar
        </CharString>
        <CharString name="Thorn.calt">
          -20 callgsubr
          299 155 79 callgsubr
          69 hmoveto
          55 151 92 hlineto
          154 81 53 154 154 -81 38 -154 hvcurveto
          -91 105 -56 hlineto
          324 -297 rmoveto
          -120 -57 -37 -120 vhcurveto
          -92 299 92 hlineto
          119 58 -23 -119 hvcurveto
          endchar
        </CharString>
        <CharString name="U">
          -9 52 612 -14 callgsubr
          54 189 -88 callgsubr
        </CharString>
        <CharString name="U.001">
          -9 48 616 -14 callgsubr
          952 211 rmoveto
          -151 48 206 vlineto
          -1000 -1 rlineto
          -55 vlineto
          endchar
        </CharString>
        <CharString name="Uacute">
          -24 callgsubr
          159 -56 callgsubr
          hintmask 11110000
          -309 -693 -88 callgsubr
        </CharString>
        <CharString name="Ubreve">
          -24 callgsubr
          250 754 -99 callgsubr
          hintmask 11110000
          -196 -565 -88 callgsubr
        </CharString>
        <CharString name="Ucircumflex">
          -9 52 612 -20 hstem
          54 55 282 55 -45 callgsubr
          -179 -693 -88 callgsubr
        </CharString>
        <CharString name="Udieresis">
          -24 callgsubr
          117 812 rmoveto
          -20 14 -17 22 22 14 17 20 20 -14 17 -22 -22 -14 -17 -20 vhcurveto
          193 hmoveto
          -20 15 -17 21 22 15 17 20 20 -15 17 -22 -21 -15 -17 -20 vhcurveto
          hintmask 11110000
          -256 -623 -88 callgsubr
        </CharString>
        <CharString name="Ugrave">
          -24 callgsubr
          149 57 callsubr
          -299 -606 -88 callgsubr
        </CharString>
        <CharString name="Uhungarumlaut">
          -24 callgsubr
          112 741 -60 callgsubr
          hintmask 11110000
          -366 -675 -88 callgsubr
        </CharString>
        <CharString name="Umacron">
          -24 callgsubr
          104 834 -33 callgsubr
          hintmask 11110000
          -343 -645 -88 callgsubr
        </CharString>
        <CharString name="Uogonek">
          -201 0 856 -20 hstem
          322 76 -7 0 vstem
          297 -11 rmoveto
          -56 -55 -17 -34 -43 vvcurveto
          -60 38 -42 3 callsubr
          11 -32 callsubr
          29 30 31 13 29 58 54 hvcurveto
          84 79 14 36 75 vvcurveto
          493 -54 -484 vlineto
          -42 -10 -38 -28 -24 vhcurveto
          -26 -30 -28 0 -45 hhcurveto
          -107 -34 70 86 hvcurveto
          458 -55 -465 vlineto
          -119 64 -82 132 vhcurveto
          endchar
        </CharString>
        <CharString name="Uring">
          44 callgsubr
          88 38 114 39 hstem
          54 55 36 42 124 43 37 55 vstem
          354 818 -69 callsubr
          -133 -629 -88 callgsubr
        </CharString>
        <CharString name="Utilde">
          44 callgsubr
          136 48 6 47 39 callgsubr
          hintmask 11101100
          379 859 -78 callgsubr
          -350 -637 -88 callgsubr
        </CharString>
        <CharString name="V">
          39 callsubr
          43 655 rmoveto
          161 -655 rlineto
          94 hlineto
          161 655 rlineto
          -58 hlineto
          -144 -606 rlineto
          -10 hlineto
          -145 606 rlineto
          endchar
        </CharString>
        <CharString name="V.001">
          39 callsubr
          360 vmoveto
          -84 122 139 -66 217 hhcurveto
          22 55 -22 68 callsubr
        </CharString>
        <CharString name="V.calt">
          0 50 605 -20 hstem
          201 hmoveto
          100 hlineto
          158 655 rlineto
          -56 hlineto
          -142 -605 rlineto
          -18 hlineto
          -142 605 rlineto
          -58 hlineto
          endchar
        </CharString>
        <CharString name="W">
          19 callsubr
          hstem
          75 hmoveto
          -75 callgsubr
        </CharString>
        <CharString name="W.001">
          19 callsubr
          hstem
          28 73 callsubr
          22 55 -22 67 callgsubr
        </CharString>
        <CharString name="W.titl">
          -48 callgsubr
          221 56 vstem
          437 655 rmoveto
          -64 -605 rlineto
          -12 hlineto
          -84 273 rlineto
          58 -56 -58 vlineto
          -83 -273 rlineto
          -13 hlineto
          -64 605 rlineto
          -58 hlineto
          71 -655 rlineto
          101 hlineto
          74 256 76 -256 rlineto
          99 hlineto
          71 655 rlineto
          endchar
        </CharString>
        <CharString name="W.titl.sc">
          21 -21 498 -20 hstem
          221 57 vstem
          406 498 rmoveto
          -50 -458 rlineto
          -9 hlineto
          -69 206 rlineto
          55 -57 -55 vlineto
          -67 -206 rlineto
          -10 hlineto
          -51 458 rlineto
          -57 hlineto
          60 -498 rlineto
          96 hlineto
          58 188 60 -188 rlineto
          95 hlineto
          59 498 rlineto
          endchar
        </CharString>
        <CharString name="W.tri">
          -357 -48 callgsubr
          683 655 rmoveto
          -124 -605 rlineto
          -6 hlineto
          -141 573 rlineto
          -76 hlineto
          -143 -573 rlineto
          -6 hlineto
          -124 605 rlineto
          -58 hlineto
          140 -655 rlineto
          91 hlineto
          135 566 rlineto
          6 hlineto
          132 -566 rlineto
          92 hlineto
          140 655 rlineto
          endchar
        </CharString>
        <CharString name="W.tri.sc">
          -357 21 -21 498 -20 hstem
          629 498 rmoveto
          -99 -448 rlineto
          -5 hlineto
          -113 423 rlineto
          -74 hlineto
          -114 -423 rlineto
          -5 hlineto
          -99 448 rlineto
          -58 hlineto
          117 -498 rlineto
          82 hlineto
          112 417 rlineto
          5 hlineto
          109 -417 rlineto
          83 hlineto
          118 498 rlineto
          endchar
        </CharString>
        <CharString name="Wacute">
          19 callsubr
          hstemhm
          59 callgsubr
          hintmask 11000000
          -284 -882 rmoveto
          -75 callgsubr
        </CharString>
        <CharString name="Wcircumflex">
          19 callsubr
          hstem
          107 -76 callgsubr
          -158 -882 rmoveto
          -75 callgsubr
        </CharString>
        <CharString name="Wdieresis">
          19 callsubr
          hstemhm
          117 812 rmoveto
          -20 14 -17 22 22 14 17 20 20 -14 17 -22 -22 -14 -17 -20 vhcurveto
          193 hmoveto
          -20 15 -17 21 22 15 17 20 20 -15 17 -22 -21 -15 -17 -20 vhcurveto
          hintmask 11000000
          -235 -812 rmoveto
          -75 callgsubr
        </CharString>
        <CharString name="Wgrave">
          19 callsubr
          hstemhm
          160 -30 callgsubr
          hintmask 11000000
          -289 -795 rmoveto
          -75 callgsubr
        </CharString>
        <CharString name="X">
          -48 callgsubr
          239 287 rmoveto
          2 hlineto
          137 -287 rlineto
          72 hlineto
          -170 336 154 319 rlineto
          -67 hlineto
          -121 -270 rlineto
          -2 hlineto
          -122 270 rlineto
          -70 hlineto
          153 -319 -161 -336 rlineto
          68 hlineto
          endchar
        </CharString>
        <CharString name="X.001">
          -48 callgsubr
          -500 360 rmoveto
          -84 122 139 -66 217 hhcurveto
          522 55 -522 68 callsubr
        </CharString>
        <CharString name="Y">
          -48 callgsubr
          222 54 vstem
          276 283 -53 callgsubr
        </CharString>
        <CharString name="Y.001">
          -48 callgsubr
          223 55 vstem
          -472 73 callsubr
          522 55 -522 67 callgsubr
        </CharString>
        <CharString name="Yacute">
          58 callgsubr
          158 762 -80 callsubr
          hintmask 11100000
          -63 -579 -53 callgsubr
        </CharString>
        <CharString name="Ycircumflex">
          676 -21 97 -20 hstem
          107 169 -45 callgsubr
          43 -599 -53 callgsubr
        </CharString>
        <CharString name="Ydieresis">
          -48 callgsubr
          223 55 vstem
          278 283 rmoveto
          191 372 rlineto
          -63 hlineto
          -154 -315 rlineto
          -1 0 0 -1 hhcurveto
          -152 315 rlineto
          -69 hlineto
          194 -372 rlineto
          -283 55 vlineto
          32 812 -81 callgsubr
          -193 hmoveto
          -20 14 -17 22 22 14 17 20 20 -14 17 -22 -22 -14 -17 -20 vhcurveto
          endchar
        </CharString>
        <CharString name="Ygrave">
          58 callgsubr
          160 -30 callgsubr
          hintmask 11100000
          -88 -512 -53 callgsubr
        </CharString>
        <CharString name="Z">
          -38 callgsubr
          endchar
        </CharString>
        <CharString name="Z.001">
          0 47 560 48 hstem
          500 265 rmoveto
          -395 49 callsubr
          402 hlineto
          endchar
        </CharString>
        <CharString name="Z.calt">
          -33 callsubr
          hstem
          70 605 rmoveto
          294 hlineto
          -294 -565 7 -40 rlineto
          369 50 -311 hlineto
          294 563 -6 42 rlineto
          -353 hlineto
          endchar
        </CharString>
        <CharString name="Zacute">
          -38 callgsubr
          88 107 -80 callsubr
          endchar
        </CharString>
        <CharString name="Zcaron">
          40 842 -130 130 hstemhm
          hintmask 01000000
          399 882 -77 callgsubr
          -203 -147 rmoveto
          294 hlineto
          hintmask 10000000
          -294 -565 rlineto
          -40 376 50 -311 vlineto
          295 565 rlineto
          40 -360 vlineto
          endchar
        </CharString>
        <CharString name="Zdotaccent">
          -38 callgsubr
          143 157 -81 callgsubr
          endchar
        </CharString>
        <CharString name="a">
          -59 callgsubr
          -106 callgsubr
          endchar
        </CharString>
        <CharString name="a.001">
          -59 callgsubr
          500 265 rmoveto
          -402 49 callgsubr
          395 hlineto
          endchar
        </CharString>
        <CharString name="a.sc">
          80 callsubr
          hstem
          -68 callgsubr
          endchar
        </CharString>
        <CharString name="aacute">
          -59 callgsubr
          -106 callgsubr
          -82 626 -80 callsubr
          endchar
        </CharString>
        <CharString name="aacute.sc">
          80 callsubr
          hstem
          -68 callgsubr
          -111 127 -80 callsubr
          endchar
        </CharString>
        <CharString name="abreve">
          -59 callgsubr
          -106 callgsubr
          33 588 -99 callgsubr
          endchar
        </CharString>
        <CharString name="abreve.sc">
          21 -21 103 50 hstem
          250 579 -99 callgsubr
          -198 -579 rmoveto
          -90 callgsubr
          endchar
        </CharString>
        <CharString name="acircumflex">
          -59 callgsubr
          -106 callgsubr
          56 759 -78 callsubr
        </CharString>
        <CharString name="acircumflex.sc">
          80 callsubr
          388 144 hstem
          110 291 -45 callsubr
          -148 115 -67 callsubr
        </CharString>
        <CharString name="acorn.left">
          75 callsubr
          hstem
          0 100 vstem
          233 -26 rmoveto
          25 -2 2 28 40 2 35 26 4 51 rlinecurve
          10 88 25 14 15 25 3 36 rlinecurve
          6 69 -44 35 -81 6 rrcurveto
          -7 hlineto
          -10 44 -7 31 -6 31 -3 28 rlinecurve
          55 27 40 52 11 62 rrcurveto
          6 6 1 7 hhcurveto
          42 31 -43 hlineto
          -112 -48 -51 -104 3 hvcurveto
          -7 -17 -19 -3 -20 hhcurveto
          -51 24 hlineto
          91 -100 -13 0 vhcurveto
          -130 -2 103 28 -1 hhcurveto
          -29 51 vlineto
          20 20 3 6 18 hvcurveto
          3 -26 5 -29 8 -31 8 -37 rcurveline
          -59 -5 -33 -28 -4 -57 -4 -37 13 -27 25 -18 rrcurveto
          -87 vlineto
          -4 -47 29 -36 39 -8 rrcurveto
          -60 226 rmoveto
          18 25 29 13 42 -3 42 -2 28 -15 15 -29 -31 -13 rcurveline
          -11 16 -18 8 -28 3 -26 2 -18 -8 -12 -13 rrcurveto
          108 411 rmoveto
          -11 -43 -26 -36 -37 -23 2 50 18 38 54 14 rrcurveto
          endchar
        </CharString>
        <CharString name="acorn.right">
          75 callsubr
          hstemhm
          161 168 -69 32 108 100 hintmask 11111010
          265 1 rmoveto
          38 8 29 36 -3 47 rrcurveto
          87 vlineto
          25 18 12 27 -3 37 -4 57 -34 28 -59 5 9 37 rcurveline
          7 31 6 29 2 26 rrcurveto
          -6 19 19 -3 21 hhcurveto
          51 29 -51 hlineto
          hintmask 11110110
          -20 -19 3 7 -18 hvcurveto
          104 3 -47 51 -112 hhcurveto
          -43 -31 42 hlineto
          6 7 -1 6 hhcurveto
          11 -62 40 -52 54 -27 -2 -28 -6 -31 -7 -31 -10 -44 rcurveline
          -7 hlineto
          -81 -6 -44 -35 6 -69 3 -36 15 -24 25 -15 rrcurveto
          hintmask 11111010
          10 -88 3 -51 36 -26 39 -2 rlinecurve
          3 -28 25 2 rlineto
          133 520 rmoveto
          -1 103 -28 130 -2 hvcurveto
          0 -100 13 -91 vvcurveto
          -105 -307 rmoveto
          -12 13 -18 8 -26 -2 -28 -3 -18 -8 -11 -16 -31 13 rcurveline
          15 29 28 15 42 2 42 3 29 -13 18 -25 rrcurveto
          -138 395 rmoveto
          hintmask 11110110
          53 -14 19 -38 1 -50 -36 23 -27 36 -10 43 rrcurveto
          endchar
        </CharString>
        <CharString name="adieresis">
          -59 callgsubr
          -106 callgsubr
          -100 656 rmoveto
          -20 14 -17 22 22 14 17 20 20 -14 17 -22 -22 -14 -17 -20 vhcurveto
          193 hmoveto
          -20 15 -17 21 22 15 17 20 20 -15 17 -22 -21 -15 -17 -20 vhcurveto
          endchar
        </CharString>
        <CharString name="adieresis.sc">
          80 callsubr
          425 78 hstem
          120 76 -45 callsubr
          -141 156 rmoveto
          -20 14 -17 22 22 14 17 20 20 -14 17 -22 -22 -14 -17 -20 vhcurveto
          193 hmoveto
          -20 15 -17 21 22 15 17 20 20 -15 17 -22 -21 -15 -17 -20 vhcurveto
          endchar
        </CharString>
        <CharString name="ae">
          -10 51 176 52 159 52 -5 -20 hstemhm
          19 56 146 53 154 57 hintmask 11011110
          135 -10 -4 callgsubr
          hintmask 11101110
          41 callgsubr
          46 callsubr
          32 callgsubr
          0 -24 -51 -57 -40 -25 31 62 54 30 30 51 vhcurveto
          17 callsubr
        </CharString>
        <CharString name="ae.sc">
          0 49 64 50 76 49 182 47 hstem
          258 54 vstem
          52 hmoveto
          -17 callsubr
        </CharString>
        <CharString name="aeacute">
          218 174 -123 -20 179 289 -277 35 hstemhm
          34 106 -65 73 -13 217 hintmask 10100100
          148 617 rmoveto
          21 -39 rlineto
          hintmask 10100010
          183 90 -23 49 rlineto
          hintmask 10100100
          hintmask 10010010
          -194 -727 -4 callgsubr
          41 callgsubr
          hintmask 10011000
          46 callsubr
          hintmask 01100010
          32 callgsubr
          hintmask 10101000
          0 -24 -51 -57 vhcurveto
          hintmask 10100100
          -40 -25 31 62 54 30 30 51 hvcurveto
          17 callsubr
        </CharString>
        <CharString name="aeacute.sc">
          21 -21 112 48 hstem
          157 597 -80 callsubr
          -286 -697 rmoveto
          -17 callsubr
        </CharString>
        <CharString name="agrave">
          -59 callgsubr
          -106 callgsubr
          -46 726 -13 callsubr
        </CharString>
        <CharString name="agrave.sc">
          80 callsubr
          395 139 hstem
          211 145 -45 callsubr
          -106 178 -31 callgsubr
        </CharString>
        <CharString name="amacron">
          -59 callgsubr
          -106 callgsubr
          -113 678 -33 callgsubr
          endchar
        </CharString>
        <CharString name="amacron.sc">
          21 -21 103 50 hstem
          104 639 -33 callgsubr
          -345 -639 rmoveto
          -90 callgsubr
          endchar
        </CharString>
        <CharString name="ampersand">
          -10 49 577 49 hstemhm
          5 57 50 56 167 56 hintmask 11101000
          5 197 rmoveto
          -134 82 -73 116 68 56 32 54 48 vhcurveto
          27 -41 48 -56 0 vvcurveto
          39 32 rlineto
          0 -50 61 -30 45 vhcurveto
          37 71 29 91 14 78 -49 8 rcurveline
          -14 -66 -22 -82 -28 -58 -133 207 rcurveline
          114 51 34 43 72 vvcurveto
          80 -54 53 -86 vhcurveto
          hintmask 11011000
          -81 -58 -55 -75 -48 18 -36 31 -50 hvcurveto
          hintmask 11101000
          -87 -34 -69 -63 -107 vvcurveto
          330 335 rmoveto
          -56 -31 -37 -85 -33 vhcurveto
          hintmask 11011000
          -35 50 -16 32 47 vvcurveto
          48 35 33 48 52 32 -29 -55 vhcurveto
          hintmask 11101000
          -273 -335 rmoveto
          84 52 52 70 29 vhcurveto
          162 -247 rlineto
          -45 -35 -56 -31 -50 hhcurveto
          -90 -53 59 99 hvcurveto
          endchar
        </CharString>
        <CharString name="ampersand.alt">
          -9 52 301 51 218 52 hstem
          17 55 22 53 231 53 vstem
          154 395 rmoveto
          -3 19 -4 28 18 vvcurveto
          90 20 63 95 26 55 -7 -6 28 vhcurveto
          7 52 rlineto
          6 -35 -46 7 -35 hhcurveto
          -126 -42 -80 -121 -24 6 -36 5 -28 hvcurveto
          -55 -29 -33 -47 -101 vvcurveto
          -134 65 -74 141 70 77 9 13 61 vhcurveto
          331 57 51 vlineto
          -110 -338 rmoveto
          -6 -35 -77 -8 -40 hhcurveto
          -106 -42 44 112 -6 hvcurveto
          80 25 65 80 vhcurveto
          201 hlineto
          endchar
        </CharString>
        <CharString name="ampersand.calt">
          -10 52 311 -21 281 52 hstemhm
          35 55 -2 54 195 53 hintmask 11110100
          35 195 rmoveto
          -134 65 -71 141 70 29 8 14 50 vhcurveto
          320 94 51 -303 vlineto
          hintmask 11101100
          -25 31 -14 39 34 vvcurveto
          91 37 35 89 28 47 -8 -7 28 vhcurveto
          9 52 rlineto
          0 -66 15 -46 -122 -58 -57 -117 -43 17 -49 29 -35 vhcurveto
          hintmask 11110100
          -55 -29 -44 -39 -101 vvcurveto
          55 hmoveto
          85 40 52 76 vhcurveto
          131 -278 hlineto
          -8 -28 -28 -4 -37 hhcurveto
          -106 -48 41 112 hvcurveto
          endchar
        </CharString>
        <CharString name="aogonek">
          -239 230 -136 142 -6 238 hstemhm
          234 132 -28 85 hintmask 10010000
          217 -9 rmoveto
          58 70 43 18 21 hvcurveto
          6 -38 rlineto
          -90 -57 -42 -40 -62 vvcurveto
          hintmask 10001000
          -60 38 -42 3 callsubr
          11 -44 callsubr
          hintmask 01001000
          -42 -16 28 30 44 31 33 100 65 hvcurveto
          -8 76 rlineto
          210 vlineto
          143 -34 55 -135 -49 -78 -19 -15 -41 vhcurveto
          15 -50 rlineto
          13 37 71 19 45 hhcurveto
          100 16 -42 -112 hvcurveto
          hintmask 10010000
          3 -29 -56 3 -43 hhcurveto
          -113 -61 -58 -84 -99 62 -49 95 hvcurveto
          1 52 rmoveto
          -68 -34 35 62 54 37 40 81 hvcurveto
          hintmask 00101000
          36 66 -3 -2 26 hvcurveto
          -119 vlineto
          -20 -20 -69 -47 -55 hhcurveto
          endchar
        </CharString>
        <CharString name="aogonek.sc">
          21 -21 103 50 hstem
          52 hmoveto
          57 hlineto
          33 113 rlineto
          216 hlineto
          30 -103 rlineto
          -81 -54 -30 -41 -60 vvcurveto
          -60 36 -40 3 callsubr
          9 4 callgsubr
          21 36 100 65 hvcurveto
          -149 517 rlineto
          -88 hlineto
          134 -354 rmoveto
          -189 hlineto
          94 307 rlineto
          8 hlineto
          endchar
        </CharString>
        <CharString name="approxequal">
          92 49 29 49 67 47 31 47 hstem
          439 394 -43 callsubr
          -35 -164 -43 callsubr
          endchar
        </CharString>
        <CharString name="aring">
          -9 52 191 26 callsubr
          52 38 114 39 hstemhm
          60 56 29 42 124 43 8 53 hintmask 1111110010000000
          -106 callgsubr
          hintmask 1111101100000000
          137 637 -69 callsubr
          endchar
        </CharString>
        <CharString name="aring.sc">
          80 callsubr
          386 38 114 39 hstem
          152 42 125 42 vstem
          52 hmoveto
          -46 callgsubr
        </CharString>
        <CharString name="aringacute">
          -8 291 -49 558 -345 401 -320 38 114 39 hstemhm
          93 82 -30 42 59 116 -51 43 hintmask 0100010100000000
          154 792 rmoveto
          21 -34 rlineto
          hintmask 1010010100000000
          183 90 -23 44 rlineto
          hintmask 0100010100000000
          -117 -849 rmoveto
          -68 -34 35 62 54 37 40 81 36 66 -3 -2 26 hvcurveto
          -119 vlineto
          -20 -20 -69 -47 -55 hhcurveto
          -1 -52 rmoveto
          58 66 43 18 21 hvcurveto
          hintmask 1010010100000000
          10 -60 51 5 -8 76 rlineto
          210 vlineto
          143 -34 55 -135 -49 -78 -19 -15 -41 vhcurveto
          15 -50 rlineto
          13 37 71 19 45 hhcurveto
          100 16 -42 -112 hvcurveto
          3 -29 -56 3 -43 hhcurveto
          -113 -61 -58 -84 -99 62 -49 95 hvcurveto
          hintmask 1001101010000000
          137 632 -69 callsubr
          endchar
        </CharString>
        <CharString name="aringacute.sc">
          21 -21 103 50 hstem
          161 782 rmoveto
          21 -34 183 90 -23 44 rlineto
          -290 -882 rmoveto
          -46 callgsubr
        </CharString>
        <CharString name="asciitilde">
          208 47 31 47 hstem
          439 316 -43 callsubr
          endchar
        </CharString>
        <CharString name="asterisk">
          505 45 hstem
          70 505 rmoveto
          147 hlineto
          -47 -139 45 -16 46 140 119 -88 28 39 -120 85 120 88 -27 36 -119 -87 -44 142 -45 -15 45 -140 rlineto
          -148 hlineto
          endchar
        </CharString>
        <CharString name="at">
          -109 52 84 51 260 51 84 52 hstem
          56 57 68 56 160 53 vstem
          55 214 rmoveto
          -226 93 -97 133 50 70 13 15 44 vhcurveto
          -13 48 rlineto
          -13 -42 -61 -14 -47 hhcurveto
          -91 -83 74 200 170 72 93 112 67 38 -19 0 hvcurveto
          -81 vlineto
          4 -15 -31 8 -40 hhcurveto
          -108 -21 -99 -74 -1 hvcurveto
          -101 -1 26 -88 105 hhcurveto
          83 57 27 0 hvcurveto
          433 vlineto
          0 -54 38 -105 -152 -85 -114 -197 vhcurveto
          180 2 rmoveto
          64 13 59 65 52 25 -10 -4 7 vhcurveto
          -238 vlineto
          0 -42 -11 -38 -72 -10 63 77 vhcurveto
          endchar
        </CharString>
        <CharString name="at.002">
          -89 52 109 39 188 34 122 52 hstem
          25 59 46 46 174 61 vstem
          277 507 rmoveto
          -154 -90 -98 -195 -8 hvcurveto
          -225 -9 120 -78 129 hhcurveto
          143 60 53 82 callsubr
          -92 -103 51 200 7 vhcurveto
          161 6 72 80 105 hhcurveto
          114 62 -44 0 hvcurveto
          20 47 rlineto
          0 -72 49 -114 vhcurveto
          89 -124 rmoveto
          -16 -262 rlineto
          -3 vlineto
          -4 -8 -11 -4 -2 callgsubr
          28 18 83 callgsubr
          28 17 7 9 10 16 callgsubr
          7 154 rlineto
          63 hlineto
          5 41 rlineto
          -66 hlineto
          3 50 rlineto
          -198 -272 rmoveto
          27 callsubr
          24 13 -15 -4 3 hvcurveto
          -13 -142 rlineto
          -12 -10 -17 -15 -17 hhcurveto
          endchar
        </CharString>
        <CharString name="at.003">
          -64 51 104 39 188 41 103 50 hstem
          18 56 84 46 174 58 vstem
          436 311 rmoveto
          61 hlineto
          5 41 rlineto
          -63 hlineto
          1 16 rlineto
          72 4 -61 72 -104 hhcurveto
          -125 -128 -90 -195 -8 hvcurveto
          -225 -9 130 -66 100 hhcurveto
          143 60 52 82 callsubr
          vhcurveto
          -75 1 -104 31 7 200 rrcurveto
          161 6 97 82 92 hhcurveto
          61 67 -35 -64 -5 hvcurveto
          -14 -223 rlineto
          -3 vlineto
          -5 -9 -10 -3 -2 callgsubr
          27 19 83 callgsubr
          27 17 8 8 11 16 callgsubr
          -169 161 rmoveto
          23 13 -15 -4 4 hvcurveto
          -13 -142 rlineto
          -12 -10 -16 -15 -18 hhcurveto
          27 callsubr
          endchar
        </CharString>
        <CharString name="at.004">
          -59 51 98 41 188 41 98 50 hstemhm
          25 57 76 46 -46 190 87 54 hintmask 11111011
          435 272 rmoveto
          -125 -6 -36 -13 -27 hhcurveto
          -27 -4 21 25 1 hvcurveto
          12 174 rlineto
          -30 hlineto
          -9 -25 rlineto
          12 -11 -22 19 -22 hhcurveto
          -50 -40 -53 -94 -6 hvcurveto
          -84 -5 29 -38 48 hhcurveto
          32 21 24 16 10 hvcurveto
          -25 9 20 -16 38 hhcurveto
          57 67 47 116 5 hvcurveto
          156 7 -40 99 -166 hhcurveto
          -140 -117 -88 -195 -8 hvcurveto
          -207 -8 97 -77 131 hhcurveto
          121 67 50 0 hvcurveto
          -12 49 rlineto
          0 -52 -48 -117 vhcurveto
          -114 -1 -62 61 6 176 rrcurveto
          161 5 96 69 97 hhcurveto
          110 52 -41 -145 -7 hvcurveto
          -177 47 rmoveto
          19 16 -15 -5 5 hvcurveto
          -10 -123 rlineto
          -1 -5 0 -5 -5 vvcurveto
          -12 -9 -17 -18 -20 hhcurveto
          hintmask 11111101
          27 callsubr
          endchar
        </CharString>
        <CharString name="atilde">
          -9 52 191 26 callsubr
          125 48 6 47 hstemhm
          60 56 246 53 hintmask 11110110
          -106 callgsubr
          150 703 rmoveto
          -16 -17 -27 -24 -17 hhcurveto
          hintmask 11101110
          -42 -24 53 -62 hhcurveto
          -33 -32 -25 -29 -30 hvcurveto
          28 -34 rlineto
          17 18 27 24 21 hhcurveto
          hintmask 11110110
          60 callgsubr
        </CharString>
        <CharString name="atilde.sc">
          80 callsubr
          431 48 -7 47 hstemhm
          hintmask 11010000
          -68 callgsubr
          -157 163 rmoveto
          27 -32 rlineto
          17 18 28 17 21 hhcurveto
          hintmask 11100000
          47 22 -41 60 hhcurveto
          28 31 18 29 27 hvcurveto
          -25 33 rlineto
          -16 -17 -27 -16 -17 hhcurveto
          hintmask 11010000
          -42 -24 40 -62 hhcurveto
          -33 -32 -20 -29 -30 hvcurveto
          endchar
        </CharString>
        <CharString name="b">
          -21 callsubr
          183 -20 hstem
          77 53 267 57 vstem
          77 hmoveto
          50 hlineto
          2 20 rlineto
          -13 28 54 -16 38 hhcurveto
          129 76 103 150 152 -68 85 -120 -51 -52 -29 -23 -33 hvcurveto
          235 -53 vlineto
          185 -235 rmoveto
          90 45 -71 -114 -116 -54 -85 81 callsubr
          30 36 51 27 45 hhcurveto
          endchar
        </CharString>
        <CharString name="b.001">
          -10 52 385 52 185 -20 hstem
          76 53 251 57 vstem
          129 664 rmoveto
          -53 -662 hlineto
          -8 51 59 -4 45 hhcurveto
          141 65 89 157 162 -48 81 -139 -34 -57 -25 -15 -30 hvcurveto
          116 -12 rmoveto
          106 29 -61 -130 -129 -48 -65 -102 -23 -55 4 3 -23 hvcurveto
          340 vlineto
          14 25 58 24 33 hhcurveto
          endchar
        </CharString>
        <CharString name="b.002">
          21 -21 43 -20 406 52 183 -20 hstem
          77 53 267 57 vstem
          500 265 rmoveto
          -895 49 callsubr
          902 hlineto
          endchar
        </CharString>
        <CharString name="b.sc">
          0 46 194 48 183 46 hstemhm
          96 54 211 55 -41 56 hintmask 11110100
          96 hmoveto
          132 hlineto
          130 73 31 117 71 -37 36 -69 14 hvcurveto
          hintmask 11111000
          63 17 28 37 59 vvcurveto
          102 -63 33 -118 vhcurveto
          -139 hlineto
          hintmask 11110100
          279 -369 rmoveto
          -74 -52 -28 -93 vhcurveto
          -80 194 93 hlineto
          71 61 -19 -73 hvcurveto
          hintmask 11111000
          -14 233 rmoveto
          -75 -1 -63 -18 -57 hhcurveto
          -90 183 86 hlineto
          58 68 -10 -80 -1 hvcurveto
          endchar
        </CharString>
        <CharString name="backslash">
          -20 -21 751 -20 hstem
          16 688 rmoveto
          414 -729 36 22 -413 729 rlineto
          endchar
        </CharString>
        <CharString name="bar">
          84 callsubr
          224 53 353 36 vstem
          277 743 rmoveto
          -53 -987 53 hlineto
          endchar
        </CharString>
        <CharString name="bar.black">
          61 callgsubr
          236 30 236 vstem
          -1 -199 rmoveto
          236 999 -236 hlineto
          266 -999 rmoveto
          236 999 -236 hlineto
          endchar
        </CharString>
        <CharString name="bar.white">
          -34 callsubr
          237 26 vstem
          -1 778 rmoveto
          238 -954 -238 57 callgsubr
          -238 954 238 22 -502 hlineto
          endchar
        </CharString>
        <CharString name="braceleft">
          72 callsubr
          hstem
          184 103 vstem
          104 300 rmoveto
          90 -47 rlineto
          -137 -10 -82 -91 vvcurveto
          -78 47 -21 51 vhcurveto
          108 50 -103 hlineto
          -31 -15 16 39 hvcurveto
          96 10 103 137 vvcurveto
          -90 37 rlineto
          8 vlineto
          90 36 rlineto
          150 -10 89 83 vvcurveto
          39 15 16 31 vhcurveto
          103 50 -108 hlineto
          -51 -47 -21 -78 hvcurveto
          -78 10 -68 -150 vvcurveto
          -90 -46 rlineto
          endchar
        </CharString>
        <CharString name="braceleft.center.2">
          -206 51 hstem
          31 60 275 60 vstem
          186 820 rmoveto
          -872 vlineto
          8 callsubr
          55 35 hlineto
          -87 37 rlineto
          4 vlineto
          87 37 rlineto
          907 vlineto
          endchar
        </CharString>
        <CharString name="braceleft.center.3">
          -9 51 388 53 hstem
          78 56 213 56 vstem
          186 820 rmoveto
          -420 vlineto
          8 callsubr
          -472 55 507 vlineto
          -87 37 rlineto
          4 vlineto
          87 37 rlineto
          455 vlineto
          endchar
        </CharString>
        <CharString name="braceleft.down">
          26 callgsubr
          186 820 rmoveto
          -565 -10 -270 37 callsubr
          282 542 vvcurveto
          endchar
        </CharString>
        <CharString name="braceleft.down.1">
          26 callgsubr
          222 1020 rmoveto
          -565 -10 -844 37 callsubr
          856 542 vvcurveto
          endchar
        </CharString>
        <CharString name="braceleft.down.2">
          19 callsubr
          hstem
          156 717 rmoveto
          4 vlineto
          87 37 rlineto
          35 -55 vlineto
          8 callsubr
          -2 -462 -7 -214 -71 vvcurveto
          -77 46 -21 51 vhcurveto
          107 52 -100 hlineto
          -29 -17 16 36 76 5 234 1 466 hvcurveto
          endchar
        </CharString>
        <CharString name="braceleft.down.3">
          -48 callgsubr
          223 55 vstem
          241 365 rmoveto
          455 -55 -420 vlineto
          8 callsubr
          -150 -9 -116 -78 vvcurveto
          -78 44 -21 51 vhcurveto
          109 52 -103 hlineto
          -25 -18 16 37 hvcurveto
          83 6 140 150 vvcurveto
          -87 37 rlineto
          4 vlineto
          endchar
        </CharString>
        <CharString name="braceleft.up">
          -21 callsubr
          -6 -20 hstem
          52 57 266 53 vstem
          241 -220 rmoveto
          -1 542 -5 285 82 56 callgsubr
          -78 8 -272 1 -565 hvcurveto
          endchar
        </CharString>
        <CharString name="braceleft.up.1">
          -21 callsubr
          -6 -20 hstem
          52 57 266 53 vstem
          277 -565 rmoveto
          542 -6 856 82 vvcurveto
          37 15 16 29 vhcurveto
          102 52 -107 hlineto
          -51 -47 -21 -77 hvcurveto
          -78 10 -844 -565 vvcurveto
          endchar
        </CharString>
        <CharString name="braceleft.up.2">
          19 callsubr
          hstem
          243 -87 rmoveto
          -1 466 -5 234 76 56 callgsubr
          -71 7 -214 2 -462 hvcurveto
          8 callsubr
          55 35 hlineto
          -87 37 rlineto
          4 vlineto
          87 37 rlineto
          endchar
        </CharString>
        <CharString name="braceleft.up.3">
          0 -20 41 -21 48 -20 179 82 0 -20 206 -20 hstem
          37 52 3 105 218 52 vstem
          154 324 rmoveto
          4 vlineto
          87 37 rlineto
          150 -6 90 83 vvcurveto
          37 18 16 25 vhcurveto
          103 52 -109 hlineto
          -51 -44 -21 -78 hvcurveto
          -78 9 -66 -150 vvcurveto
          8 callsubr
          -472 55 507 vlineto
          endchar
        </CharString>
        <CharString name="braceright">
          72 callsubr
          hstem
          197 103 vstem
          94 -156 rmoveto
          108 hlineto
          51 47 21 78 hvcurveto
          91 -10 82 137 vvcurveto
          90 47 rlineto
          51 vlineto
          -90 47 rlineto
          150 10 68 78 vvcurveto
          78 -47 21 -51 vhcurveto
          -108 -50 103 hlineto
          31 15 -16 -39 hvcurveto
          -83 -10 -89 -150 vvcurveto
          90 -37 rlineto
          -7 vlineto
          -90 -37 rlineto
          -137 10 -103 -96 vvcurveto
          -39 -15 -16 -31 vhcurveto
          -103 hlineto
          endchar
        </CharString>
        <CharString name="braceright.center.2">
          0 51 373 51 hstem
          259 820 rmoveto
          -907 vlineto
          87 -37 rlineto
          -4 vlineto
          -87 -37 rlineto
          -35 55 vlineto
          7 callsubr
          872 vlineto
          endchar
        </CharString>
        <CharString name="braceright.center.3">
          0 48 427 -20 hstem
          259 820 rmoveto
          -455 vlineto
          87 -37 rlineto
          -4 vlineto
          -87 -37 rlineto
          -507 55 472 vlineto
          7 callsubr
          420 vlineto
          endchar
        </CharString>
        <CharString name="braceright.down">
          -9 52 432 -20 hstem
          89 53 245 53 vstem
          259 820 rmoveto
          -542 6 -282 37 callgsubr
          270 565 vvcurveto
          endchar
        </CharString>
        <CharString name="braceright.down.1">
          -9 52 432 -20 hstem
          89 53 245 53 vstem
          222 1020 rmoveto
          -542 6 -856 37 callgsubr
          844 565 vvcurveto
          endchar
        </CharString>
        <CharString name="braceright.down.2">
          -48 callgsubr
          259 680 rmoveto
          1 -466 5 -234 -76 vvcurveto
          -36 -17 -16 -29 vhcurveto
          -100 -52 107 hlineto
          51 46 21 77 71 -7 214 -2 462 hvcurveto
          7 callsubr
          -55 -35 hlineto
          87 -37 rlineto
          -4 vlineto
          endchar
        </CharString>
        <CharString name="braceright.down.3">
          0 47 560 48 hstem
          346 328 rmoveto
          -4 vlineto
          -87 -37 rlineto
          -150 6 -140 -83 vvcurveto
          -37 -18 -16 -25 vhcurveto
          -103 -52 109 hlineto
          51 44 21 78 hvcurveto
          78 -9 116 150 vvcurveto
          7 callsubr
          420 -55 -455 vlineto
          endchar
        </CharString>
        <CharString name="braceright.up">
          -1 callsubr
          314 -220 rmoveto
          1 565 8 272 78 56 callsubr
          -82 -5 -285 -1 -542 hvcurveto
          endchar
        </CharString>
        <CharString name="braceright.up.1">
          -1 callsubr
          277 -565 rmoveto
          565 10 844 78 vvcurveto
          77 -47 21 -51 vhcurveto
          -107 -52 102 hlineto
          29 15 -16 -37 hvcurveto
          -82 -6 -856 -542 vvcurveto
          endchar
        </CharString>
        <CharString name="braceright.up.2">
          -48 callgsubr
          259 -87 rmoveto
          87 -37 rlineto
          -4 vlineto
          -87 -37 rlineto
          -35 55 vlineto
          7 callsubr
          2 462 7 214 71 56 callsubr
          -76 -5 -234 -1 -466 hvcurveto
          endchar
        </CharString>
        <CharString name="braceright.up.3">
          31 callgsubr
          259 287 rmoveto
          -507 55 472 vlineto
          7 callsubr
          150 9 66 78 vvcurveto
          78 -44 21 -51 vhcurveto
          -109 -52 103 hlineto
          25 18 -16 -37 hvcurveto
          -83 -6 -90 -150 vvcurveto
          87 -37 rlineto
          -4 vlineto
          endchar
        </CharString>
        <CharString name="bracket.center.1">
          84 callsubr
          223 53 354 36 vstem
          222 1020 rmoveto
          -1585 55 1585 vlineto
          endchar
        </CharString>
        <CharString name="bracketleft">
          72 callsubr
          hstem
          174 57 vstem
          174 -156 rmoveto
          206 50 -149 849 149 50 -206 hlineto
          endchar
        </CharString>
        <CharString name="bracketleft.center">
          21 -21 582 52 hstem
          241 820 rmoveto
          -55 -1040 55 hlineto
          endchar
        </CharString>
        <CharString name="bracketleft.down">
          21 -21 429 52 hstem
          76 53 245 53 vstem
          241 820 rmoveto
          -55 -1011 206 48 -151 hlineto
          endchar
        </CharString>
        <CharString name="bracketleft.down.1">
          21 -21 429 52 hstem
          76 53 245 53 vstem
          277 1020 rmoveto
          -55 -1585 206 48 -151 hlineto
          endchar
        </CharString>
        <CharString name="bracketleft.up">
          9 callsubr
          241 745 rmoveto
          151 48 -206 -1013 55 hlineto
          endchar
        </CharString>
        <CharString name="bracketleft.up.1">
          9 callsubr
          277 972 rmoveto
          151 48 -206 -1585 55 hlineto
          endchar
        </CharString>
        <CharString name="bracketright">
          72 callsubr
          hstemhm
          120 206 -57 57 hintmask 11100000
          120 -156 rmoveto
          206 949 -206 -50 hlineto
          hintmask 11010000
          149 -849 hlineto
          hintmask 11100000
          -149 hlineto
          endchar
        </CharString>
        <CharString name="bracketright.center">
          -6 80 hstem
          85 64 vstem
          314 820 rmoveto
          -55 -1040 55 hlineto
          endchar
        </CharString>
        <CharString name="bracketright.down">
          46 callgsubr
          259 -143 rmoveto
          -151 -48 206 1011 -55 hlineto
          endchar
        </CharString>
        <CharString name="bracketright.down.1">
          46 callgsubr
          222 -517 rmoveto
          -151 -48 206 1585 -55 hlineto
          endchar
        </CharString>
        <CharString name="bracketright.up">
          -21 callsubr
          hstem
          59 57 268 57 vstem
          259 -220 rmoveto
          55 1013 -206 -48 151 hlineto
          endchar
        </CharString>
        <CharString name="bracketright.up.1">
          -21 callsubr
          hstem
          59 57 268 57 vstem
          222 -565 rmoveto
          55 1585 -206 -48 151 hlineto
          endchar
        </CharString>
        <CharString name="brokenbar">
          -223 -21 439 -20 147 34 hstem
          223 53 354 36 vstem
          276 195 rmoveto
          -53 -439 53 hlineto
          986 vmoveto
          -53 -439 53 hlineto
          endchar
        </CharString>
        <CharString name="bullet">
          27 callgsubr
        </CharString>
        <CharString name="bullet.001">
          27 callgsubr
        </CharString>
        <CharString name="bullet.black">
          61 callgsubr
          222 58 222 vstem
          279 267 rmoveto
          -58 64 58 hlineto
          -280 -530 23 callgsubr
          endchar
        </CharString>
        <CharString name="bullet.white">
          -34 callsubr
          221 58 vstem
          279 331 rmoveto
          -58 -64 58 hlineto
          -280 511 -81 callsubr
          endchar
        </CharString>
        <CharString name="c">
          -25 callgsubr
          -86 callgsubr
          endchar
        </CharString>
        <CharString name="c.001">
          -25 callgsubr
          500 265 rmoveto
          -902 49 callgsubr
          895 hlineto
          endchar
        </CharString>
        <CharString name="c.calt">
          -21 callsubr
          hstem
          80 58 vstem
          408 459 rmoveto
          12 -35 -51 10 -41 81 callgsubr
          -86 -158 -151 69 36 callgsubr
          48 12 16 42 hvcurveto
          -16 50 rlineto
          -14 -39 -43 -12 -38 hhcurveto
          -98 -45 81 113 117 44 75 99 33 51 -11 -11 31 hvcurveto
          endchar
        </CharString>
        <CharString name="c.sc">
          -6 51 429 49 hstem
          83 57 217 54 vstem
          -89 callsubr
          endchar
        </CharString>
        <CharString name="c_k">
          -107 0 43 -31 -21 439 51 -6 -20 86 53 hstemhm
          78 57 221 54 200 53 hintmask 10011111
          773 253 rmoveto
          46 55 79 112 34 55 rrcurveto
          -60 hlineto
          -31 -48 -69 -100 -44 -57 -65 -10 rcurveline
          105 vlineto
          158 16 23 68 vhcurveto
          -1 49 rlineto
          -25 -20 -3 -5 -16 hvcurveto
          4 -23 -83 3 -18 hhcurveto
          -106 -75 -32 -90 -19 hvcurveto
          hintmask 01101111
          5 -29 -31 4 -22 81 callgsubr
          -86 -158 12 callsubr
          52 14 -36 callgsubr
          hintmask 10101111
          -14 -40 -47 -14 -38 hhcurveto
          -98 -45 81 113 117 44 76 99 23 28 -5 -6 27 hvcurveto
          -99 54 104 vlineto
          96 65 21 90 vhcurveto
          64 hlineto
          -16 -36 -3 -58 -82 vvcurveto
          -365 53 212 vlineto
          70 9 40 -56 73 -113 32 -52 rlinecurve
          63 hlineto
          -42 66 -83 126 -43 61 rrcurveto
          endchar
        </CharString>
        <CharString name="c_t">
          -107 -10 51 390 50 -4 53 -25 50 78 -20 hstemhm
          98 54 223 54 230 53 hintmask 11001111
          98 237 rmoveto
          -151 68 -96 133 45 51 14 16 42 vhcurveto
          -15 50 rlineto
          -14 -40 -46 -15 -38 hhcurveto
          -98 -48 83 113 123 47 71 99 23 27 -6 -6 27 hvcurveto
          -99 54 73 vlineto
          hintmask 10011111
          91 20 21 86 48 76 -27 0 vhcurveto
          -296 vlineto
          -114 27 -78 128 30 89 13 9 25 vhcurveto
          -12 50 rlineto
          -7 -21 -80 -14 -31 hhcurveto
          -79 -23 47 96 hvcurveto
          hintmask 10101111
          293 190 53 -190 103 vlineto
          -53 -10 rlineto
          -92 vlineto
          hintmask 10011111
          0 -65 24 -61 -95 -37 -26 -58 -18 vhcurveto
          hintmask 11001111
          7 -32 -27 3 -25 81 callgsubr
          -89 -155 hvcurveto
          endchar
        </CharString>
        <CharString name="cacute">
          -25 callgsubr
          -86 callgsubr
          -211 198 -80 callsubr
          endchar
        </CharString>
        <CharString name="cacute.sc">
          -7 51 412 49 hstem
          78 57 227 54 vstem
          -89 callsubr
          84 333 -80 callsubr
          endchar
        </CharString>
        <CharString name="ccaron">
          -25 callgsubr
          -86 callgsubr
          37 303 -77 callgsubr
          endchar
        </CharString>
        <CharString name="ccaron.sc">
          -7 51 412 49 hstem
          78 57 227 54 vstem
          -89 callsubr
          166 287 -64 callgsubr
        </CharString>
        <CharString name="ccedilla">
          62 callgsubr
          48 52 387 51 hstemhm
          81 57 174 51 -4 54 hintmask 11111010
          -86 callgsubr
          hintmask 11111100
          4 -567 -67 callgsubr
          endchar
        </CharString>
        <CharString name="ccedilla.sc">
          62 callgsubr
          51 51 429 49 hstemhm
          83 57 167 51 -1 54 hintmask 11111010
          -89 callsubr
          hintmask 11111100
          224 -412 -23 callsubr
        </CharString>
        <CharString name="ccircumflex">
          -25 callgsubr
          -86 callgsubr
          -86 331 -78 callsubr
        </CharString>
        <CharString name="ccircumflex.sc">
          -7 51 412 49 hstem
          78 57 227 54 vstem
          -89 callsubr
          49 321 rmoveto
          30 -34 115 106 117 -106 29 34 -120 110 rlineto
          -52 hlineto
          endchar
        </CharString>
        <CharString name="cdotaccent">
          -25 callgsubr
          -86 callgsubr
          -136 228 -81 callgsubr
          endchar
        </CharString>
        <CharString name="cdotaccent.sc">
          -7 51 412 49 hstem
          78 57 227 54 vstem
          -89 callsubr
          155 363 -81 callgsubr
          endchar
        </CharString>
        <CharString name="cent">
          -72 64 0 50 388 50 69 -20 hstemhm
          81 57 hintmask 10111000
          81 237 rmoveto
          -141 58 -92 116 -12 vhcurveto
          -64 53 vlineto
          hintmask 01111000
          64 vlineto
          38 4 41 11 34 13 -15 50 rcurveline
          -14 -40 -47 -14 -38 hhcurveto
          -98 -45 82 113 117 44 76 99 38 45 -9 -9 27 hvcurveto
          13 50 -27 8 -39 7 -32 3 rlinecurve
          69 -53 -70 vlineto
          -114 -12 -58 -84 -146 vvcurveto
          endchar
        </CharString>
        <CharString name="cent.calt">
          -73 -21 85 52 279 34 71 53 83 -20 hstem
          81 54 134 52 75 12 222 36 vstem
          321 563 rmoveto
          -52 hlineto
          -8 -83 rlineto
          -119 -8 -61 -86 -149 vvcurveto
          -123 44 -85 88 -28 vhcurveto
          -9 -95 rlineto
          52 hlineto
          8 86 rlineto
          -1 6 6 0 6 hhcurveto
          45 52 14 -36 callgsubr
          -16 -46 -49 -12 -42 hhcurveto
          38 384 28 -4 38 -8 23 -8 rlinecurve
          12 52 -26 8 -37 8 -33 4 rlinecurve
          -177 -242 rmoveto
          106 39 72 81 12 vhcurveto
          -36 -371 rlineto
          -56 28 -28 67 86 vvcurveto
          endchar
        </CharString>
        <CharString name="circle.black">
          -107 23 callsubr
          499 800 -92 callgsubr
        </CharString>
        <CharString name="circle.white">
          -107 -34 callsubr
          0 24 951 24 vstem
          500 800 rmoveto
          -106 callsubr
        </CharString>
        <CharString name="closed.black">
          23 callsubr
          -66 callgsubr
          endchar
        </CharString>
        <CharString name="closed.white">
          22 callgsubr
          25 452 25 vstem
          501 800 -87 callgsubr
        </CharString>
        <CharString name="clover.left">
          -357 493 -20 hstem
          693 264 rmoveto
          -51 -40 -92 150 -32 41 -56 9 rlinecurve
          -56 10 -60 -46 24 -75 -100 55 36 -16 -33 9 21 51 -9 50 -15 31 -28 -13 rcurveline
          7 -15 18 -44 -26 -53 -64 10 -66 -22 -44 -48 rrcurveto
          -1 -34 19 2 hvcurveto
          -18 -22 9 -10 13 -8 12 -6 rlinecurve
          74 -40 90 24 46 68 19 -5 20 -11 18 -10 45 -24 rcurveline
          -130 -63 68 -122 123 -17 99 -14 82 58 117 105 rrcurveto
          -619 65 rmoveto
          33 31 45 16 46 -3 -31 -37 -47 -16 -46 9 rrcurveto
          endchar
        </CharString>
        <CharString name="colon">
          -6 80 hstem
          85 64 vstem
          174 hmoveto
          78 callsubr
          169 vmoveto
          78 callsubr
          endchar
        </CharString>
        <CharString name="colon.bi">
          -857 0 102 201 102 hstem
          79 92 vstem
          79 42 callsubr
          92 102 -92 hlineto
          endchar
        </CharString>
        <CharString name="comma">
          -122 -21 hstem
          173 hmoveto
          40 -15 callsubr
          82 -95 vlineto
          endchar
        </CharString>
        <CharString name="comma.bi">
          -857 -122 -21 164 -21 112 -20 hstem
          72 95 vstem
          72 hmoveto
          40 -15 callsubr
          82 -95 vlineto
          endchar
        </CharString>
        <CharString name="copyright">
          -6 40 92 44 210 44 85 40 hstem
          10 45 77 51 262 45 vstem
          10 270 rmoveto
          -170 76 -106 165 144 95 89 187 191 -83 88 -156 -157 -84 -101 -178 vhcurveto
          45 hmoveto
          167 72 72 124 119 75 -63 -176 -179 -85 -57 -109 -123 -73 64 172 vhcurveto
          77 hmoveto
          -112 39 -32 86 41 34 14 0 vhcurveto
          -12 41 rlineto
          0 -31 -11 -30 -57 -19 18 82 88 17 21 52 1 vhcurveto
          13 27 -1 -10 28 hvcurveto
          12 41 rlineto
          9 -27 -28 5 -28 hhcurveto
          -87 -30 -45 -109 hvcurveto
          endchar
        </CharString>
        <CharString name="cornersleft.black">
          -9 48 616 -14 callgsubr
          413 -199 rmoveto
          87 999 -87 hlineto
          endchar
        </CharString>
        <CharString name="cornersleft.white">
          -9 48 616 -14 callgsubr
          437 778 rmoveto
          63 22 -87 -999 87 23 -63 hlineto
          endchar
        </CharString>
        <CharString name="cornersright.black">
          39 callsubr
          86 800 rmoveto
          -87 -999 87 hlineto
          endchar
        </CharString>
        <CharString name="cornersright.white">
          39 callsubr
          62 -176 rmoveto
          -63 -23 87 999 -87 -22 63 hlineto
          endchar
        </CharString>
        <CharString name="currency">
          124 -21 505 -20 hstem
          130 527 rmoveto
          -67 81 -40 -32 69 -82 -66 -76 0 -119 65 -77 rlinecurve
          -69 -85 41 -33 70 83 84 -52 69 2 76 50 rlinecurve
          70 -84 41 34 -69 85 65 77 0 118 -66 76 rlinecurve
          69 83 -40 32 -67 -82 -84 56 -78 -4 -73 -51 rlinecurve
          7 -278 rmoveto
          -58 57 3 102 55 57 64 66 97 -4 60 -62 55 -57 3 -102 -58 -57 -70 -63 -88 2 -63 61 rrcurveto
          endchar
        </CharString>
        <CharString name="d">
          -9 52 -31 53 callgsubr
          428 664 20 callsubr
          51 54 29 23 33 hvcurveto
          10 -53 -4 callsubr
        </CharString>
        <CharString name="d.001">
          12 53 callgsubr
          48 264 rmoveto
          151 -48 -206 vlineto
          500 1 rlineto
          55 vlineto
          endchar
        </CharString>
        <CharString name="d.sc">
          0 49 420 -27 callsubr
          endchar
        </CharString>
        <CharString name="dagger">
          -96 -21 617 48 210 88 callgsubr
          53 vstem
          46 500 rmoveto
          179 1 -1 -618 rlineto
          53 hlineto
          -1 618 179 -1 rlineto
          48 vlineto
          -179 -1 1 211 rlineto
          -53 hlineto
          1 -211 -179 1 rlineto
          endchar
        </CharString>
        <CharString name="daggerdbl">
          -96 -21 230 48 339 -20 68 0 210 88 callgsubr
          53 vstem
          46 113 rmoveto
          178 -230 53 230 178 48 -178 339 178 48 -178 210 -53 -210 -178 -48 178 -339 -178 hlineto
          endchar
        </CharString>
        <CharString name="dcaron">
          -4 458 -216 426 13 -20 28 -21 hstemhm
          318 40 85 47 hintmask 01001100
          358 664 rmoveto
          -51 hlineto
          hintmask 10101100
          -210 vlineto
          12 -25 -47 15 -35 hhcurveto
          hintmask 01001100
          -114 -70 -94 -149 -152 61 -95 108 46 49 29 23 29 hvcurveto
          9 -53 rlineto
          hintmask 10101100
          49 6 -9 87 rlineto
          hintmask 10011100
          -169 -40 rmoveto
          hintmask 01001100
          -81 -41 81 114 116 49 75 86 30 53 -17 -12 22 hvcurveto
          -300 vlineto
          -30 -32 -46 -27 -40 hhcurveto
          226 556 rmoveto
          32 hlineto
          -2 -34 -14 -25 -24 -35 21 -20 rcurveline
          43 47 18 46 45 vvcurveto
          59 -74 vlineto
          endchar
        </CharString>
        <CharString name="dcaron.sc">
          0 49 400 -27 callsubr
          -170 293 -64 callgsubr
        </CharString>
        <CharString name="dcroat">
          -4 591 -544 621 21 -21 hstemhm
          247 0 140 41 hintmask 10111000
          247 587 rmoveto
          -41 253 41 vlineto
          -72 77 20 callsubr
          hvcurveto
          hintmask 01011000
          51 54 29 23 33 hvcurveto
          10 -53 rlineto
          hintmask 01111000
          -4 callsubr
        </CharString>
        <CharString name="dcroat.sc">
          -42 callgsubr
        </CharString>
        <CharString name="degree">
          426 45 178 44 hstem
          111 53 171 53 vstem
          111 560 rmoveto
          -78 57 -56 80 85 55 55 79 78 -57 55 -81 -81 -58 -54 -79 vhcurveto
          224 -2 rmoveto
          -51 -37 -36 -48 -53 -33 36 54 54 31 34 52 56 32 -38 -53 vhcurveto
          endchar
        </CharString>
        <CharString name="divide">
          92 90 hstem
          206 82 vstem
          206 135 rmoveto
          -31 13 -12 28 28 13 12 31 30 -13 17 -28 -28 -13 -17 -30 vhcurveto
          288 vmoveto
          -30 13 -13 28 28 13 13 30 30 -13 17 -28 -28 -13 -17 -30 vhcurveto
          -171 -162 rmoveto
          430 46 -430 hlineto
          endchar
        </CharString>
        <CharString name="divide.calt">
          92 86 83 46 69 86 hstem
          206 82 vstem
          206 418 rmoveto
          -27 18 -15 23 58 callsubr
          -121 -157 rmoveto
          330 46 -330 hlineto
          121 -173 rmoveto
          -24 15 -18 26 58 callsubr
          endchar
        </CharString>
        <CharString name="dollar">
          -71 -21 84 50 280 34 236 50 83 -20 hstem
          55 60 93 50 116 59 197 36 vstem
          433 175 rmoveto
          105 -48 44 -134 32 vhcurveto
          -101 24 -35 30 72 vvcurveto
          74 51 36 86 51 71 -18 -13 36 vhcurveto
          14 50 -39 14 -67 15 -51 2 rlinecurve
          83 -51 -84 vlineto
          -85 -9 -76 -51 -100 vvcurveto
          -103 49 -42 128 -31 vhcurveto
          105 -25 37 -22 -83 vvcurveto
          -85 -62 -48 -87 -50 -67 17 12 -40 vhcurveto
          -13 -50 44 -13 55 -13 54 -3 rlinecurve
          -84 50 85 vlineto
          102 9 73 66 107 vvcurveto
          endchar
        </CharString>
        <CharString name="dotlessi">
          -75 callsubr
          endchar
        </CharString>
        <CharString name="down-leftdiagonalarrow">
          21 -21 269 50 286 50 hstem
          86 55 vstem
          86 448 rmoveto
          -51 -51 rlineto
          -350 350 vlineto
          51 50 rlineto
          -312 hlineto
          317 317 -39 39 -316 -317 rlineto
          endchar
        </CharString>
        <CharString name="down-rightdiagonalarrow">
          0 48 261 48 250 48 hstem
          82 55 vstem
          406 136 rmoveto
          -317 317 -39 -39 317 -317 rlineto
          -312 hlineto
          51 -50 rlineto
          350 350 hlineto
          -50 51 rlineto
          endchar
        </CharString>
        <CharString name="downarrow">
          -9 52 570 52 hstem
          -4 59 270 55 vstem
          498 238 rmoveto
          71 vlineto
          -221 -220 rlineto
          396 -55 -396 vlineto
          -220 220 rlineto
          -71 vlineto
          248 -248 rlineto
          endchar
        </CharString>
        <CharString name="downarrow.circleleft.bl">
          -69 callgsubr
          255 173 29 callgsubr
          124 410 -83 callsubr
          endchar
        </CharString>
        <CharString name="downarrow.circleleft.wt">
          -69 callgsubr
          377 390 11 callgsubr
          246 -349 -103 callgsubr
        </CharString>
        <CharString name="downarrow.circleright.bl">
          -69 callgsubr
          199 173 29 callgsubr
          -322 -589 -100 callgsubr
          endchar
        </CharString>
        <CharString name="downarrow.circleright.wt">
          -49 callsubr
          306 390 11 callgsubr
          -185 -372 -100 callgsubr
          -64 callsubr
          hvcurveto
          hintmask 01110110
          -55 callsubr
        </CharString>
        <CharString name="downarrow.closed.black">
          -37 callsubr
          219 -627 29 callgsubr
          endchar
        </CharString>
        <CharString name="downarrow.closed.white">
          -69 callgsubr
          370 390 11 callgsubr
          253 627 -87 callgsubr
        </CharString>
        <CharString name="downarrow.small.black">
          -37 callgsubr
          249 -627 29 callgsubr
          endchar
        </CharString>
        <CharString name="downarrow.small.white">
          -54 callsubr
          371 566 11 callgsubr
          endchar
        </CharString>
        <CharString name="downclosed.arrow">
          52 callsubr
          -250 80 840 80 vstem
          452 462 rmoveto
          -404 hlineto
          199 -379 rlineto
          endchar
        </CharString>
        <CharString name="downclosed.arrow.small">
          -69 callgsubr
          370 390 11 callgsubr
          endchar
        </CharString>
        <CharString name="e">
          -105 callsubr
          endchar
        </CharString>
        <CharString name="e.001">
          -9 52 218 -20 188 52 hstem
          67 57 252 57 vstem
          500 210 rmoveto
          55 vlineto
          -500 87 callgsubr
        </CharString>
        <CharString name="e.sc">
          60 callsubr
          hstem
          102 54 -70 callsubr
          endchar
        </CharString>
        <CharString name="eacute">
          -105 callsubr
          -114 187 -80 callsubr
          endchar
        </CharString>
        <CharString name="eacute.sc">
          60 callsubr
          hstem
          102 54 -70 callsubr
          45 80 -80 callsubr
          endchar
        </CharString>
        <CharString name="ebreve">
          -105 callsubr
          -7 149 -99 callgsubr
          endchar
        </CharString>
        <CharString name="ebreve.sc">
          0 88 callsubr
          171 49 hstem
          102 54 -70 callsubr
          148 62 -99 callgsubr
          endchar
        </CharString>
        <CharString name="ecaron">
          -105 callsubr
          139 292 -77 callgsubr
          endchar
        </CharString>
        <CharString name="ecaron.sc">
          0 88 callsubr
          171 49 hstem
          102 54 -70 callsubr
          117 34 -64 callgsubr
        </CharString>
        <CharString name="ecircumflex">
          -105 callsubr
          16 320 -78 callsubr
        </CharString>
        <CharString name="ecircumflex.sc">
          60 callsubr
          34 144 hstemhm
          102 54 vstemhm
          102 hmoveto
          296 49 -242 190 217 49 -217 180 hlineto
          hintmask 11111000
          239 49 -293 hlineto
          3 68 -67 callsubr
        </CharString>
        <CharString name="edieresis">
          -105 callsubr
          -140 217 rmoveto
          -20 14 -17 22 22 14 17 20 20 -14 17 -22 -22 -14 -17 -20 vhcurveto
          193 hmoveto
          -20 15 -17 21 22 15 17 20 20 -15 17 -22 -21 -15 -17 -20 vhcurveto
          endchar
        </CharString>
        <CharString name="edieresis.sc">
          60 callsubr
          71 78 hstem
          102 54 -42 76 -70 callsubr
          15 109 rmoveto
          -20 14 -17 22 22 14 17 20 20 -14 17 -22 -22 -14 -17 -20 vhcurveto
          193 hmoveto
          -20 15 -17 21 22 15 17 20 20 -15 17 -22 -21 -15 -17 -20 vhcurveto
          endchar
        </CharString>
        <CharString name="edotaccent">
          -105 callsubr
          -44 217 -81 callgsubr
          endchar
        </CharString>
        <CharString name="edotaccent.sc">
          0 88 callsubr
          171 49 hstem
          102 54 -70 callsubr
          106 110 -81 callgsubr
          endchar
        </CharString>
        <CharString name="egrave">
          -105 callsubr
          -86 287 -13 callsubr
        </CharString>
        <CharString name="egrave.sc">
          60 callsubr
          41 139 hstem
          102 54 -9 204 -70 callsubr
          50 131 -31 callgsubr
        </CharString>
        <CharString name="eight">
          -10 51 258 50 243 51 hstem
          50 58 -45 56 266 56 -44 58 vstem
          50 166 rmoveto
          -106 69 -70 133 133 70 70 106 84 -36 49 -72 27 vhcurveto
          67 28 27 51 67 vvcurveto
          98 -64 73 -125 -124 -65 -73 -98 -66 29 -50 64 -32 vhcurveto
          -66 -25 -40 -48 -85 vvcurveto
          58 hmoveto
          83 51 50 93 96 49 -50 -83 -77 -51 -48 -94 -94 -50 48 77 vhcurveto
          12 306 rmoveto
          71 39 49 93 93 39 -49 -71 -71 -37 -52 -95 -95 -37 56 67 vhcurveto
          endchar
        </CharString>
        <CharString name="eight.002">
          -10 52 257 50 242 52 hstem
          -33 58 -45 56 266 56 -44 58 vstem
          78 992 85 callsubr
          -1107 55 1107 68 callgsubr
        </CharString>
        <CharString name="eight.circle.black">
          -63 callsubr
          130 347 -92 callgsubr
        </CharString>
        <CharString name="eight.circle.white">
          -63 callgsubr
          131 347 rmoveto
          -106 callsubr
        </CharString>
        <CharString name="eight.closed.black">
          -52 callsubr
          111 38 -29 36 175 36 -29 21 callsubr
          221 -265 -97 callgsubr
          endchar
        </CharString>
        <CharString name="eight.closed.white">
          -52 callsubr
          111 -46 callsubr
          250 -105 callgsubr
          347 388 -87 callgsubr
        </CharString>
        <CharString name="eight.frameleft">
          -52 callsubr
          175 -46 callsubr
          314 -105 callgsubr
          283 -611 rmoveto
          23 vlineto
          -104 callsubr
          -28 callsubr
          vlineto
          endchar
        </CharString>
        <CharString name="eight.frameright">
          -52 callsubr
          47 -46 callsubr
          186 -105 callgsubr
          411 -611 rmoveto
          999 -502 -22 vlineto
          -93 callgsubr
          vlineto
          endchar
        </CharString>
        <CharString name="eight.halfcircleleft.bl">
          -52 callsubr
          167 -46 callsubr
          306 535 -97 callgsubr
          291 388 -83 callsubr
          endchar
        </CharString>
        <CharString name="eight.halfcircleleft.wt">
          -52 callsubr
          175 -46 callsubr
          314 -105 callgsubr
          283 -588 -103 callgsubr
        </CharString>
        <CharString name="eight.halfcircleright.bl">
          -52 callsubr
          55 -46 callsubr
          194 535 -97 callgsubr
          -99 -611 -100 callgsubr
          endchar
        </CharString>
        <CharString name="eight.halfcircleright.wt">
          35 callgsubr
          7 33 108 52 0 33 hstem
          47 38 -29 36 -32 56 151 36 -29 38 50 53 vstem
          186 -105 callgsubr
          -91 -611 -100 callgsubr
          -22 vlineto
          -91 callsubr
          endchar
        </CharString>
        <CharString name="eight.handle.black">
          -63 callsubr
          633 -629 rmoveto
          -350 hlineto
          203 64 146 -107 callsubr
          147 -187 202 24 callgsubr
          1001 hlineto
          endchar
        </CharString>
        <CharString name="eight.handle.white">
          -63 callgsubr
          -369 -652 -107 callgsubr
        </CharString>
        <CharString name="eight.handleleft.bl">
          -52 callsubr
          167 -46 callsubr
          306 535 -97 callgsubr
          -211 366 -93 callsubr
        </CharString>
        <CharString name="eight.handleleft.wt">
          -52 callsubr
          175 -46 callsubr
          314 -105 callgsubr
          -219 366 -102 callgsubr
        </CharString>
        <CharString name="eight.handleright.bl">
          -52 callsubr
          55 -46 callsubr
          194 535 -97 callgsubr
          403 -588 rmoveto
          -350 hlineto
          -98 callsubr
          22 -28 callsubr
          502 hlineto
          endchar
        </CharString>
        <CharString name="eight.handleright.wt">
          -52 callsubr
          47 -46 callsubr
          186 -105 callgsubr
          411 388 -102 callsubr
        </CharString>
        <CharString name="eight.onum">
          -10 51 289 51 239 49 hstemhm
          50 56 -33 55 248 55 -32 32 -32 56 hintmask 11110001
          50 181 rmoveto
          -109 67 -82 135 136 67 83 108 86 -29 66 -79 25 vhcurveto
          hintmask 11101010
          66 22 18 49 71 vvcurveto
          100 -58 69 -121 -118 -61 -71 -98 -69 23 -45 68 -29 vhcurveto
          hintmask 11110010
          -73 -23 -41 -61 -92 vvcurveto
          56 hmoveto
          92 53 57 93 92 55 -54 -95 -83 -57 -57 -90 -90 -56 57 83 vhcurveto
          hintmask 11101100
          22 319 rmoveto
          76 42 44 82 78 46 -40 -80 -71 -35 -48 -89 -86 -38 52 67 vhcurveto
          endchar
        </CharString>
        <CharString name="eight.small">
          -52 callsubr
          111 -46 callsubr
          250 -105 callgsubr
          endchar
        </CharString>
        <CharString name="eight.small.black">
          -52 callsubr
          111 -46 callsubr
          250 535 -97 callgsubr
          -155 -611 23 callgsubr
          endchar
        </CharString>
        <CharString name="eight.small.white">
          -52 callsubr
          111 -46 callsubr
          250 -105 callgsubr
          -155 366 -81 callsubr
          endchar
        </CharString>
        <CharString name="ellipsis">
          0 81 hstem
          52 69 84 69 85 69 vstem
          52 hmoveto
          69 81 -69 hlineto
          153 -81 rmoveto
          69 81 -69 hlineto
          154 -81 rmoveto
          69 81 -69 hlineto
          endchar
        </CharString>
        <CharString name="emacron">
          -105 callsubr
          -153 239 -33 callgsubr
          endchar
        </CharString>
        <CharString name="emacron.sc">
          0 88 callsubr
          171 49 hstem
          102 54 -70 callsubr
          -2 122 -33 callgsubr
          endchar
        </CharString>
        <CharString name="emdash">
          261 44 hstem
          261 vmoveto
          500 44 -500 hlineto
          endchar
        </CharString>
        <CharString name="endash">
          261 44 hstem
          70 261 rmoveto
          359 44 -359 hlineto
          endchar
        </CharString>
        <CharString name="eng">
          21 -21 429 52 hstem
          76 53 245 53 vstem
          427 317 rmoveto
          98 -46 66 -98 -44 -63 -24 -22 -47 vhcurveto
          -2 40 rlineto
          -51 -475 53 385 hlineto
          20 46 60 24 48 hhcurveto
          62 29 -50 -62 hvcurveto
          -327 vlineto
          -91 -44 -17 -124 -18 vhcurveto
          6 -52 rlineto
          146 20 69 24 134 vvcurveto
          endchar
        </CharString>
        <CharString name="eng.sc">
          21 -21 517 -20 51 callsubr
          368 -10 rmoveto
          -91 -43 -17 -114 -18 vhcurveto
          6 -52 rlineto
          136 20 69 24 134 vvcurveto
          527 -54 -354 vlineto
          -236 354 rlineto
          -54 -517 55 427 hlineto
          235 -352 rlineto
          endchar
        </CharString>
        <CharString name="eogonek">
          -236 94 0 0 153 226 hstemhm
          257 115 -70 102 hintmask 01110000
          257 481 rmoveto
          -129 -61 -94 -150 -151 68 -90 133 12 15 1 2 15 hvcurveto
          -59 -33 -47 -40 -68 vvcurveto
          hintmask 10101000
          -60 38 -42 3 callsubr
          11 0 vvcurveto
          hintmask 10110000
          -6 40 -10 callsubr
          -42 -19 30 30 hvcurveto
          hintmask 10101000
          66 59 26 92 61 vhcurveto
          -15 49 rlineto
          -12 -40 -43 -5 -38 hhcurveto
          -98 -40 76 92 -6 hvcurveto
          306 hlineto
          3 50 rlineto
          hintmask 10110000
          127 -55 93 -121 vhcurveto
          -51 vmoveto
          92 27 -77 -92 hvcurveto
          -252 hlineto
          97 4 32 72 97 hhcurveto
          endchar
        </CharString>
        <CharString name="eogonek.sc">
          0 88 callsubr
          171 49 hstem
          102 54 vstem
          102 hmoveto
          228 6 callgsubr
          -42 -16 28 30 44 21 35 100 66 hvcurveto
          49 -242 190 217 49 -217 180 239 49 -293 vlineto
          endchar
        </CharString>
        <CharString name="equal">
          79 callsubr
          25 207 rmoveto
          -44 449 44 vlineto
          -449 168 rmoveto
          -44 449 44 vlineto
          endchar
        </CharString>
        <CharString name="equal.calt">
          79 callsubr
          105 163 rmoveto
          299 44 -299 hlineto
          124 vmoveto
          299 44 -299 hlineto
          endchar
        </CharString>
        <CharString name="eth">
          -17 52 400 52 245 11 hstem
          63 58 275 58 vstem
          267 589 rmoveto
          44 -38 35 -45 19 -58 rrcurveto
          28 -41 -48 5 -26 hhcurveto
          -131 -60 -89 -156 -155 58 -90 133 133 63 85 194 -5 hvcurveto
          149 -35 111 -97 88 vhcurveto
          82 58 -25 36 -92 -65 -32 24 -36 23 -43 21 rlinecurve
          -23 -44 31 -17 31 -17 28 -20 rlinecurve
          -88 -62 25 -36 rlineto
          -51 -283 rmoveto
          122 37 71 97 102 36 -55 -141 -3 vhcurveto
          -121 -3 -35 -69 -97 hhcurveto
          -97 -37 72 121 hvcurveto
          endchar
        </CharString>
        <CharString name="eth.calt">
          -10 49 309 49 hstem
          84 58 233 58 vstem
          84 196 rmoveto
          -121 52 -85 120 124 53 79 130 154 -25 87 -65 81 vhcurveto
          56 20 -15 43 -73 -27 -28 29 -34 29 -39 32 rlinecurve
          -37 -37 33 -29 28 -23 22 -21 rlinecurve
          -94 -34 15 -42 114 41 42 -47 21 -43 21 -79 rlinecurve
          39 -26 -31 25 -63 hhcurveto
          -117 -54 -72 -129 hvcurveto
          58 hmoveto
          99 28 53 85 78 42 -66 -83 -102 -29 -58 -90 -85 -29 66 91 vhcurveto
          endchar
        </CharString>
        <CharString name="eth.sc">
          -42 callgsubr
        </CharString>
        <CharString name="exclam">
          -6 90 604 -20 hstem
          185 76 -71 66 vstem
          195 -6 rmoveto
          76 86 -76 hlineto
          14 108 rmoveto
          48 hlineto
          9 500 rlineto
          -66 hlineto
          endchar
        </CharString>
        <CharString name="exclam.bi">
          -857 -6 86 608 -20 hstem
          87 76 vstem
          158 688 rmoveto
          -66 hlineto
          9 -500 rlineto
          48 hlineto
          -62 -194 rmoveto
          76 86 -76 hlineto
          endchar
        </CharString>
        <CharString name="exclamdown">
          -192 -20 206 90 hstem
          185 76 -71 66 vstem
          260 502 rmoveto
          -76 -86 76 hlineto
          -14 -108 rmoveto
          -48 hlineto
          -9 -500 rlineto
          66 hlineto
          endchar
        </CharString>
        <CharString name="f">
          -23 callgsubr
          180 53 vstem
          180 425 rmoveto
          -375 -99 -50 335 50 -183 375 181 50 -181 vlineto
          99 26 47 70 28 36 -8 -8 28 vhcurveto
          12 51 rlineto
          10 -34 -37 7 -35 hhcurveto
          -98 -49 73 callgsubr
          -95 -50 hlineto
          endchar
        </CharString>
        <CharString name="f.001">
          -23 callgsubr
          180 53 vstem
          -452 264 rmoveto
          151 -48 -206 vlineto
          1000 1 rlineto
          55 vlineto
          endchar
        </CharString>
        <CharString name="f.001.bi">
          -857 -43 callgsubr
          146 52 hstemhm
          1 240 -171 53 hintmask 11101000
          70 425 rmoveto
          -375 vlineto
          hintmask 11110000
          -69 -50 240 50 hlineto
          hintmask 11101000
          -118 375 131 50 -131 hlineto
          6 callsubr
        </CharString>
        <CharString name="f.bi">
          -857 43 callsubr
          146 52 hstem
          70 53 vstem
          70 425 rmoveto
          13 callgsubr
          131 50 -131 vlineto
          6 callsubr
        </CharString>
        <CharString name="f.calt">
          -43 callgsubr
          147 51 hstem
          180 53 vstem
          69 hmoveto
          367 50 -203 375 201 50 -201 hlineto
          99 26 48 70 28 56 -14 -8 28 vhcurveto
          12 50 rlineto
          10 -34 -57 13 -35 hhcurveto
          -98 -49 73 callgsubr
          -107 -50 107 -375 -111 hlineto
          endchar
        </CharString>
        <CharString name="f.sc">
          21 -21 208 48 211 50 hstem
          103 54 vstem
          103 hmoveto
          54 208 205 48 -205 211 240 50 -294 hlineto
          endchar
        </CharString>
        <CharString name="f_f_b">
          -107 -23 callgsubr
          -13 53 vstem
          324 673 rmoveto
          -95 -73 73 callgsubr
          -105 -50 105 13 callgsubr
          170 13 callgsubr
          192 -425 50 hlineto
          2 20 rlineto
          -13 28 39 -11 28 hhcurveto
          119 61 100 150 152 -53 77 -110 hvcurveto
          -111 184 hlineto
          0 -81 14 -72 -31 -26 -8 -14 -22 vhcurveto
          10 -34 -50 12 -37 hhcurveto
          460 -248 rmoveto
          80 30 -65 -114 -116 -39 -82 -86 -23 -44 12 12 -25 hvcurveto
          353 vlineto
          -245 50 rmoveto
          99 22 50 72 47 51 -8 0 vhcurveto
          -141 vlineto
          -298 149 rmoveto
          22 34 -7 -6 25 hvcurveto
          -19 -33 -9 -45 -58 vvcurveto
          -170 hlineto
          99 45 50 72 vhcurveto
          endchar
        </CharString>
        <CharString name="f_f_i">
          -107 -23 callgsubr
          204 53 vstem
          656 624 rmoveto
          55 104 -20 0 hvcurveto
          10 49 rlineto
          0 -101 20 -70 -39 -32 -8 -15 -25 vhcurveto
          9 -35 -57 14 -46 hhcurveto
          -105 -85 73 callgsubr
          -115 -50 115 13 callgsubr
          206 13 callgsubr
          246 -425 53 475 -299 hlineto
          99 32 50 82 vhcurveto
          -234 hmoveto
          29 39 -9 -7 27 hvcurveto
          -19 -33 -9 -44 -56 vvcurveto
          -206 hlineto
          99 57 50 82 vhcurveto
          endchar
        </CharString>
        <CharString name="f_f_l">
          -107 -23 callgsubr
          -13 53 vstem
          707 -9 callgsubr
          -171 hlineto
          99 32 50 82 47 91 82 callgsubr
          -121 14 -72 -37 -30 -8 -16 -25 vhcurveto
          10 -37 -63 14 -48 hhcurveto
          -105 -83 73 callgsubr
          -105 -50 105 13 callgsubr
          210 13 callgsubr
          171 hlineto
          -224 50 rmoveto
          -210 hlineto
          99 55 50 82 31 45 -9 -6 29 vhcurveto
          -21 -32 -11 -45 -57 vvcurveto
          endchar
        </CharString>
        <CharString name="f_i">
          43 callsubr
          149 49 hstem
          101 53 216 53 vstem
          268 624 rmoveto
          55 74 -20 0 hvcurveto
          10 49 rlineto
          0 -71 20 -70 -105 -60 -66 -132 vhcurveto
          16 callsubr
        </CharString>
        <CharString name="f_l">
          9 callgsubr
          47 71 82 callgsubr
          -101 14 -72 -105 -60 -66 -132 vhcurveto
          -95 -50 95 13 callgsubr
          161 hlineto
          endchar
        </CharString>
        <CharString name="fi.001">
          -23 callgsubr
          180 53 vstem
          152 -9 callgsubr
          99 26 47 80 33 61 -11 -7 29 vhcurveto
          11 52 rlineto
          8 -34 -64 10 -38 -6 callsubr
          201 -425 119 50 -66 425 hlineto
          endchar
        </CharString>
        <CharString name="fi.002">
          43 callsubr
          149 49 hstem
          96 53 216 53 vstem
          263 624 rmoveto
          119 49 -121 hlineto
          -105 -60 73 callgsubr
          16 callsubr
        </CharString>
        <CharString name="five">
          -10 7 callgsubr
          81 60 247 58 vstem
          446 209 -65 callsubr
          endchar
        </CharString>
        <CharString name="five.circle.black">
          -49 callgsubr
          -197 610 -92 callgsubr
        </CharString>
        <CharString name="five.circle.white">
          -107 -29 52 311 52 174 55 hstem
          341 50 247 58 vstem
          696 190 -65 callsubr
          -196 610 rmoveto
          -106 callsubr
        </CharString>
        <CharString name="five.closed.black">
          -52 callgsubr
          130 32 162 21 callsubr
          363 -580 -90 callsubr
          endchar
        </CharString>
        <CharString name="five.closed.white">
          -52 callgsubr
          130 4 callsubr
          392 -101 callsubr
          109 580 -87 callgsubr
        </CharString>
        <CharString name="five.frameleft">
          -52 callgsubr
          194 4 callsubr
          456 -101 callsubr
          45 -419 rmoveto
          23 vlineto
          -104 callsubr
          -28 callsubr
          vlineto
          endchar
        </CharString>
        <CharString name="five.frameright">
          -52 callgsubr
          66 4 callsubr
          328 -101 callsubr
          173 -419 rmoveto
          999 -502 -22 vlineto
          -93 callgsubr
          vlineto
          endchar
        </CharString>
        <CharString name="five.halfcircleleft.bl">
          -52 callgsubr
          186 4 callsubr
          448 220 -90 callsubr
          53 580 -83 callsubr
          endchar
        </CharString>
        <CharString name="five.halfcircleleft.wt">
          -52 callgsubr
          194 4 callsubr
          456 -101 callsubr
          45 -396 -103 callgsubr
        </CharString>
        <CharString name="five.halfcircleright.bl">
          -52 callgsubr
          74 4 callsubr
          336 220 -90 callsubr
          -337 -419 -100 callgsubr
          endchar
        </CharString>
        <CharString name="five.halfcircleright.wt">
          35 callgsubr
          43 34 71 52 -9 36 hstemhm
          60 56 -50 32 162 38 64 53 hintmask 0101010110000000
          328 -101 callsubr
          -329 -419 -100 callgsubr
          -64 callsubr
          hvcurveto
          hintmask 1010101001000000
          -55 callsubr
        </CharString>
        <CharString name="five.handle.black">
          -49 callgsubr
          306 -366 rmoveto
          -350 hlineto
          203 64 146 -107 callsubr
          147 -187 202 24 callgsubr
          1001 hlineto
          endchar
        </CharString>
        <CharString name="five.handle.white">
          -107 -29 52 311 52 174 55 hstem
          341 50 247 58 vstem
          696 190 -65 callsubr
          -696 -389 -107 callgsubr
        </CharString>
        <CharString name="five.handleleft.bl">
          -52 callgsubr
          186 4 callsubr
          448 220 -90 callsubr
          -449 558 -93 callsubr
        </CharString>
        <CharString name="five.handleleft.wt">
          -52 callgsubr
          194 4 callsubr
          456 -101 callsubr
          -457 558 -102 callgsubr
        </CharString>
        <CharString name="five.handleright.bl">
          -52 callgsubr
          74 4 callsubr
          336 220 -90 callsubr
          165 -396 rmoveto
          -350 hlineto
          -98 callsubr
          22 -28 callsubr
          502 hlineto
          endchar
        </CharString>
        <CharString name="five.handleright.wt">
          -52 callgsubr
          66 4 callsubr
          328 -101 callsubr
          173 580 -102 callsubr
        </CharString>
        <CharString name="five.onum">
          -155 -21 655 51 hstem
          112 70 182 56 vstem
          106 -176 rmoveto
          245 53 69 74 113 vvcurveto
          110 -44 59 -205 18 vhcurveto
          11 228 rlineto
          251 51 -304 hlineto
          -17 -320 rlineto
          220 -20 32 -43 -83 vvcurveto
          -85 -64 -62 -204 -43 vhcurveto
          endchar
        </CharString>
        <CharString name="five.small">
          -52 callgsubr
          130 4 callsubr
          392 -101 callsubr
          endchar
        </CharString>
        <CharString name="five.small.black">
          -52 callgsubr
          130 4 callsubr
          392 220 -90 callsubr
          -393 -419 23 callgsubr
          endchar
        </CharString>
        <CharString name="five.small.white">
          -52 callgsubr
          130 4 callsubr
          392 -101 callsubr
          -393 558 -81 callsubr
          endchar
        </CharString>
        <CharString name="fl.001">
          -10 52 383 50 146 52 hstem
          99 53 201 53 vstem
          248 -9 callgsubr
          -96 hlineto
          99 26 47 80 31 39 -5 -8 25 vhcurveto
          -511 vlineto
          -69 34 -38 66 12 24 1 3 18 vhcurveto
          -5 51 rlineto
          -2 -18 -14 -1 -13 hhcurveto
          -36 -15 21 36 hvcurveto
          553 vlineto
          9 -34 -62 12 -54 -6 callsubr
          96 hlineto
          endchar
        </CharString>
        <CharString name="fl.002">
          -23 callgsubr
          180 53 vstem
          353 hmoveto
          119 50 -66 601 hlineto
          11 -35 -69 11 -46 -6 callsubr
          86 50 -86 hlineto
          99 26 47 80 25 46 -5 -6 24 vhcurveto
          endchar
        </CharString>
        <CharString name="fl.003">
          9 callgsubr
          vhcurveto
          118 -624 53 673 -173 hlineto
          -105 -60 73 callgsubr
          -95 -50 95 13 callgsubr
          161 hlineto
          endchar
        </CharString>
        <CharString name="florin">
          -23 callgsubr
          180 53 vstem
          133 6 rmoveto
          -97 -15 -27 -52 -63 hhcurveto
          -3 -49 rlineto
          93 49 62 136 19 hvcurveto
          52 399 rlineto
          166 hlineto
          8 50 rlineto
          -168 hlineto
          94 11 32 52 63 hhcurveto
          26 33 -8 -8 26 hvcurveto
          18 51 rlineto
          10 -31 -34 7 -34 hhcurveto
          -93 -55 -65 -133 -15 hvcurveto
          -89 hlineto
          -8 -50 rlineto
          90 hlineto
          -3 -51 -394 -2 vvcurveto
          endchar
        </CharString>
        <CharString name="florin.alt">
          -3 0 370 50 146 52 hstem
          210 53 vstem
          115 367 rmoveto
          95 -370 hlineto
          15 callsubr
          370 121 50 -121 14 callgsubr
          -95 hlineto
          endchar
        </CharString>
        <CharString name="flourish.left">
          0 30 351 36 157 38 hstemhm
          180 35 -12 208 -35 35 hintmask 11101000
          384 654 rmoveto
          -28 24 -39 -12 -16 -5 -16 5 -39 12 -29 -24 -18 -15 1 -26 4 -18 -17 5 -32 5 -17 -20 -23 -28 12 -39 5 -17 -5 -16 -12 -39 23 -28 15 -19 26 2 18 4 rrcurveto
          -5 -17 -5 -32 21 -17 28 -24 39 13 16 4 16 -4 39 -13 29 24 18 15 -3 26 -4 18 17 -5 33 -6 18 21 23 29 -12 39 -5 16 5 16 12 39 -23 29 rrcurveto
          -16 18 -26 -3 -18 -4 5 17 6 33 -21 17 rrcurveto
          -181 -542 rmoveto
          -1 218 -54 213 hvcurveto
          0 -217 34 -153 vvcurveto
          148 -122 rmoveto
          -92 -75 37 59 -52 hvcurveto
          -9 93 20 68 26 58 -28 11 rcurveline
          -19 -44 -13 -42 -6 -54 rrcurveto
          -3 -26 2 -14 -14 vvcurveto
          -7 11 -12 22 -5 12 rrcurveto
          0 -24 -11 -2 -1 vhcurveto
          -115 49 106 -80 144 hhcurveto
          61 30 hlineto
          -40 466 rmoveto
          -45 -33 -34 -46 vhcurveto
          hintmask 11110100
          -46 -32 34 46 45 34 32 45 45 33 -33 -45 hvcurveto
          -240 -116 rmoveto
          -34 90 -98 -63 0 vvcurveto
          -128 47 95 77 -1 hhcurveto
          160 286 rmoveto
          0 49 22 23 -25 vhcurveto
          17 -19 -14 -38 0 vvcurveto
          -1 vlineto
          19 -21 -28 12 -32 hhcurveto
          -28 -1 -24 -8 -20 -15 -3 12 -5 25 14 14 rrcurveto
          22 25 50 -22 0 vvcurveto
          140 -150 rmoveto
          0 22 -49 -25 -23 vhcurveto
          -18 -16 -33 11 -5 1 rrcurveto
          18 21 11 27 33 vvcurveto
          28 -9 24 -15 20 vhcurveto
          12 3 25 4 14 -12 rrcurveto
          25 -23 -22 -49 0 vvcurveto
          -150 -141 rmoveto
          0 -49 -21 -23 24 vhcurveto
          -16 18 11 35 1 3 rrcurveto
          -18 21 27 -11 33 hhcurveto
          28 25 8 15 19 hvcurveto
          4 -12 4 -24 -13 -14 rrcurveto
          -22 -24 -50 21 0 vvcurveto
          -140 150 rmoveto
          0 -22 50 24 23 vhcurveto
          19 17 38 -14 0 vvcurveto
          -20 -21 -11 -28 1 -32 rrcurveto
          hintmask 11101000
          -28 8 -25 15 -19 vhcurveto
          -12 -3 -24 -5 -14 13 rrcurveto
          -24 23 22 49 0 vvcurveto
          endchar
        </CharString>
        <CharString name="flourish.right">
          0 30 351 36 157 38 hstemhm
          89 39 -39 208 -12 35 hintmask 11101000
          116 654 rmoveto
          -21 -17 5 -33 5 -17 -89 20 18 -94 6 -21 -5 -16 -12 -39 23 -29 17 -21 33 6 17 5 -20 -89 96 18 20 5 16 -4 39 -13 28 24 20 17 -5 32 -4 17 rrcurveto
          86 -19 -14 92 -7 23 5 17 12 39 -23 28 -17 20 -33 -5 -17 -5 20 88 -95 -15 -21 -7 -16 5 -39 12 -28 -24 rrcurveto
          306 -447 rmoveto
          -5 -12 -12 -22 -7 -11 rrcurveto
          71 -14 63 -25 60 vhcurveto
          -9 -4 -10 -3 -9 -4 26 -58 20 -68 -9 -93 rrcurveto
          -59 -52 -75 -37 -92 -20 -21 0 -20 hhcurveto
          -45 30 15 31 144 106 80 115 49 vhcurveto
          -2 1 -24 11 0 vvcurveto
          -342 64 rmoveto
          -47 11 -35 17 -24 vhcurveto
          4 -6 4 -6 5 -5 15 -15 17 -9 18 -7 54 -20 59 12 11 3 rrcurveto
          1 1 0 0 hvcurveto
          13 0 14 13 vvcurveto
          57 -30 31 -39 17 vhcurveto
          0 0 0 0 vhcurveto
          -25 11 -29 5 -25 1 rrcurveto
          -38 2 -31 -5 0 vvcurveto
          hintmask 11110100
          48 225 rmoveto
          45 33 33 45 45 34 -32 -45 -46 -32 -34 -46 -46 -33 34 45 vhcurveto
          231 -140 rmoveto
          -1 95 -77 128 47 hvcurveto
          0 -98 63 -34 -90 vhcurveto
          -169 262 rmoveto
          4 11 99 13 -26 -78 -19 15 -24 8 -28 1 rrcurveto
          -33 -28 -12 -19 -21 hvcurveto
          0 1 1 0 vhcurveto
          0 -14 38 17 19 vhcurveto
          23 25 49 -22 0 vvcurveto
          -140 -150 rmoveto
          -8 1 -21 98 82 -22 rrcurveto
          -15 -20 -8 -24 -28 vvcurveto
          -33 10 -27 19 -21 vhcurveto
          -5 -1 -34 -11 -17 16 rrcurveto
          -25 23 22 49 0 vvcurveto
          150 -141 rmoveto
          -3 -7 -96 -22 21 82 rrcurveto
          -15 19 25 -8 29 hhcurveto
          32 28 11 18 20 hvcurveto
          1 -3 12 -35 -16 -18 rrcurveto
          -23 -24 -49 21 0 vvcurveto
          140 150 rmoveto
          6 -1 26 -97 -84 21 rrcurveto
          14 19 9 25 28 vvcurveto
          32 -11 28 -19 21 vhcurveto
          0 38 14 19 -17 vhcurveto
          24 -23 -22 -50 0 vvcurveto
          endchar
        </CharString>
        <CharString name="four">
          11 -21 137 52 455 -20 hstem
          324 55 vstem
          459 179 rmoveto
          -32 callgsubr
          endchar
        </CharString>
        <CharString name="four.circle.black">
          -31 callsubr
          -194 640 -92 callgsubr
        </CharString>
        <CharString name="four.circle.white">
          -107 -8 -21 137 52 455 -20 hstemhm
          548 55 -35 55 hintmask 11101000
          693 160 rmoveto
          hintmask 11110000
          -32 callgsubr
          -193 692 rmoveto
          -106 callsubr
        </CharString>
        <CharString name="four.closed.black">
          107 -21 90 33 299 -20 hstem
          299 37 3 callgsubr
          376 -638 -68 callsubr
          endchar
        </CharString>
        <CharString name="four.closed.white">
          -3 callgsubr
          -83 callgsubr
          96 638 -87 callgsubr
        </CharString>
        <CharString name="four.frameleft">
          -47 callsubr
          363 37 vstem
          469 -83 callgsubr
          32 -361 rmoveto
          23 vlineto
          -104 callsubr
          -28 callsubr
          vlineto
          endchar
        </CharString>
        <CharString name="four.frameright">
          -47 callsubr
          235 37 vstem
          341 -83 callgsubr
          160 -361 rmoveto
          999 -502 -22 vlineto
          -93 callgsubr
          vlineto
          endchar
        </CharString>
        <CharString name="four.halfcircleleft.bl">
          -47 callsubr
          355 37 vstem
          461 162 -68 callsubr
          40 601 -83 callsubr
          endchar
        </CharString>
        <CharString name="four.halfcircleleft.wt">
          -47 callsubr
          363 37 vstem
          469 -83 callgsubr
          32 -338 -103 callgsubr
        </CharString>
        <CharString name="four.halfcircleright.bl">
          -47 callsubr
          243 37 vstem
          349 162 -68 callsubr
          -350 -398 -100 callgsubr
          endchar
        </CharString>
        <CharString name="four.halfcircleright.wt">
          -9 52 64 -21 90 33 25 26 callsubr
          27 -20 hstemhm
          60 56 119 37 90 53 hintmask 0110010100000000
          341 -83 callgsubr
          -342 -361 -100 callgsubr
          -64 callsubr
          hvcurveto
          hintmask 1001101010000000
          -55 callsubr
        </CharString>
        <CharString name="four.handle.black">
          -31 callsubr
          309 -336 rmoveto
          -350 hlineto
          203 64 146 -107 callsubr
          147 -187 202 24 callgsubr
          1001 hlineto
          endchar
        </CharString>
        <CharString name="four.handle.white">
          -107 -8 -21 137 52 455 -20 hstemhm
          548 55 -35 55 hintmask 11101000
          693 160 rmoveto
          hintmask 11110000
          -32 callgsubr
          -693 -307 -107 callgsubr
        </CharString>
        <CharString name="four.handleleft.bl">
          -47 callsubr
          355 37 vstem
          461 162 -68 callsubr
          -462 579 -93 callsubr
        </CharString>
        <CharString name="four.handleleft.wt">
          -47 callsubr
          363 37 vstem
          469 -83 callgsubr
          -470 616 -102 callgsubr
        </CharString>
        <CharString name="four.handleright.bl">
          -47 callsubr
          243 37 vstem
          349 162 -68 callsubr
          152 -375 rmoveto
          -350 hlineto
          -98 callsubr
          22 -28 callsubr
          502 hlineto
          endchar
        </CharString>
        <CharString name="four.handleright.wt">
          -47 callsubr
          235 37 vstem
          341 -83 callgsubr
          160 638 -102 callsubr
        </CharString>
        <CharString name="four.onum">
          -86 -21 168 51 367 -20 71 -20 hstem
          337 55 vstem
          39 107 rmoveto
          6 -46 rlineto
          292 -168 55 168 86 51 -86 418 -110 hlineto
          -178 -418 rmoveto
          208 367 rlineto
          25 -367 hlineto
          endchar
        </CharString>
        <CharString name="four.small">
          -3 callgsubr
          -83 callgsubr
          endchar
        </CharString>
        <CharString name="four.small.black">
          -3 callgsubr
          162 -68 callsubr
          -406 -398 23 callgsubr
          endchar
        </CharString>
        <CharString name="four.small.white">
          -3 callgsubr
          -83 callgsubr
          -406 616 -81 callsubr
          endchar
        </CharString>
        <CharString name="fraction">
          21 -21 665 -20 hstem
          40 callsubr
          endchar
        </CharString>
        <CharString name="frameleft">
          22 callgsubr
          25 vstem
          501 -199 rmoveto
          23 vlineto
          -104 callsubr
          -28 callsubr
          vlineto
          endchar
        </CharString>
        <CharString name="frameright">
          -34 callsubr
          476 25 vstem
          501 -199 rmoveto
          999 -502 -22 vlineto
          -93 callgsubr
          vlineto
          endchar
        </CharString>
        <CharString name="g">
          -94 callsubr
          endchar
        </CharString>
        <CharString name="g.001">
          -220 51 319 49 232 50 5 -20 hstemhm
          43 55 -40 55 2 52 174 56 -4 55 hintmask 1110101010000000
          248 -220 rmoveto
          131 69 51 93 93 -51 27 -114 19 hvcurveto
          -98 16 -18 6 19 vvcurveto
          14 15 26 13 12 vhcurveto
          -4 10 13 -2 8 hhcurveto
          hintmask 1101101100000000
          108 63 51 109 47 -10 29 -25 22 hvcurveto
          103 25 -13 53 -118 -34 rlineto
          hintmask 1110011100000000
          17 -27 -30 12 -51 hhcurveto
          -95 -73 -59 -112 -72 37 -50 56 -25 hvcurveto
          -16 -15 -20 -34 -15 vvcurveto
          -19 8 -19 13 -10 vhcurveto
          hintmask 1110101010000000
          -59 -38 -34 -26 -65 vvcurveto
          -93 71 -49 134 vhcurveto
          16 235 rmoveto
          96 -13 33 -23 -55 vvcurveto
          -60 -54 -33 -89 -100 -52 29 70 45 19 25 57 34 vhcurveto
          25 -7 28 -7 37 -5 rrcurveto
          -38 184 rmoveto
          hintmask 1110011100000000
          -69 -44 37 74 79 42 42 71 74 41 -38 -83 -80 -45 -31 -70 hvcurveto
          endchar
        </CharString>
        <CharString name="g.002">
          -200 52 149 52 376 52 hstem
          52 57 266 53 vstem
          500 210 rmoveto
          55 vlineto
          -1000 87 callgsubr
        </CharString>
        <CharString name="g.calt">
          -200 52 148 50 381 50 hstem
          53 54 268 53 vstem
          53 238 rmoveto
          -152 66 -86 120 51 58 32 23 33 vhcurveto
          0 9 -61 -18 vvcurveto
          -89 -76 -35 -79 62 callsubr
          vhcurveto
          -18 -50 rlineto
          -17 43 77 -23 50 hhcurveto
          112 96 53 124 19 -15 119 0 hvcurveto
          360 -51 vlineto
          -2 -29 rlineto
          16 -30 -51 19 -38 hhcurveto
          -129 -74 -93 -150 hvcurveto
          54 hmoveto
          116 55 77 96 38 52 -24 -17 27 vhcurveto
          -280 vlineto
          -30 -36 -51 -30 -45 hhcurveto
          -90 -46 74 114 hvcurveto
          endchar
        </CharString>
        <CharString name="g.sc">
          -6 51 161 48 219 50 hstem
          70 57 236 54 vstem
          70 265 -82 callsubr
          endchar
        </CharString>
        <CharString name="gbreve">
          -94 callsubr
          7 526 -99 callgsubr
          endchar
        </CharString>
        <CharString name="gbreve.sc">
          -7 51 162 48 201 50 hstem
          71 56 236 54 vstem
          70 265 -82 callsubr
          200 314 -99 callgsubr
          endchar
        </CharString>
        <CharString name="gcircumflex">
          -94 callsubr
          30 697 -78 callsubr
        </CharString>
        <CharString name="gcircumflex.sc">
          -7 51 162 48 201 50 hstem
          71 56 236 54 vstem
          70 265 -82 callsubr
          45 320 rmoveto
          30 -34 115 106 117 -106 29 34 -120 110 rlineto
          -52 hlineto
          endchar
        </CharString>
        <CharString name="gcommaaccent">
          -110 854 -768 611 -349 237 hstemhm
          226 9 58 1 hintmask 10011000
          293 665 -48 callsubr
          hintmask 01011000
          -51 67 vlineto
          hintmask 00111000
          135 -112 rmoveto
          -51 hlineto
          -2 -29 rlineto
          16 -30 -51 19 -38 hhcurveto
          -129 -75 -93 -150 -152 67 -85 120 51 52 28 23 33 hvcurveto
          hintmask 01011000
          -25 3 -33 -18 vvcurveto
          -89 -64 -35 -79 vhcurveto
          hintmask 10011000
          62 callsubr
          hvcurveto
          -18 -50 rlineto
          -17 43 77 -23 50 hhcurveto
          112 84 53 124 hvcurveto
          20 -3 81 37 vvcurveto
          hintmask 00111000
          -185 -62 rmoveto
          -90 -44 71 114 116 53 75 96 38 52 -22 -17 27 hvcurveto
          -280 vlineto
          -30 -36 -51 -27 -45 hhcurveto
          endchar
        </CharString>
        <CharString name="gcommaaccent.sc">
          -7 51 162 48 201 50 hstem
          71 56 236 54 vstem
          303 665 -48 callsubr
          -51 67 vlineto
          -233 -322 -82 callsubr
          endchar
        </CharString>
        <CharString name="gdotaccent">
          -94 callsubr
          -15 594 -81 callgsubr
          endchar
        </CharString>
        <CharString name="gdotaccent.sc">
          -7 51 162 48 201 50 hstem
          71 56 236 54 vstem
          70 265 -82 callsubr
          158 362 -81 callgsubr
          endchar
        </CharString>
        <CharString name="germandbls">
          -9 51 -21 -21 615 50 hstemhm
          69 53 73 54 109 53 -2 54 hintmask 01111100
          69 hmoveto
          53 466 hlineto
          97 41 52 77 81 37 -39 -69 vhcurveto
          -32 vlineto
          -49 -6 rlineto
          -78 -10 -36 -41 -69 vvcurveto
          -65 29 -35 101 -31 vhcurveto
          hintmask 10111010
          69 -21 15 -18 -46 vvcurveto
          -62 -29 -29 -66 -38 -36 14 13 -36 vhcurveto
          -14 -52 rlineto
          -14 42 38 -12 47 hhcurveto
          97 49 50 94 75 -25 28 -92 30 hvcurveto
          -84 27 -13 20 36 vvcurveto
          39 14 20 46 10 vhcurveto
          hintmask 01111100
          41 9 61 6 0 vvcurveto
          84 vlineto
          71 -44 75 -127 -108 -63 -74 -122 vhcurveto
          endchar
        </CharString>
        <CharString name="greater">
          52 -21 512 -20 hstem
          390 292 rmoveto
          -345 -220 26 -41 379 245 rlineto
          32 vlineto
          -379 235 -27 -41 rlineto
          endchar
        </CharString>
        <CharString name="greaterequal">
          364 161 hstem
          398 345 rmoveto
          -364 -149 18 -41 411 170 rlineto
          39 vlineto
          -411 161 -18 -41 rlineto
          388 -450 rmoveto
          7 34 -51 5 rlineto
          -302 hlineto
          -7 -35 51 -4 rlineto
          endchar
        </CharString>
        <CharString name="greaterequal.calt">
          54 42 hstem
          87 54 rmoveto
          320 42 -320 hlineto
          11 56 rmoveto
          313 106 rlineto
          59 vlineto
          -314 109 -14 -42 281 -90 rlineto
          -11 vlineto
          -278 -90 rlineto
          endchar
        </CharString>
        <CharString name="guillemotleft">
          71 callgsubr
          70 248 -6 callgsubr
          -25 -169 -6 callgsubr
          endchar
        </CharString>
        <CharString name="guillemotleft.calt">
          71 callsubr
          70 202 -22 callsubr
          170 -57 -22 callsubr
          endchar
        </CharString>
        <CharString name="guillemotright">
          71 callgsubr
          242 417 -7 callsubr
          -369 169 -7 callsubr
          endchar
        </CharString>
        <CharString name="guillemotright.calt">
          71 callsubr
          68 83 -16 callgsubr
          28 -141 -16 callgsubr
          endchar
        </CharString>
        <CharString name="guilsinglleft">
          71 callgsubr
          142 248 -6 callgsubr
          endchar
        </CharString>
        <CharString name="guilsinglleft.calt">
          71 callsubr
          142 202 -22 callsubr
          endchar
        </CharString>
        <CharString name="guilsinglright">
          71 callgsubr
          142 417 -7 callsubr
          endchar
        </CharString>
        <CharString name="guilsinglright.calt">
          71 callsubr
          165 83 -16 callgsubr
          endchar
        </CharString>
        <CharString name="h">
          -30 callsubr
          endchar
        </CharString>
        <CharString name="h.001">
          21 -21 450 -21 235 -20 hstem
          78 53 245 53 vstem
          169 210 rmoveto
          341 55 -341 hlineto
          endchar
        </CharString>
        <CharString name="h.sc">
          21 -21 237 49 231 -20 hstem
          86 54 229 54 vstem
          86 hmoveto
          54 237 229 -237 54 517 -54 -231 -229 231 -54 hlineto
          endchar
        </CharString>
        <CharString name="halfcircleleft.bl">
          23 callsubr
          501 800 -83 callsubr
          endchar
        </CharString>
        <CharString name="halfcircleleft.wt">
          -34 callsubr
          0 24 vstem
          501 -176 -103 callgsubr
        </CharString>
        <CharString name="halfcircleright.bl">
          61 callgsubr
          -199 -100 callgsubr
          endchar
        </CharString>
        <CharString name="halfcircleright.wt">
          -59 callgsubr
          -1 -199 -100 callgsubr
          -22 vlineto
          -91 callsubr
          endchar
        </CharString>
        <CharString name="handle.black">
          -107 -34 callsubr
          1000 -176 rmoveto
          -350 hlineto
          203 64 146 -107 callsubr
          147 -187 202 24 callgsubr
          1001 hlineto
          endchar
        </CharString>
        <CharString name="handle.white">
          -107 22 callgsubr
          25 951 25 vstem
          -1 -199 -107 callgsubr
        </CharString>
        <CharString name="handleleft.bl">
          22 callgsubr
          778 -93 callsubr
        </CharString>
        <CharString name="handleleft.wt">
          22 callgsubr
          25 vstem
          -1 778 -102 callgsubr
        </CharString>
        <CharString name="handleright.bl">
          -34 callsubr
          501 -176 rmoveto
          -350 hlineto
          -98 callsubr
          22 -28 callsubr
          502 hlineto
          endchar
        </CharString>
        <CharString name="handleright.wt">
          -34 callsubr
          476 25 vstem
          501 800 -102 callsubr
        </CharString>
        <CharString name="hbar">
          0 -20 337 229 62 -21 hstem
          283 3 143 0 vstem
          587 vmoveto
          -41 283 41 vlineto
          -152 -199 -3 callsubr
          endchar
        </CharString>
        <CharString name="hbar.sc">
          15 callgsubr
          383 61 41 -61 93 -54 -93 -229 93 -54 -93 -70 -41 70 hlineto
          54 -97 rmoveto
          97 229 -97 vlineto
          endchar
        </CharString>
        <CharString name="hcircumflex">
          -30 callsubr
          142 914 -78 callsubr
        </CharString>
        <CharString name="hcircumflex.sc">
          15 callgsubr
          517 -54 -231 -229 231 -54 hlineto
          21 68 -67 callsubr
        </CharString>
        <CharString name="hyphen">
          213 54 hstem
          110 213 rmoveto
          287 54 -287 hlineto
          endchar
        </CharString>
        <CharString name="i">
          -43 callgsubr
          96 87 hstem
          239 53 vstem
          123 425 -8 callsubr
        </CharString>
        <CharString name="i.001">
          -43 callgsubr
          96 87 hstem
          239 63 vstem
          -624 1073 rmoveto
          661 -662 39 39 -662 662 rlineto
          1198 -1199 rmoveto
          -525 526 -39 -39 525 -525 rlineto
          endchar
        </CharString>
        <CharString name="i.001.bi">
          -857 43 callsubr
          95 89 hstemhm
          77 86 -64 64 hintmask 11101000
          13 425 rmoveto
          86 -425 53 475 -139 hlineto
          hintmask 11110000
          64 141 -59 callsubr
        </CharString>
        <CharString name="i.002.bi">
          -857 -43 callgsubr
          95 89 hstemhm
          13 150 -86 86 -64 64 hintmask 11110000
          13 425 rmoveto
          hintmask 11100100
          86 -375 -94 -50 233 50 -86 425 hlineto
          hintmask 11110000
          -139 hlineto
          hintmask 11101000
          64 141 -59 callsubr
        </CharString>
        <CharString name="i.bi">
          -857 35 callsubr
          115 89 hstemhm
          82 86 -69 53 hintmask 11101000
          99 -9 callgsubr
          -475 53 475 vlineto
          hintmask 11110000
          -70 141 -59 callsubr
        </CharString>
        <CharString name="i.calt">
          -43 callgsubr
          96 87 hstem
          229 53 vstem
          83 hmoveto
          345 50 -146 425 -199 -50 146 -375 -146 hlineto
          125 566 rmoveto
          -28 15 -17 28 27 14 16 29 27 -16 15 -25 -26 -17 -15 -27 vhcurveto
          endchar
        </CharString>
        <CharString name="i.sc">
          0 49 418 50 hstem
          225 54 vstem
          129 hmoveto
          243 49 -47 callgsubr
          hlineto
          endchar
        </CharString>
        <CharString name="iacute">
          -75 callsubr
          25 142 -80 callsubr
          endchar
        </CharString>
        <CharString name="iacute.sc">
          0 49 418 50 hstem
          225 54 vstem
          129 hmoveto
          243 49 -47 callgsubr
          hlineto
          18 548 -80 callsubr
          endchar
        </CharString>
        <CharString name="ibreve">
          -75 callsubr
          127 104 -99 callgsubr
          endchar
        </CharString>
        <CharString name="ibreve.sc">
          0 49 399 50 hstem
          225 54 vstem
          129 hmoveto
          243 49 -47 callgsubr
          hlineto
          122 530 -99 callgsubr
          endchar
        </CharString>
        <CharString name="icircumflex">
          -75 callsubr
          150 275 -78 callsubr
        </CharString>
        <CharString name="icircumflex.sc">
          0 49 418 50 34 144 hstemhm
          104 291 -170 54 hintmask 11110000
          129 hmoveto
          243 49 hlineto
          hintmask 11101000
          -47 callgsubr
          hlineto
          -22 536 -67 callsubr
        </CharString>
        <CharString name="idieresis">
          570 89 -12 37 hstemhm
          163 183 -183 220 -166 75 hintmask 01001000
          127 647 rmoveto
          hintmask 10010000
          -20 14 -17 22 vhcurveto
          hintmask 01001000
          22 14 17 20 hvcurveto
          hintmask 01100000
          20 -14 17 -22 -22 -14 -17 -20 vhcurveto
          183 hmoveto
          -20 15 -17 21 vhcurveto
          hintmask 01010000
          22 15 17 20 hvcurveto
          hintmask 01100000
          20 -15 17 -22 -21 -15 -17 -20 vhcurveto
          -187 -222 rmoveto
          116 -375 -124 -50 293 50 -116 425 -169 hlineto
          endchar
        </CharString>
        <CharString name="idieresis.sc">
          0 49 418 50 71 78 hstem
          121 76 28 54 vstem
          129 hmoveto
          243 49 -47 callgsubr
          hlineto
          -12 577 rmoveto
          -20 14 -17 22 22 14 17 20 20 -14 17 -22 -22 -14 -17 -20 vhcurveto
          193 hmoveto
          -20 15 -17 21 22 15 17 20 20 -15 17 -22 -21 -15 -17 -20 vhcurveto
          endchar
        </CharString>
        <CharString name="idotaccent.sc">
          0 49 418 50 73 74 hstemhm
          129 243 -156 73 hintmask 11110000
          129 hmoveto
          243 49 -47 callgsubr
          hlineto
          hintmask 11101000
          87 578 -81 callgsubr
          endchar
        </CharString>
        <CharString name="igrave">
          0 617 -192 292 -147 89 hstemhm
          115 60 -60 220 -118 75 hintmask 10010100
          154 617 rmoveto
          21 -39 183 90 rlineto
          hintmask 01001000
          -23 49 rlineto
          hintmask 10010100
          hintmask 01010100
          -212 -292 rmoveto
          116 -375 hlineto
          hintmask 00101000
          -124 hlineto
          hintmask 10001000
          -50 293 50 -116 425 -169 vlineto
          endchar
        </CharString>
        <CharString name="igrave.sc">
          0 49 418 50 41 139 hstemhm
          147 204 -126 54 hintmask 11110000
          129 hmoveto
          243 49 hlineto
          hintmask 11101000
          -47 callgsubr
          hlineto
          23 599 -31 callgsubr
        </CharString>
        <CharString name="imacron">
          -75 callsubr
          -19 194 -33 callgsubr
          endchar
        </CharString>
        <CharString name="imacron.sc">
          0 49 399 50 hstem
          225 54 vstem
          109 hmoveto
          283 49 -113 418 113 50 -283 -50 116 -418 -116 hlineto
          -9 590 -33 callgsubr
          endchar
        </CharString>
        <CharString name="infinity">
          121 49 242 49 hstem
          5 33 callgsubr
          vstem
          5 290 rmoveto
          -94 28 -75 86 74 30 41 71 29 vhcurveto
          -67 27 24 -45 82 hhcurveto
          85 25 73 94 101 -20 71 -92 -72 -29 -43 -69 -23 hvcurveto
          91 -36 -23 22 -76 hhcurveto
          -90 -29 -75 -96 hvcurveto
          52 hmoveto
          70 22 52 45 52 13 -19 -103 41 vhcurveto
          -87 -35 -17 -33 -52 hhcurveto
          -50 -19 53 67 hvcurveto
          386 -2 rmoveto
          -74 -19 -44 -46 -48 -21 30 97 -28 vhcurveto
          85 35 16 30 43 hhcurveto
          51 17 -40 -84 hvcurveto
          endchar
        </CharString>
        <CharString name="integral">
          -2 0 730 52 hstem
          210 53 vstem
          210 582 rmoveto
          -584 vlineto
          15 callsubr
          584 14 callgsubr
          endchar
        </CharString>
        <CharString name="iogonek">
          -239 42 52 0 195 375 hstem
          323 55 vstem
          225 -9 callsubr
          34 rlineto
          -106 -65 -47 -47 -67 vvcurveto
          -102 570 -8 callsubr
        </CharString>
        <CharString name="iogonek.sc">
          0 49 399 50 hstem
          225 54 vstem
          129 hmoveto
          175 6 callgsubr
          -41 -17 29 29 44 21 35 100 66 hvcurveto
          49 -47 callgsubr
          vlineto
          endchar
        </CharString>
        <CharString name="itilde">
          -43 callgsubr
          95 89 -53 48 6 47 hstemhm
          115 177 -75 75 -53 53 hintmask 11100010
          63 callgsubr
          hintmask 11100001
          116 -375 hlineto
          hintmask 11100100
          -124 -50 293 50 -116 425 -169 hlineto
          256 219 rmoveto
          hintmask 11010010
          -16 -17 -27 -24 -17 hhcurveto
          hintmask 11001010
          -42 -24 53 -62 hhcurveto
          -33 -32 -25 -29 -30 hvcurveto
          28 -34 rlineto
          17 18 27 24 21 hhcurveto
          hintmask 11010010
          60 callgsubr
        </CharString>
        <CharString name="itilde.sc">
          0 49 399 50 108 48 6 47 hstem
          225 54 vstem
          89 633 -62 callgsubr
          40 -633 rmoveto
          243 49 -47 callgsubr
          hlineto
          endchar
        </CharString>
        <CharString name="j">
          -17 callgsubr
          -80 626 -59 callsubr
        </CharString>
        <CharString name="j.001">
          -167 -21 614 49 95 89 hstem
          279 53 vstem
          -85 47 rmoveto
          631 -632 39 39 -632 631 rlineto
          endchar
        </CharString>
        <CharString name="j.001.bi">
          -857 -178 -21 625 49 95 89 hstemhm
          92 86 -59 59 hintmask 11101000
          172 -9 callgsubr
          -140 -49 87 -447 33 callsubr
          -80 637 -59 callsubr
        </CharString>
        <CharString name="j.bi">
          -857 -178 -21 674 -20 115 89 hstemhm
          92 86 -69 53 hintmask 11101000
          162 -9 callgsubr
          -53 -496 33 callsubr
          -70 637 -59 callsubr
        </CharString>
        <CharString name="j.calt">
          -167 -21 614 49 95 89 hstem
          299 53 vstem
          92 426 rmoveto
          207 -436 hlineto
          -91 -63 -15 -135 -20 vhcurveto
          6 -52 rlineto
          156 22 89 22 134 vvcurveto
          485 -260 vlineto
          180 141 -59 callsubr
        </CharString>
        <CharString name="j.sc">
          467 50 hstem
          332 55 -2 callsubr
          endchar
        </CharString>
        <CharString name="jcircumflex">
          -17 callgsubr
          -59 760 -78 callsubr
        </CharString>
        <CharString name="jcircumflex.sc">
          -8 49 407 50 hstem
          259 54 -2 callsubr
          -1 73 rmoveto
          30 -34 115 96 117 -96 29 34 -120 105 rlineto
          -52 hlineto
          endchar
        </CharString>
        <CharString name="k">
          -12 callgsubr
          60 hlineto
          -42 66 -82 126 -43 61 46 55 81 112 34 55 rrcurveto
          endchar
        </CharString>
        <CharString name="k.calt">
          35 callsubr
          210 -20 hstem
          97 53 vstem
          97 hmoveto
          53 212 hlineto
          91 9 rlineto
          72 -93 68 -128 0 vvcurveto
          62 hlineto
          0 -80 145 -80 104 vhcurveto
          74 89 78 137 0 vvcurveto
          -60 hlineto
          0 -67 -117 -73 -88 vhcurveto
          -85 -10 rlineto
          405 -53 vlineto
          endchar
        </CharString>
        <CharString name="k.sc">
          21 -21 517 -20 hstem
          94 -27 callgsubr
          endchar
        </CharString>
        <CharString name="kcommaaccent">
          -12 callgsubr
          63 hlineto
          -42 66 -83 126 -43 61 46 55 79 112 34 55 rrcurveto
          -200 -625 -87 callsubr
          endchar
        </CharString>
        <CharString name="kcommaaccent.sc">
          21 -21 498 -20 hstem
          96 -27 callgsubr
          127 -667 -87 callsubr
          endchar
        </CharString>
        <CharString name="l">
          -42 callsubr
          endchar
        </CharString>
        <CharString name="l.001">
          -10 52 625 -20 hstem
          173 53 vstem
          26 600 rmoveto
          98 9 16 1 17 2 16 2 rlinecurve
          -517 vlineto
          -69 34 -38 66 50 72 12 9 30 vhcurveto
          -9 50 rlineto
          -6 -25 -65 -13 -49 hhcurveto
          -36 -15 21 36 hvcurveto
          568 vlineto
          -205 -19 rlineto
          endchar
        </CharString>
        <CharString name="l.001.bi">
          -857 -10 52 625 -20 hstem
          90 53 vstem
          -5 605 rmoveto
          46 4 16 1 17 2 16 2 rlinecurve
          -517 14 callsubr
          568 vlineto
          -153 -14 rlineto
          endchar
        </CharString>
        <CharString name="l.002.bi">
          -857 21 -21 615 48 1 -20 hstemhm
          100 53 hintmask 11010000
          -9 614 rmoveto
          109 1 rlineto
          -615 53 vlineto
          hintmask 10110000
          664 vlineto
          hintmask 11010000
          -163 -1 rlineto
          endchar
        </CharString>
        <CharString name="l.003.bi">
          -857 -48 callgsubr
          99 53 vstem
          99 655 rmoveto
          -655 53 655 vlineto
          endchar
        </CharString>
        <CharString name="l.bi">
          -857 -10 52 613 -20 hstem
          70 53 vstem
          70 655 rmoveto
          -558 14 callsubr
          556 vlineto
          endchar
        </CharString>
        <CharString name="l.calt">
          0 50 566 49 hstem
          248 53 vstem
          95 hmoveto
          364 50 -158 615 hlineto
          -203 -1 1 -49 149 1 rlineto
          -566 -153 vlineto
          endchar
        </CharString>
        <CharString name="l.sc">
          0 50 467 -20 hstem
          104 55 vstem
          104 hmoveto
          296 50 -241 467 -55 hlineto
          endchar
        </CharString>
        <CharString name="lacute">
          -42 callsubr
          50 99 -80 callsubr
          endchar
        </CharString>
        <CharString name="lacute.sc">
          0 50 448 0 callgsubr
          467 -55 hlineto
          43 80 -80 callsubr
          endchar
        </CharString>
        <CharString name="lcaron">
          485 138 -24 16 hstemhm
          228 192 hintmask 01100000
          388 599 rmoveto
          32 hlineto
          -2 -34 -14 -25 -24 -35 rrcurveto
          hintmask 10100000
          21 -20 rlineto
          43 47 18 46 45 vvcurveto
          59 -74 vlineto
          hintmask 01100000
          -279 -68 rmoveto
          119 1 rlineto
          -565 -123 -50 298 50 -122 614 vlineto
          -173 -1 rlineto
          endchar
        </CharString>
        <CharString name="lcaron.sc">
          0 50 455 0 callgsubr
          467 -55 hlineto
          287 85 -87 callsubr
          endchar
        </CharString>
        <CharString name="lcommaaccent">
          -42 callsubr
          116 -813 -87 callsubr
          endchar
        </CharString>
        <CharString name="lcommaaccent.sc">
          0 50 448 0 callgsubr
          467 -55 hlineto
          199 148 -48 callsubr
          -51 67 vlineto
          endchar
        </CharString>
        <CharString name="leftarrow">
          -20 callgsubr
          hstem
          248 -10 rmoveto
          71 hlineto
          -220 220 rlineto
          407 55 -407 hlineto
          220 221 rlineto
          -71 hlineto
          -248 -248 rlineto
          endchar
        </CharString>
        <CharString name="leftarrow.circleleft.bl">
          -69 callgsubr
          501 800 -83 callsubr
          -360 487 28 callsubr
          endchar
        </CharString>
        <CharString name="leftarrow.circleleft.wt">
          -69 callgsubr
          376 166 11 callsubr
          342 -464 -103 callgsubr
        </CharString>
        <CharString name="leftarrow.circleright.bl">
          -69 callgsubr
          88 288 28 callsubr
          -306 -365 -100 callgsubr
          endchar
        </CharString>
        <CharString name="leftarrow.circleright.wt">
          -49 callsubr
          290 166 11 callsubr
          -74 -487 -100 callgsubr
          -64 callsubr
          hvcurveto
          hintmask 01110110
          -55 callsubr
        </CharString>
        <CharString name="leftarrow.closed.black">
          -37 callsubr
          114 -512 28 callsubr
          endchar
        </CharString>
        <CharString name="leftarrow.closed.white">
          -69 callgsubr
          360 166 11 callsubr
          358 512 -87 callgsubr
        </CharString>
        <CharString name="leftarrow.small.black">
          -37 callgsubr
          144 -512 28 callsubr
          endchar
        </CharString>
        <CharString name="leftarrow.small.white">
          -54 callsubr
          361 342 11 callsubr
          endchar
        </CharString>
        <CharString name="leftclosed.arrow">
          52 callsubr
          -246 80 840 80 vstem
          443 74 rmoveto
          404 vlineto
          -379 -199 rlineto
          endchar
        </CharString>
        <CharString name="leftclosed.arrow.small">
          -69 callgsubr
          360 166 11 callsubr
          endchar
        </CharString>
        <CharString name="less">
          52 -21 512 -20 hstem
          450 502 rmoveto
          -27 41 -379 -235 rlineto
          -32 vlineto
          379 -245 26 41 -345 220 rlineto
          endchar
        </CharString>
        <CharString name="lessequal">
          364 161 hstem
          463 484 rmoveto
          -18 41 -411 -161 rlineto
          -39 vlineto
          411 -170 18 41 -364 149 rlineto
          279 -311 rmoveto
          51 4 -7 35 rlineto
          -302 hlineto
          -51 -5 7 -34 rlineto
          endchar
        </CharString>
        <CharString name="lessequal.calt">
          54 42 hstem
          83 258 rmoveto
          313 -106 12 41 -278 90 rlineto
          11 vlineto
          281 90 -14 42 -314 -109 rlineto
          4 -263 rmoveto
          320 42 -320 hlineto
          endchar
        </CharString>
        <CharString name="logicalnot">
          252 -21 167 54 hstem
          414 54 vstem
          36 452 rmoveto
          -54 378 -167 54 221 vlineto
          endchar
        </CharString>
        <CharString name="lozenge">
          23 -21 688 -20 hstem
          470 346 rmoveto
          -218 344 -218 -344 218 -344 rlineto
          156 344 rmoveto
          -156 -249 -156 249 156 248 rlineto
          endchar
        </CharString>
        <CharString name="lozenge.alt">
          0 48 654 48 hstem
          52 375 rmoveto
          150 -375 rlineto
          100 hlineto
          145 375 -145 375 rlineto
          -100 hlineto
          -87 -375 rmoveto
          128 327 rlineto
          18 hlineto
          123 -327 -123 -327 rlineto
          -18 hlineto
          endchar
        </CharString>
        <CharString name="lslash">
          0 395 -123 342 hstemhm
          105 298 hintmask 10100000
          403 344 rmoveto
          51 vlineto
          -298 -72 rlineto
          hintmask 01100000
          -51 vlineto
          4 342 rmoveto
          119 1 rlineto
          -565 -123 vlineto
          hintmask 10100000
          -50 298 50 -122 614 vlineto
          -173 -1 rlineto
          endchar
        </CharString>
        <CharString name="lslash.sc">
          0 50 448 0 callgsubr
          208 hlineto
          149 36 rlineto
          51 vlineto
          -149 -36 rlineto
          208 -55 -222 vlineto
          -94 -22 rlineto
          -51 vlineto
          94 22 rlineto
          endchar
        </CharString>
        <CharString name="m">
          9 callsubr
          85 -9 callgsubr
          -50 -475 53 398 hlineto
          13 18 30 19 25 hhcurveto
          58 6 -48 -64 hvcurveto
          -166 53 166 vlineto
          30 -2 27 -4 23 vhcurveto
          14 22 29 18 27 hhcurveto
          58 6 50 callsubr
          102 -21 61 -92 -38 -38 -26 -17 -22 vhcurveto
          27 -16 -33 16 -42 hhcurveto
          -18 -37 -20 -16 -22 hvcurveto
          endchar
        </CharString>
        <CharString name="m.sc">
          21 -21 184 45 288 -20 hstem
          76 53 242 53 vstem
          76 hmoveto
          53 394 3 hlineto
          90 -210 rlineto
          62 hlineto
          84 210 rlineto
          3 -394 53 517 -50 hlineto
          -117 -288 rlineto
          -8 hlineto
          -121 288 rlineto
          -52 hlineto
          endchar
        </CharString>
        <CharString name="m.tri">
          -357 21 -21 430 51 -6 -20 hstemhm
          65 53 230 53 229 53 hintmask 10111100
          115 -9 callgsubr
          -50 -475 53 388 hlineto
          hintmask 11011100
          19 38 63 23 25 hhcurveto
          58 46 50 callsubr
          29 -5 22 -6 16 vhcurveto
          19 37 64 26 35 hhcurveto
          58 46 50 callsubr
          94 -59 69 -94 -48 -72 -31 -25 -43 vhcurveto
          32 -23 -44 24 -52 hhcurveto
          -36 -63 -29 -17 -31 hvcurveto
          endchar
        </CharString>
        <CharString name="minus">
          261 44 hstem
          35 261 rmoveto
          430 44 -430 hlineto
          endchar
        </CharString>
        <CharString name="minus.calt">
          261 46 hstem
          405 261 rmoveto
          46 -310 -46 vlineto
          endchar
        </CharString>
        <CharString name="mu">
          -10 52 433 -20 hstem
          75 53 242 53 vstem
          75 -49 rmoveto
          -65 -5 -19 -16 -40 vhcurveto
          42 -19 rlineto
          24 40 6 34 66 vvcurveto
          21 vlineto
          -5 64 rlineto
          -24 17 37 -19 43 hhcurveto
          44 61 25 23 47 hvcurveto
          2 -38 rlineto
          51 475 -53 -385 hlineto
          -23 -46 -58 -25 -48 hhcurveto
          -62 -28 50 62 hvcurveto
          321 -53 vlineto
          endchar
        </CharString>
        <CharString name="multiply">
          129 -21 377 -20 hstem
          402 108 rmoveto
          34 33 -156 156 156 155 -34 33 -155 -155 -155 155 -34 -33 156 -155 -156 -156 34 -33 155 155 rlineto
          endchar
        </CharString>
        <CharString name="multiply.calt">
          160 -21 321 -20 hstem
          89 172 rmoveto
          34 -33 127 127 125 -125 33 34 -125 125 128 127 -33 33 -128 -127 -125 124 -32 -34 124 -123 rlineto
          endchar
        </CharString>
        <CharString name="n">
          -70 callgsubr
          endchar
        </CharString>
        <CharString name="n.sc">
          21 -21 517 -20 -57 callsubr
          endchar
        </CharString>
        <CharString name="nacute">
          -70 callgsubr
          19 182 -80 callsubr
          endchar
        </CharString>
        <CharString name="nacute.sc">
          21 -21 499 -20 51 callsubr
          147 597 -80 callsubr
          -250 -697 rmoveto
          55 424 3 hlineto
          232 -346 rlineto
          -78 54 517 -54 -350 -3 vlineto
          -233 350 rlineto
          -54 hlineto
          endchar
        </CharString>
        <CharString name="ncaron">
          -70 callgsubr
          267 287 -77 callgsubr
          endchar
        </CharString>
        <CharString name="ncaron.sc">
          21 -21 499 -20 -57 callsubr
          141 34 -64 callgsubr
        </CharString>
        <CharString name="ncommaaccent">
          -70 callgsubr
          90 -585 -87 callsubr
          endchar
        </CharString>
        <CharString name="ncommaaccent.sc">
          21 -21 499 -20 -57 callsubr
          205 148 -48 callsubr
          -51 67 vlineto
          endchar
        </CharString>
        <CharString name="nine">
          -17 0 callsubr
          63 58 275 58 vstem
          63 438 -51 callsubr
          58 -1 callgsubr
          endchar
        </CharString>
        <CharString name="nine.circle.black">
          -50 callsubr
          128 381 -92 callgsubr
        </CharString>
        <CharString name="nine.circle.white">
          -107 -36 11 245 52 300 52 hstem
          307 64 275 52 vstem
          307 419 -51 callsubr
          64 -1 callgsubr
          129 381 rmoveto
          -106 callsubr
        </CharString>
        <CharString name="nine.closed.black">
          -51 callgsubr
          129 39 179 21 callsubr
          86 -414 -85 callsubr
          endchar
        </CharString>
        <CharString name="nine.closed.white">
          -51 callgsubr
          129 5 callgsubr
          115 -98 callgsubr
          344 414 -87 callgsubr
        </CharString>
        <CharString name="nine.frameleft">
          -51 callgsubr
          193 5 callgsubr
          179 -98 callgsubr
          280 -585 rmoveto
          23 vlineto
          -104 callsubr
          -28 callsubr
          vlineto
          endchar
        </CharString>
</ttFont>
